<?xml version="1.0" standalone="no"?>
<!DOCTYPE svg PUBLIC "-//W3C//DTD SVG 1.1//EN" "http://www.w3.org/Graphics/SVG/1.1/DTD/svg11.dtd" >
<svg xmlns="http://www.w3.org/2000/svg" xmlns:xlink="http://www.w3.org/1999/xlink" version="1.1">
<metadata>
Created by FontForge 20190801 at Thu Jun 18 10:42:10 2015
 By Jimmy Wärting
(c) 2013-2015 Typodermic Fonts Inc. See attached license agreement. If agreement is missing visit typodermicfonts.com for more info.
</metadata>
<defs>
<font id="BuiltTitlingSb-Italic" horiz-adv-x="398" >
  <font-face 
    font-family="Built Titling Sb"
    font-weight="600"
    font-style="italic"
    font-stretch="normal"
    units-per-em="1000"
    panose-1="2 11 7 6 3 2 2 8 2 4"
    ascent="762"
    descent="-238"
    cap-height="757"
    bbox="-173 -238 774 962"
    underline-thickness="20"
    underline-position="-143"
    slope="-10"
    unicode-range="U+0017-25CA"
  />
<missing-glyph horiz-adv-x="807" 
d="M404 -169q-85 0 -146 4t-102 20.5t-65.5 50.5t-37.5 95t-16.5 153t-3.5 225t3.5 225t16.5 153t37.5 95t65.5 51t101.5 20.5t146.5 3.5t146.5 -3.5t101.5 -20.5t65.5 -51t37 -95t16 -153t3.5 -225q0 -132 -3.5 -224.5t-16 -153.5t-37 -95t-65.5 -50.5t-101.5 -20.5
t-146.5 -4zM402 212q9 34 15.5 54t11 31.5t9.5 16t11 8.5q19 11 38.5 17t41.5 20q15 10 25.5 22t20 30t18 44t18.5 65q7 28 11 51.5t4 43.5q0 54 -33.5 86t-112.5 53q-54 14 -89 14q-53 0 -83.5 -30.5t-48.5 -99.5q-8 -29 -10.5 -46.5t-2.5 -33.5l127 -33q4 42 16.5 62.5
t29.5 20.5q29 0 42 -11.5t13 -27.5q0 -8 -1.5 -16t-4.5 -20q-5 -23 -10 -36.5t-12.5 -21.5t-19 -14t-30.5 -14q-22 -10 -38.5 -19.5t-28 -21t-19.5 -26t-13 -33.5q-8 -31 -15 -57t-9 -43zM393 136l-151 40l-39 -146l151 -41z" />
    <glyph glyph-name="copyright" unicode="&#x28;C&#x29;" horiz-adv-x="534" 
d="M342 335q-6 -48 -11.5 -71t-10.5 -37q-11 -28 -29.5 -39.5t-53.5 -11.5q-36 0 -52.5 11t-16.5 46q0 17 4.5 51t16.5 101q9 49 15 79t11 48t9 28t9 18q12 19 28 26t48 7q36 0 50 -12t14 -48q0 -24 -4 -48t-10 -48h-56q5 18 8.5 39.5t3.5 34.5q0 11 -3.5 14t-14.5 3
q-9 0 -13 -2t-7 -7t-5 -10.5t-5 -18.5t-7.5 -37t-11.5 -66q-6 -32 -9.5 -53.5t-5.5 -35t-3 -21.5t-1 -13q0 -9 3 -13.5t17 -4.5q8 0 11.5 1.5t6.5 6.5q8 16 11 35t8 48h56zM396 49q-14 -17 -31 -29t-39.5 -19.5t-53 -10.5t-71.5 -3q-47 0 -82 5t-58.5 20t-35 42t-11.5 71
q0 34 7.5 93.5t25.5 160.5q16 89 28 145t22.5 91t22 55t25.5 38q14 17 31 28.5t39.5 19t52.5 11t71 3.5q45 0 80.5 -4.5t59.5 -19.5t36.5 -42.5t12.5 -73.5q0 -35 -8 -93.5t-25 -157.5q-16 -90 -28 -146t-23 -91.5t-22.5 -55.5t-25.5 -37zM354 91q10 12 18 28t16.5 46.5
t19 81.5t24.5 132q9 50 15 87.5t9.5 66t5.5 48.5t2 34q0 30 -8 47t-25 25.5t-43 10.5t-61 2q-32 0 -55 -2t-39.5 -6.5t-27 -11t-17.5 -15.5q-10 -12 -18 -28t-16.5 -46t-19 -80.5t-24.5 -131.5q-9 -50 -15 -88.5t-10 -67t-6 -48.5t-2 -35q0 -30 8 -46.5t25 -24.5t43 -10
t61 -2q65 0 95 8t45 26z" />
    <glyph glyph-name="registered" unicode="&#x28;R&#x29;" horiz-adv-x="534" 
d="M396 49q-14 -17 -31 -29t-39.5 -19.5t-53 -10.5t-71.5 -3q-47 0 -82 5t-58.5 20t-35 42t-11.5 71q0 34 7.5 93.5t25.5 160.5q16 89 28 145t22.5 91t22 55t25.5 38q14 17 31 28.5t39.5 19t52.5 11t71 3.5q45 0 80.5 -4.5t59.5 -19.5t36.5 -42.5t12.5 -73.5q0 -35 -8 -93.5
t-25 -157.5q-16 -90 -28 -146t-23 -91.5t-22.5 -55.5t-25.5 -37zM354 91q10 12 18 28t16.5 46.5t19 81.5t24.5 132q9 50 15 87.5t9.5 66t5.5 48.5t2 34q0 30 -8 47t-25 25.5t-43 10.5t-61 2q-32 0 -55 -2t-39.5 -6.5t-27 -11t-17.5 -15.5q-10 -12 -18 -28t-16.5 -46
t-19 -80.5t-24.5 -131.5q-9 -50 -15 -88.5t-10 -67t-6 -48.5t-2 -35q0 -30 8 -46.5t25 -24.5t43 -10t61 -2q65 0 95 8t45 26zM264 180q-1 5 -1.5 10.5t-0.5 14.5q0 14 1.5 31.5t3 34t3 30.5t1.5 22q0 14 -3 17.5t-8 3.5h-15l-29 -164h-59l71 404h92q30 0 43 -12.5t13 -41.5
q0 -21 -3.5 -42.5t-8.5 -42.5q-4 -19 -8 -31t-8.5 -19.5t-9.5 -12t-11 -7.5l-2 -9q4 -5 5.5 -12t1.5 -26q0 -24 -4 -57.5t-4 -63.5v-11.5t1 -11.5l-1 -4h-60zM278 403q13 0 18.5 9t10.5 38q4 23 5 33t1 16q0 13 -4 16.5t-11 3.5h-22l-20 -116h22z" />
    <glyph glyph-name="uni2117" unicode="&#x28;P&#x29;" horiz-adv-x="534" 
d="M160 180l71 404h91q29 0 42 -12t13 -47q0 -14 -2.5 -35.5t-9.5 -61.5q-12 -68 -31.5 -95t-60.5 -27h-31l-22 -126h-60zM274 371q12 0 19.5 12.5t14.5 53.5q5 27 6.5 41t1.5 22q0 13 -4 16t-12 3h-20l-26 -148h20zM396 49q-14 -17 -31 -29t-39.5 -19.5t-53 -10.5t-71.5 -3
q-47 0 -82 5t-58.5 20t-35 42t-11.5 71q0 34 7.5 93.5t25.5 160.5q16 89 28 145t22.5 91t22 55t25.5 38q14 17 31 28.5t39.5 19t52.5 11t71 3.5q45 0 80.5 -4.5t59.5 -19.5t36.5 -42.5t12.5 -73.5q0 -35 -8 -93.5t-25 -157.5q-16 -90 -28 -146t-23 -91.5t-22.5 -55.5
t-25.5 -37zM354 91q10 12 18 28t16.5 46.5t19 81.5t24.5 132q9 50 15 87.5t9.5 66t5.5 48.5t2 34q0 30 -8 47t-25 25.5t-43 10.5t-61 2q-32 0 -55 -2t-39.5 -6.5t-27 -11t-17.5 -15.5q-10 -12 -18 -28t-16.5 -46t-19 -80.5t-24.5 -131.5q-9 -50 -15 -88.5t-10 -67t-6 -48.5
t-2 -35q0 -30 8 -46.5t25 -24.5t43 -10t61 -2q65 0 95 8t45 26z" />
    <glyph glyph-name=".notdef" horiz-adv-x="807" 
d="M404 -169q-85 0 -146 4t-102 20.5t-65.5 50.5t-37.5 95t-16.5 153t-3.5 225t3.5 225t16.5 153t37.5 95t65.5 51t101.5 20.5t146.5 3.5t146.5 -3.5t101.5 -20.5t65.5 -51t37 -95t16 -153t3.5 -225q0 -132 -3.5 -224.5t-16 -153.5t-37 -95t-65.5 -50.5t-101.5 -20.5
t-146.5 -4zM402 212q9 34 15.5 54t11 31.5t9.5 16t11 8.5q19 11 38.5 17t41.5 20q15 10 25.5 22t20 30t18 44t18.5 65q7 28 11 51.5t4 43.5q0 54 -33.5 86t-112.5 53q-54 14 -89 14q-53 0 -83.5 -30.5t-48.5 -99.5q-8 -29 -10.5 -46.5t-2.5 -33.5l127 -33q4 42 16.5 62.5
t29.5 20.5q29 0 42 -11.5t13 -27.5q0 -8 -1.5 -16t-4.5 -20q-5 -23 -10 -36.5t-12.5 -21.5t-19 -14t-30.5 -14q-22 -10 -38.5 -19.5t-28 -21t-19.5 -26t-13 -33.5q-8 -31 -15 -57t-9 -43zM393 136l-151 40l-39 -146l151 -41z" />
    <glyph glyph-name="uni0017" horiz-adv-x="175" 
 />
    <glyph glyph-name="space" unicode=" " horiz-adv-x="175" 
 />
    <glyph glyph-name="exclam" unicode="!" horiz-adv-x="227" 
d="M47 227l82 561h122l-113 -561h-91zM-3 0l26 151h111l-26 -151h-111z" />
    <glyph glyph-name="quotedbl" unicode="&#x22;" horiz-adv-x="347" 
d="M89 499zM89 499l35 289h104l-68 -289h-71zM236 499l35 289h104l-68 -289h-71z" />
    <glyph glyph-name="numbersign" unicode="#" 
d="M171 0l38 220h-65l-38 -220h-68l38 220h-61l14 76h61l29 166h-61l13 76h61l39 219h68l-39 -219h65l39 219h69l-39 -219h60l-13 -76h-60l-29 -166h60l-14 -76h-60l-38 -220h-69zM252 462h-65l-29 -166h65z" />
    <glyph glyph-name="dollar" unicode="$" 
d="M100 -43l22 124q-50 2 -75 21t-25 69q0 28 6.5 58t14.5 60h100q-5 -17 -8.5 -37.5t-3.5 -35.5q0 -17 8 -23.5t28 -6.5q15 0 24 3.5t15 10.5t9.5 18t6.5 27q5 22 6 32.5t1 17.5q0 15 -7 23q-9 11 -25.5 21t-34.5 19.5t-35.5 19t-28.5 20.5q-13 11 -19 25t-6 38
q0 33 7 71.5t15 64.5q16 50 47 71.5t88 24.5l19 108h56l-19 -108q51 -2 73.5 -20.5t22.5 -62.5q0 -27 -5.5 -54.5t-13.5 -55.5h-99q6 27 8.5 41.5t2.5 26.5q0 17 -8 23t-28 6q-25 0 -34.5 -10.5t-15.5 -37.5q-5 -26 -7 -37.5t-2 -18.5q0 -12 5.5 -18t18.5 -13q23 -13 45 -22
t42 -21q16 -9 26 -17t16 -17t8.5 -20t2.5 -26q0 -19 -4.5 -48t-15.5 -70q-7 -27 -16.5 -51t-26 -42.5t-41.5 -30.5t-62 -15l-22 -125h-56z" />
    <glyph glyph-name="percent" unicode="%" horiz-adv-x="541" 
d="M4 0zM204 364q-14 -15 -29 -19t-47 -4q-42 0 -58 10t-16 45q0 11 1.5 26t5 36.5t8.5 51t12 69.5q7 39 12 67t10.5 48.5t11 34t13.5 22.5q11 14 27.5 19t48.5 5q39 0 56.5 -10.5t17.5 -47.5q0 -11 -1.5 -26t-4.5 -36t-7.5 -49.5t-11.5 -65.5q-8 -41 -14 -70.5t-11.5 -50
t-11 -34t-12.5 -21.5zM157 431q3 5 5 12t5 20.5t7 35.5l10 55l10 55t6.5 36.5t3.5 23t1 13.5q0 9 -3 12t-12 3q-12 0 -17 -8q-2 -5 -4 -12.5t-5 -21.5t-7 -36t-10 -56q-6 -32 -9.5 -54t-6 -36t-3 -22.5t-0.5 -13.5q0 -9 3 -11.5t11 -2.5q6 0 9.5 1.5t5.5 6.5zM4 0l1 4
l467 753h70l-1 -5l-468 -752h-69zM421 6q-14 -15 -29 -19t-47 -4q-42 0 -58 10t-16 45q0 11 1.5 26t5 36.5t8.5 51t12 69.5q7 39 12 67t10.5 48.5t11 34t13.5 22.5q11 14 27.5 19t48.5 5q39 0 56.5 -10.5t17.5 -47.5q0 -11 -1.5 -26t-4.5 -36t-7.5 -49.5t-11.5 -65.5
q-8 -41 -14 -70.5t-11.5 -50t-11 -34t-12.5 -21.5zM374 73q3 5 5 12t5 20.5t7 35.5l10 55l10 55t6.5 36.5t3.5 23t1 13.5q0 9 -3 12t-12 3q-12 0 -17 -8q-2 -5 -4 -12.5t-5 -21.5t-7 -36t-10 -56q-6 -32 -9.5 -54t-6 -36t-3 -22.5t-0.5 -13.5q0 -9 3 -11.5t11 -2.5
q6 0 9.5 1.5t5.5 6.5z" />
    <glyph glyph-name="ampersand" unicode="&#x26;" horiz-adv-x="466" 
d="M281 0l-19 71h-4q-19 -45 -49.5 -64.5t-87.5 -19.5q-33 0 -55.5 3.5t-36.5 13t-20 27t-6 44.5q0 12 0.5 27t3 36.5t7.5 50.5t13 69q7 34 14 58.5t20.5 44t36.5 36.5t62 37q-8 30 -13 48.5t-7.5 30.5t-3.5 20t-1 17q0 14 2 32.5t10 57.5q8 38 18.5 63t27.5 40t44 21t68 6
q26 0 44.5 -3t30.5 -11.5t18 -24.5t6 -41q0 -17 -2.5 -44t-13.5 -82q-6 -32 -12.5 -53.5t-18.5 -39t-33 -35t-57 -39.5l24 -102h4l43 89h102l-1 -5l-113 -196l51 -179v-4h-96zM227 190l-41 155q-13 -8 -21 -15t-13.5 -16.5t-9.5 -23.5t-8 -38q-9 -46 -12 -69.5t-3 -36.5
q0 -20 8.5 -24t28.5 -4q10 0 17 1t12.5 5t11 12t12.5 21zM240 482q17 10 27.5 17t16.5 16t10 22t8 35q5 30 7.5 44t2.5 22q0 15 -7 18.5t-24 3.5q-12 0 -20 -1.5t-13 -7t-8 -16t-6 -28.5q-5 -23 -6 -33.5t-1 -18.5q0 -11 2.5 -24.5t10.5 -48.5z" />
    <glyph glyph-name="quotesingle" unicode="'" horiz-adv-x="201" 
d="M89 499l35 289h104l-68 -289h-71z" />
    <glyph glyph-name="parenleft" unicode="(" 
d="M159 -238q-23 38 -39 98t-16 159q0 65 8 149t28 194q24 138 52 237t57 169t60 116t61 78h83l-1 -6q-31 -37 -61 -81.5t-59 -111.5t-56 -163.5t-52 -238.5q-20 -111 -28 -192t-8 -143q0 -48 4.5 -85.5t12 -68t17 -56t20.5 -49.5v-5h-83z" />
    <glyph glyph-name="parenright" unicode=")" 
d="M-50 -238v5q31 39 61.5 84t59 111t55.5 162t52 237q19 109 27.5 190t8.5 143q0 49 -4.5 87t-12 68.5t-17.5 56.5t-21 50l1 6h82q23 -38 39 -98t16 -158q0 -66 -8 -150t-28 -194q-24 -138 -51.5 -237t-57 -169t-60 -116t-61.5 -78h-81z" />
    <glyph glyph-name="asterisk" unicode="*" horiz-adv-x="487" 
d="M369 369l-84 138h-10l-85 -140l-59 44l106 122l-3 11l-160 37l23 70l150 -63l8 6l-14 163h74l-14 -162l9 -6l150 64l23 -71l-158 -36l-3 -11l107 -123z" />
    <glyph glyph-name="plus" unicode="+" 
d="M130 199l23 134h-120l16 92h120l24 134h84l-24 -134h119l-16 -92h-119l-23 -134h-84z" />
    <glyph glyph-name="comma" unicode="," horiz-adv-x="215" 
d="M-32 -142l1 5l60 139l-1 8h-37l23 128h111l-24 -134l-80 -146h-53z" />
    <glyph glyph-name="hyphen" unicode="-" horiz-adv-x="330" 
d="M37 332l17 98h247l-17 -98h-247z" />
    <glyph glyph-name="period" unicode="." horiz-adv-x="214" 
d="M-10 0l24 138h110l-24 -138h-110z" />
    <glyph glyph-name="slash" unicode="/" 
d="M-55 -153l425 1001h82l-426 -1001h-81z" />
    <glyph glyph-name="zero" unicode="0" 
d="M266 25q-10 -12 -21 -19.5t-26.5 -11.5t-36.5 -5.5t-49 -1.5q-37 0 -61.5 3.5t-39 13t-20.5 28t-6 48.5q0 20 2.5 47.5t8.5 68.5t15.5 97t22.5 133q12 68 22 118.5t20 87t20 60.5t23 40q9 12 20.5 19.5t26.5 11.5t35.5 5.5t48.5 1.5q40 0 65 -3.5t39.5 -14t19.5 -29
t5 -48.5q0 -20 -2.5 -47.5t-8.5 -68t-15.5 -97t-23.5 -132.5q-12 -68 -22 -118.5t-19.5 -87t-20 -60.5t-22.5 -39zM197 140q4 9 8.5 22.5t10 38t12.5 62.5t18 97q11 65 18.5 109t12 72.5t6.5 44.5t2 26q0 20 -7 28t-28 8q-17 0 -25.5 -4.5t-15.5 -17.5q-5 -9 -9 -22t-9 -38
t-12.5 -65t-18.5 -103q-11 -60 -18 -101.5t-11.5 -69.5t-6 -44.5t-1.5 -26.5q0 -21 6 -29.5t27 -8.5q16 0 25 3.5t16 18.5z" />
    <glyph glyph-name="one" unicode="1" 
d="M-6 0l23 131h89l69 396h-91l20 110h53q15 0 25.5 2t18 8.5t12.5 18t10 31.5l14 60h93l-110 -626h84l-23 -131h-287z" />
    <glyph glyph-name="two" unicode="2" 
d="M-10 0l24 137l117 131q42 47 66 75t37.5 52t20.5 50t16 68q9 44 11 66t2 33q0 20 -6.5 28t-29.5 8t-34.5 -10t-16.5 -30q-8 -29 -14.5 -64t-11.5 -73h-105q4 46 13.5 95.5t25.5 97.5q10 31 24 51.5t33.5 32.5t45.5 17t61 5q37 0 61.5 -5t39.5 -18t21.5 -36t6.5 -59
q0 -11 -1 -24t-3 -31t-5.5 -42t-9.5 -56q-8 -47 -16.5 -77.5t-22.5 -57t-37 -54.5t-60 -69l-97 -107l1 -8h161l-22 -126h-296z" />
    <glyph glyph-name="three" unicode="3" 
d="M312 387q7 -5 13.5 -10t10.5 -12t6.5 -17.5t2.5 -26.5q0 -9 -1 -21.5t-3.5 -30.5t-6.5 -43t-10 -59q-9 -50 -20.5 -84.5t-32.5 -55.5t-54 -30.5t-84 -9.5q-72 0 -100 24.5t-28 84.5q0 36 6.5 80.5t17.5 85.5h103q-6 -23 -11.5 -53t-5.5 -59q0 -23 9.5 -27.5t31.5 -4.5
q18 0 29 2t18.5 11t12 26t10.5 47q8 47 11.5 68t3.5 32q0 19 -9 25t-37 6h-63l18 104h63q17 0 26.5 2.5t15.5 10t9 21.5t8 37q10 52 13.5 76t3.5 36q0 20 -9 24.5t-30 4.5q-23 0 -33.5 -5.5t-18.5 -29.5t-12.5 -49.5t-7.5 -51.5h-104q3 32 10 65t17 68q9 33 22 56t33 38
t48 21.5t67 6.5q34 0 58.5 -3t40.5 -13t23 -28t7 -49q0 -45 -8 -89.5t-18 -90.5q-11 -47 -25 -68t-36 -35z" />
    <glyph glyph-name="four" unicode="4" 
d="M151 0l24 140h-177l21 123l261 494h109l-90 -508h44l-19 -109h-44l-24 -140h-105zM225 406q9 55 18 85h-6l-10 -22t-14 -29l-92 -183l2 -8h74z" />
    <glyph glyph-name="five" unicode="5" 
d="M69 418l78 339h270l-22 -126h-174l-29 -127l3 -1q11 8 29 13.5t44 5.5q54 0 72.5 -24.5t18.5 -77.5q0 -11 -1 -24t-3.5 -32.5t-6.5 -46.5t-11 -66q-24 -138 -65 -202q-22 -35 -54 -48.5t-90 -13.5q-34 0 -57 5.5t-37.5 19t-20.5 35.5t-6 55q0 38 8.5 90t20.5 98h103
q-4 -16 -8 -34t-7 -35t-5 -32t-2 -26q0 -19 6 -32t32 -13q20 0 28.5 4.5t13.5 15.5q4 9 7.5 19.5t7.5 24.5t8 33.5t9 48.5t8 49t5 33.5t3 22.5t1 15q0 22 -8.5 26.5t-24.5 4.5q-19 0 -34.5 -8t-27.5 -19z" />
    <glyph glyph-name="six" unicode="6" 
d="M279 549q11 30 11 72q0 17 -7 22t-25 5q-20 0 -31 -6.5t-22 -29.5q-3 -7 -6.5 -17t-7.5 -27.5t-9 -44t-12 -66.5l3 -2q15 6 33 10.5t38 4.5q25 0 44 -4.5t32.5 -16.5t20.5 -33t7 -54q0 -21 -3.5 -52.5t-14.5 -89.5q-13 -72 -28.5 -117t-39.5 -73q-22 -25 -50.5 -34
t-77.5 -9q-36 0 -60 4.5t-38.5 17t-20.5 34.5t-6 58q0 39 9.5 104t28.5 174q13 73 24 128.5t21 96.5t20.5 69.5t22.5 46.5q11 17 24 27t29.5 15t37 6.5t46.5 1.5q34 0 58.5 -2.5t40 -11t22.5 -25t7 -44.5q0 -35 -6 -69.5t-15 -68.5h-100zM139 278q-10 -52 -13.5 -78
t-3.5 -40q0 -21 7 -31.5t30 -10.5q16 0 22.5 3.5t12.5 12.5q9 14 16 36t15 70q5 27 7.5 44.5l4 28t2 15.5t0.5 9q0 23 -9 29.5t-27 6.5q-33 0 -51 -18z" />
    <glyph glyph-name="seven" unicode="7" 
d="M19 0l251 622l-1 9h-176l22 126h309l-13 -76l-270 -681h-122z" />
    <glyph glyph-name="eight" unicode="8" 
d="M313 387q15 -9 24 -20t9 -42q0 -16 -4 -54.5t-13 -82.5t-22.5 -87t-31.5 -68q-20 -28 -51.5 -37t-90.5 -9q-35 0 -60 2.5t-41.5 12.5t-24.5 29.5t-8 54.5q0 10 1 23t3 31t6 43t10 60q7 43 14.5 68t16 39.5t19.5 21.5t26 15l1 7q-14 12 -20 25.5t-6 37.5q0 18 3 46.5
t14 81.5q12 64 25 101t32.5 56t49.5 23.5t77 4.5q34 0 58.5 -3t40.5 -12.5t23 -27.5t7 -48q0 -22 -3.5 -54.5t-14.5 -92.5q-6 -31 -11 -52.5t-12.5 -37.5t-18 -27t-26.5 -21zM156 116q15 0 25 1.5t18 10.5t14.5 29t12.5 56q8 44 11 64.5t3 31.5q0 20 -8.5 25.5t-36.5 5.5
q-23 0 -32 -3.5t-17 -13.5q-3 -5 -5.5 -11.5t-5 -18t-6 -28.5t-8.5 -44q-4 -23 -6 -39.5t-2 -27.5q0 -14 3 -22t8.5 -11.5t13.5 -4t18 -0.5zM251 447q3 3 6 8.5t6 15.5t6.5 26t8.5 41q6 36 8.5 54.5t2.5 28.5q0 17 -7 24t-32 7q-17 0 -24 -2t-15 -10q-8 -9 -12 -24.5
t-11 -54.5q-8 -47 -10.5 -68t-2.5 -31q0 -15 7 -21t30 -6q17 0 24.5 2t14.5 10z" />
    <glyph glyph-name="nine" unicode="9" 
d="M51 0l1 7q24 34 47.5 72.5t45.5 76.5t40.5 75t32.5 70l-7 5q-6 -5 -24 -10.5t-42 -5.5q-45 0 -67.5 20.5t-22.5 69.5q0 37 8 94t25 128q12 53 24 86t30.5 51t48.5 24.5t80 6.5q36 0 61.5 -3.5t41.5 -13t23.5 -28t7.5 -48.5q0 -24 -5 -63t-13 -83.5t-18.5 -90t-22.5 -82.5
q-56 -176 -169 -358h-126zM246 404q3 7 6 16t6 22t6.5 30.5t7.5 42.5q8 42 11 65t3 37q0 23 -8.5 27.5t-28.5 4.5q-17 0 -23.5 -2t-12.5 -9q-8 -9 -14 -29.5t-13 -66.5q-9 -47 -12.5 -72.5t-3.5 -40.5q0 -22 7.5 -27.5t24.5 -5.5q19 0 28.5 2.5t15.5 5.5z" />
    <glyph glyph-name="colon" unicode=":" horiz-adv-x="235" 
d="M0 0l24 138h110l-24 -138h-110zM72 409l24 138h110l-24 -138h-110z" />
    <glyph glyph-name="semicolon" unicode=";" horiz-adv-x="236" 
d="M-22 -142l1 5l60 139l-2 8h-36l23 128h111l-24 -134l-80 -146h-53zM72 409l24 138h110l-24 -138h-110z" />
    <glyph glyph-name="less" unicode="&#x3c;" 
d="M320 149l-287 184l16 92l352 184h4l-19 -108l-246 -122l-2 -10l203 -121l-17 -99h-4z" />
    <glyph glyph-name="equal" unicode="=" 
d="M12 211l16 92h323l-16 -92h-323zM55 455l16 93h323l-16 -93h-323z" />
    <glyph glyph-name="greater" unicode="&#x3e;" 
d="M85 609l287 -184l-16 -92l-352 -184h-4l19 108l246 122l2 10l-203 121l17 99h4z" />
    <glyph glyph-name="question" unicode="?" horiz-adv-x="370" 
d="M112 227q2 21 6 47t9 52q6 36 21 61t45 49q25 20 34 29t14 18q5 8 8 15.5t5.5 17t5 22.5t5.5 34q4 20 5.5 32t1.5 20q0 14 -5.5 20t-28.5 6q-19 0 -28 -3t-17 -23q-8 -17 -12.5 -45t-7.5 -57h-93q2 50 10 93.5t20 75.5q17 45 51.5 62t97.5 17q58 0 89 -17t31 -70
q0 -20 -3.5 -48t-10.5 -75q-6 -33 -11 -55.5t-11 -38t-13 -27t-17 -22.5q-20 -23 -43.5 -41t-35.5 -37q-19 -31 -27 -112h-95zM63 0l26 151h111l-26 -151h-111z" />
    <glyph glyph-name="at" unicode="@" horiz-adv-x="567" 
d="M460 -13q-1 -23 -6 -48t-15.5 -48t-27 -43t-39.5 -32q-14 -8 -28.5 -13t-35 -8t-49 -4.5t-70.5 -1.5q-49 0 -86.5 4.5t-63.5 18.5t-39.5 40t-13.5 70q0 18 2.5 46t9 74t18 114.5t28.5 167.5q13 78 24.5 128.5t22 83t21.5 50.5t23 32q33 36 84 49.5t126 13.5q44 0 80 -4.5
t61 -18t38.5 -38.5t13.5 -66q0 -18 -2 -41.5t-6.5 -57.5t-11.5 -79.5t-18 -107.5q-11 -60 -17.5 -95.5t-12 -56t-11 -31t-12.5 -19.5q-13 -17 -31 -24.5t-51 -7.5q-41 0 -56 10t-20 21h-8q-11 -12 -27.5 -21.5t-43.5 -9.5q-30 0 -41 14t-11 44q0 10 1 23.5t4 34.5t8 51
t13 72q7 43 13.5 73t13 50.5t13 33t14.5 21.5q11 12 21.5 16t26.5 4q20 0 31 -10t17 -24l4 1l6 23h65l-56 -320q-2 -8 -2.5 -12.5t-0.5 -8.5q0 -19 22 -19q17 0 24 10q2 4 4 9.5t5.5 22t9.5 48t15 87.5q10 57 16.5 98t10.5 69t5.5 46t1.5 30q0 25 -8 40t-24.5 23t-41.5 10.5
t-60 2.5q-48 0 -75 -6.5t-48 -23.5q-11 -8 -19 -20t-16 -40t-18.5 -78.5t-25.5 -134.5q-14 -83 -23.5 -138.5t-15 -92t-8 -58t-2.5 -35.5q0 -25 7.5 -40.5t24 -24.5t43.5 -12t65 -3q36 0 59.5 1t38.5 3.5t24 8t17 14.5q12 14 17 31t7 39h78zM322 369q-7 8 -12 10.5t-13 2.5
q-12 0 -17 -10q-2 -4 -4.5 -9.5t-5.5 -17.5t-7 -33.5t-11 -58.5q-6 -32 -9.5 -53t-5.5 -34t-2.5 -20.5t-0.5 -11.5q0 -13 3 -19t14 -6q18 0 27 15z" />
    <glyph glyph-name="A" unicode="A" horiz-adv-x="391" 
d="M183 0l20 190h-70l-47 -190h-112l203 757h186l-67 -757h-113zM250 633h-8l-84 -323h61z" />
    <glyph glyph-name="B" unicode="B" horiz-adv-x="403" 
d="M-10 0l133 757h172q58 0 83.5 -23.5t25.5 -83.5q0 -38 -5.5 -77t-15.5 -77q-6 -25 -12.5 -41.5t-13.5 -28t-16 -18.5t-19 -14l-1 -7q7 -6 13.5 -11t10.5 -11.5t6.5 -16.5t2.5 -25q0 -42 -8 -83t-16 -83q-10 -44 -23.5 -74t-32.5 -48.5t-44 -26.5t-58 -8h-182zM170 119
q21 0 34 17t23 69q7 40 9.5 62t2.5 35q0 23 -7.5 28.5t-21.5 5.5h-51l-39 -217h50zM221 434q12 0 20 4.5t15 16t12 31.5t11 52q5 26 7.5 44t2.5 29q0 20 -8 24t-25 4h-44l-36 -205h45z" />
    <glyph glyph-name="C" unicode="C" 
d="M339 290q-5 -43 -14.5 -94.5t-29.5 -103.5q-18 -46 -53.5 -75.5t-103.5 -29.5q-35 0 -59.5 5t-39.5 18t-21.5 35.5t-6.5 57.5q0 18 2 42.5t7 60.5t13 86t20 119q15 84 26 136t20.5 83.5t17.5 48t17 30.5q21 34 51.5 47.5t86.5 13.5q52 0 77 -11t35 -35q6 -12 8.5 -29
t2.5 -38q0 -47 -12 -116l-12 -61h-106q8 35 13.5 70t5.5 66q0 17 -6 24.5t-27 7.5q-17 0 -26 -5.5t-16 -19.5q-4 -10 -8 -22.5t-9.5 -36.5t-13 -64.5t-18.5 -104.5q-11 -60 -18 -100t-11 -67t-5.5 -43t-1.5 -26q0 -23 7 -32t30 -9q29 0 40 28q4 10 7 21.5t7 28t8 39.5t10 55
h106z" />
    <glyph glyph-name="D" unicode="D" horiz-adv-x="412" 
d="M-10 0l133 757h161q62 0 93.5 -24.5t31.5 -91.5q0 -17 -2 -40.5t-7 -57.5t-12.5 -80t-18.5 -107q-14 -79 -24 -129t-19 -82t-18 -51t-19 -35q-20 -34 -51 -46.5t-87 -12.5h-161zM170 130q17 0 26 5t17 19q4 9 7.5 21t9 35t13 62.5t18.5 103.5q9 54 15.5 91.5t10.5 62.5
t5.5 40.5t1.5 26.5q0 17 -7 26t-28 9h-48l-89 -502h48z" />
    <glyph glyph-name="E" unicode="E" horiz-adv-x="355" 
d="M-10 0l133 757h256l-22 -125h-146l-33 -186h143l-21 -119h-143l-34 -196h145l-23 -131h-255z" />
    <glyph glyph-name="F" unicode="F" horiz-adv-x="342" 
d="M-10 0l133 757h253l-22 -125h-143l-35 -199h140l-21 -121h-140l-55 -312h-110z" />
    <glyph glyph-name="G" unicode="G" horiz-adv-x="395" 
d="M178 313l21 119h167q-3 -19 -8.5 -53.5t-13.5 -82.5q-11 -60 -20 -100.5t-17.5 -68t-16.5 -45.5t-17 -33q-21 -35 -52.5 -48.5t-86.5 -13.5q-35 0 -59 5.5t-38.5 19t-20.5 36t-6 57.5q0 17 2 41t7 59.5t13 85.5t20 119q14 78 24.5 128t19.5 82t17.5 51t19.5 36
q11 18 24 30t29 19.5t37 10.5t49 3q35 0 59 -5.5t38.5 -19t20.5 -36.5t6 -57q0 -61 -17 -126h-105q6 21 9 45t3 44t-9 26.5t-27 6.5t-27 -6t-16 -22q-4 -9 -8 -21t-9.5 -37t-13.5 -66.5t-20 -109.5q-10 -58 -16.5 -96.5t-10.5 -64t-5.5 -40.5t-1.5 -24q0 -24 7 -34t30 -10
q20 0 30 6.5t17 23.5q4 9 8.5 23t8 30l7 32t5.5 30l9 51h-66z" />
    <glyph glyph-name="H" unicode="H" horiz-adv-x="422" 
d="M197 0l57 327h-96l-57 -327h-113l133 757h113l-55 -311h96l55 311h112l-133 -757h-112z" />
    <glyph glyph-name="I" unicode="I" horiz-adv-x="220" 
d="M-9 0l133 757h114l-133 -757h-114z" />
    <glyph glyph-name="J" unicode="J" horiz-adv-x="390" 
d="M301 757h113l-65 -367q-15 -86 -26.5 -143.5t-21.5 -96t-19.5 -62t-21.5 -41.5q-10 -16 -22 -27t-28.5 -18.5t-38.5 -11t-52 -3.5q-62 0 -91 23.5t-29 89.5q0 47 8 96t19 94h99q-9 -39 -13.5 -69.5t-4.5 -56.5q0 -23 4.5 -34.5t27.5 -11.5q20 0 29 5.5t15 19.5
q4 10 8.5 24t10.5 40t14 69t20 111z" />
    <glyph glyph-name="K" unicode="K" horiz-adv-x="424" 
d="M208 0l-37 357h-8q0 -6 -0.5 -13t-2.5 -17.5t-5 -26.5t-7 -40l-45 -260h-113l133 757h113l-42 -236q-4 -23 -6.5 -37.5t-4.5 -24t-3.5 -15t-2.5 -10.5h8l152 323h119l-1 -5l-177 -355l51 -393v-4h-121z" />
    <glyph glyph-name="L" unicode="L" horiz-adv-x="329" 
d="M-10 0l133 757h110l-110 -626h134l-23 -131h-244z" />
    <glyph glyph-name="M" unicode="M" horiz-adv-x="559" 
d="M346 0l92 523h-4l-5 -15t-10 -28t-19 -52.5t-32.5 -89.5t-51 -138.5t-73.5 -199.5h-51q-3 117 -4.5 199t-2.5 138t-1.5 89.5t-0.5 53v28t1 15.5h-4l-92 -523h-100l133 757h162q-1 -81 -2 -138.5t-1.5 -97.5t-1 -65.5t-1 -41.5t-1 -25.5t-0.5 -17.5h5q2 8 5 17.5t8.5 25.5
t14.5 41.5t22.5 65.5t34 97.5t48.5 138.5h165l-133 -757h-100z" />
    <glyph glyph-name="N" unicode="N" horiz-adv-x="415" 
d="M245 0l-68 472h-4l-83 -472h-101l133 757h115l35 -331h4l58 331h102l-133 -757h-58z" />
    <glyph glyph-name="O" unicode="O" 
d="M273 49q-21 -35 -52.5 -48.5t-86.5 -13.5q-35 0 -58.5 5.5t-38 19t-21 36t-6.5 57.5q0 17 2 40.5t7.5 60t14 88.5t21.5 125q13 74 22.5 122t18.5 79t17.5 50.5t19.5 37.5q20 35 51.5 48.5t87.5 13.5q34 0 57.5 -5.5t38.5 -19t21.5 -36.5t6.5 -57q0 -17 -2 -40t-6.5 -56.5
t-12 -79.5t-18.5 -109q-15 -85 -26 -138.5t-20.5 -88t-18.5 -54.5t-19 -37zM199 143q4 10 8 22.5t9.5 37t13.5 67t20 111.5q10 60 17 99.5t10.5 65t5 40t1.5 23.5q0 23 -6 31t-27 8q-17 0 -26 -5.5t-16 -19.5q-4 -10 -8 -22t-9.5 -35.5t-13 -63.5t-18.5 -105
q-11 -62 -18 -103t-11 -67.5t-5.5 -41.5t-1.5 -25q0 -23 5.5 -32.5t27.5 -9.5q32 0 42 25z" />
    <glyph glyph-name="P" unicode="P" horiz-adv-x="396" 
d="M-10 0l133 757h172q55 0 79 -26t24 -89q0 -27 -5 -65t-16 -101q-11 -64 -25 -109.5t-34 -74.5t-48 -42.5t-67 -13.5h-62l-41 -236h-110zM203 358q12 0 20.5 6.5t16 21.5t14 40t13.5 62q8 44 11 68t3 38q0 26 -7.5 32.5t-21.5 6.5h-41l-48 -275h40z" />
    <glyph glyph-name="Q" unicode="Q" 
d="M140 -91q-4 10 -7.5 33t-9.5 77q-59 1 -83 25.5t-24 87.5q0 16 2 39t6.5 57t12 81t19.5 113q13 75 23 123t19 79.5t17.5 50t19.5 35.5q20 34 51 47t87 13q34 0 57.5 -5t38.5 -18t22 -35.5t7 -56.5q0 -26 -8 -95.5t-33 -199.5q-16 -85 -27.5 -140t-24 -90.5t-30.5 -57.5
t-46 -40q5 -55 11.5 -80t11.5 -38l-1 -5h-111zM203 163q4 9 7.5 20t8.5 33t12.5 60t18.5 101q11 61 18 102t10.5 66.5t5 40t1.5 23.5q0 22 -6 30.5t-27 8.5q-17 0 -26 -5.5t-15 -18.5q-5 -9 -9 -21t-9 -35t-12.5 -62.5t-19.5 -104.5q-10 -58 -16.5 -96.5t-10 -63.5t-5 -39
t-1.5 -23q0 -23 6 -31t28 -8q17 0 26 4.5t15 18.5z" />
    <glyph glyph-name="R" unicode="R" horiz-adv-x="405" 
d="M191 0q-1 5 -1.5 9.5t-0.5 11.5q0 18 3 53t6.5 73.5t6.5 72t3 48.5q0 25 -5.5 32t-18.5 7h-30l-54 -307h-110l133 757h175q58 0 82 -24t24 -80q0 -10 -0.5 -22t-3 -29t-6.5 -41t-10 -57q-8 -38 -16.5 -63t-18 -41t-20.5 -25t-23 -15l-1 -6q11 -11 15 -30t4 -49
q0 -31 -2.5 -66t-6 -69t-6 -65.5t-2.5 -55.5v-19h-116zM209 418q15 0 25 4t17.5 15.5t13 31.5t11.5 52q6 35 8 52.5t2 28.5q0 19 -7 26t-24 7h-44l-38 -217h36z" />
    <glyph glyph-name="S" unicode="S" horiz-adv-x="372" 
d="M254 522q5 23 10.5 49.5t5.5 48.5q0 19 -8 24.5t-28 5.5q-12 0 -20.5 -3t-14.5 -10.5t-10.5 -21.5t-8.5 -36q-7 -32 -9 -48.5t-2 -26.5q0 -9 2.5 -14.5t7.5 -12.5q9 -10 22.5 -20.5t28.5 -20t29.5 -19t24.5 -17.5q17 -16 26 -30.5t9 -45.5q0 -19 -3 -49t-15 -90
q-11 -57 -25.5 -95t-36 -61t-52 -32.5t-73.5 -9.5q-29 0 -50.5 4.5t-36 16t-21.5 31.5t-7 51q0 41 8 82t21 81h93q-6 -20 -11.5 -50t-5.5 -57q0 -23 8.5 -28.5t25.5 -5.5q13 0 23 3t17 13t13 28.5t12 49.5q6 30 7.5 42t1.5 19q0 12 -2.5 19t-8.5 15q-8 12 -23.5 24t-32.5 24
t-33.5 24t-26.5 24q-12 14 -16.5 26.5t-4.5 37.5q0 20 3.5 49.5t12.5 75.5q10 54 23.5 89.5t33.5 56.5t48.5 29.5t69.5 8.5q66 0 93 -21t27 -72q0 -16 -2.5 -35.5t-6.5 -40t-9 -41t-11 -38.5h-92z" />
    <glyph glyph-name="T" unicode="T" horiz-adv-x="368" 
d="M67 0l111 632h-96l22 125h302l-22 -125h-95l-111 -632h-111z" />
    <glyph glyph-name="U" unicode="U" horiz-adv-x="405" 
d="M320 757h110l-95 -536q-8 -42 -14 -70.5t-13 -48.5t-14 -34t-16 -27q-20 -31 -52 -42.5t-88 -11.5q-74 0 -102.5 23.5t-28.5 85.5q0 20 3.5 49.5t11.5 75.5l95 536h114l-95 -536q-6 -33 -8 -49t-2 -25q0 -17 7 -23t30 -6q17 0 25.5 3t14.5 13q3 5 5.5 11t5 16t5 24
t6.5 36z" />
    <glyph glyph-name="V" unicode="V" horiz-adv-x="399" 
d="M48 0l58 757h116q-13 -127 -22.5 -218t-16 -153t-10.5 -100.5t-6.5 -61.5t-4 -35t-2.5 -22h8q2 10 5 22t8.5 35t15 61.5t25 100.5t38.5 152.5t55 218.5h119l-212 -757h-174z" />
    <glyph glyph-name="W" unicode="W" horiz-adv-x="604" 
d="M292 0q9 111 15.5 190t10.5 133t7 87.5t4.5 53.5t3 30.5t2.5 19.5h-8q-2 -9 -4.5 -19.5t-7.5 -30.5t-14 -53.5t-23.5 -87.5t-36.5 -133t-52 -190h-158l76 757h110q-15 -127 -25.5 -216.5t-18 -150.5t-11.5 -97.5t-6.5 -58t-4 -32t-2.5 -19.5h8q2 9 4.5 19.5t8.5 32
t16.5 58t28 97.5t43 150.5t61.5 216.5h110q-9 -127 -15 -216.5t-10 -150.5t-6.5 -97.5t-4.5 -58t-3 -32t-2 -19.5h9q2 8 4 19t7 32t13.5 58t23 98t35.5 150.5t51 216.5h107l-188 -757h-158z" />
    <glyph glyph-name="X" unicode="X" horiz-adv-x="406" 
d="M195 0v146v87t0.5 46.5t2.5 24.5h-8q-2 -10 -6.5 -24.5t-16 -46.5t-31 -87t-51.5 -146h-116l1 4l156 407l-10 341l1 5h113q0 -77 -0.5 -123t-1 -71.5t-1 -36.5t-1.5 -17h8q1 6 5 17t13 36.5t26 71.5t45 123h109l-1 -5l-132 -340l12 -408v-4h-116z" />
    <glyph glyph-name="Y" unicode="Y" horiz-adv-x="391" 
d="M76 0l55 311l-34 441l1 5h112q1 -63 2 -104t2 -69.5t1 -49.5v-45h7q2 9 6.5 22.5t15 41.5t29.5 76t49 128h112l-1 -5l-186 -455l-52 -297h-119z" />
    <glyph glyph-name="Z" unicode="Z" horiz-adv-x="399" 
d="M-19 0l24 141l255 482v8h-162l22 126h311l-12 -68l-293 -551l3 -7h187l-23 -131h-312z" />
    <glyph glyph-name="bracketleft" unicode="[" 
d="M23 -238l211 1200h207l-16 -93h-123l-179 -1014h123l-16 -93h-207z" />
    <glyph glyph-name="backslash" unicode="\" 
d="M195 -153l-74 1001h82l74 -1001h-82z" />
    <glyph glyph-name="bracketright" unicode="]" 
d="M-38 -238l16 93h124l179 1014h-124l16 93h206l-211 -1200h-206z" />
    <glyph glyph-name="asciicircum" unicode="^" 
d="M276 334l-24 286h-7l-127 -286h-85l1 5l198 418h76l49 -418l-1 -5h-80z" />
    <glyph glyph-name="underscore" unicode="_" 
d="M-63 -158l17 98h344l-17 -98h-344z" />
    <glyph glyph-name="grave" unicode="`" horiz-adv-x="282" 
d="M196 592l-68 167l1 6h98l50 -169l-1 -4h-80z" />
    <glyph glyph-name="a" unicode="a" horiz-adv-x="391" 
d="M0 0zM183 0l20 190h-70l-47 -190h-112l203 757h186l-67 -757h-113zM250 633h-8l-84 -323h61z" />
    <glyph glyph-name="b" unicode="b" horiz-adv-x="403" 
d="M0 0zM-10 0l133 757h172q58 0 83.5 -23.5t25.5 -83.5q0 -38 -5.5 -77t-15.5 -77q-6 -25 -12.5 -41.5t-13.5 -28t-16 -18.5t-19 -14l-1 -7q7 -6 13.5 -11t10.5 -11.5t6.5 -16.5t2.5 -25q0 -42 -8 -83t-16 -83q-10 -44 -23.5 -74t-32.5 -48.5t-44 -26.5t-58 -8h-182z
M170 119q21 0 34 17t23 69q7 40 9.5 62t2.5 35q0 23 -7.5 28.5t-21.5 5.5h-51l-39 -217h50zM221 434q12 0 20 4.5t15 16t12 31.5t11 52q5 26 7.5 44t2.5 29q0 20 -8 24t-25 4h-44l-36 -205h45z" />
    <glyph glyph-name="c" unicode="c" 
d="M11 0zM339 290q-5 -43 -14.5 -94.5t-29.5 -103.5q-18 -46 -53.5 -75.5t-103.5 -29.5q-35 0 -59.5 5t-39.5 18t-21.5 35.5t-6.5 57.5q0 18 2 42.5t7 60.5t13 86t20 119q15 84 26 136t20.5 83.5t17.5 48t17 30.5q21 34 51.5 47.5t86.5 13.5q52 0 77 -11t35 -35
q6 -12 8.5 -29t2.5 -38q0 -47 -12 -116l-12 -61h-106q8 35 13.5 70t5.5 66q0 17 -6 24.5t-27 7.5q-17 0 -26 -5.5t-16 -19.5q-4 -10 -8 -22.5t-9.5 -36.5t-13 -64.5t-18.5 -104.5q-11 -60 -18 -100t-11 -67t-5.5 -43t-1.5 -26q0 -23 7 -32t30 -9q29 0 40 28q4 10 7 21.5
t7 28t8 39.5t10 55h106z" />
    <glyph glyph-name="d" unicode="d" horiz-adv-x="412" 
d="M0 0zM-10 0l133 757h161q62 0 93.5 -24.5t31.5 -91.5q0 -17 -2 -40.5t-7 -57.5t-12.5 -80t-18.5 -107q-14 -79 -24 -129t-19 -82t-18 -51t-19 -35q-20 -34 -51 -46.5t-87 -12.5h-161zM170 130q17 0 26 5t17 19q4 9 7.5 21t9 35t13 62.5t18.5 103.5q9 54 15.5 91.5
t10.5 62.5t5.5 40.5t1.5 26.5q0 17 -7 26t-28 9h-48l-89 -502h48z" />
    <glyph glyph-name="e" unicode="e" horiz-adv-x="355" 
d="M0 0zM-10 0l133 757h256l-22 -125h-146l-33 -186h143l-21 -119h-143l-34 -196h145l-23 -131h-255z" />
    <glyph glyph-name="f" unicode="f" horiz-adv-x="342" 
d="M0 0zM-10 0l133 757h253l-22 -125h-143l-35 -199h140l-21 -121h-140l-55 -312h-110z" />
    <glyph glyph-name="g" unicode="g" horiz-adv-x="395" 
d="M10 0zM178 313l21 119h167q-3 -19 -8.5 -53.5t-13.5 -82.5q-11 -60 -20 -100.5t-17.5 -68t-16.5 -45.5t-17 -33q-21 -35 -52.5 -48.5t-86.5 -13.5q-35 0 -59 5.5t-38.5 19t-20.5 36t-6 57.5q0 17 2 41t7 59.5t13 85.5t20 119q14 78 24.5 128t19.5 82t17.5 51t19.5 36
q11 18 24 30t29 19.5t37 10.5t49 3q35 0 59 -5.5t38.5 -19t20.5 -36.5t6 -57q0 -61 -17 -126h-105q6 21 9 45t3 44t-9 26.5t-27 6.5t-27 -6t-16 -22q-4 -9 -8 -21t-9.5 -37t-13.5 -66.5t-20 -109.5q-10 -58 -16.5 -96.5t-10.5 -64t-5.5 -40.5t-1.5 -24q0 -24 7 -34t30 -10
q20 0 30 6.5t17 23.5q4 9 8.5 23t8 30l7 32t5.5 30l9 51h-66z" />
    <glyph glyph-name="h" unicode="h" horiz-adv-x="422" 
d="M0 0zM197 0l57 327h-96l-57 -327h-113l133 757h113l-55 -311h96l55 311h112l-133 -757h-112z" />
    <glyph glyph-name="i" unicode="i" horiz-adv-x="220" 
d="M0 0zM-9 0l133 757h114l-133 -757h-114z" />
    <glyph glyph-name="j" unicode="j" horiz-adv-x="390" 
d="M0 0zM301 757h113l-65 -367q-15 -86 -26.5 -143.5t-21.5 -96t-19.5 -62t-21.5 -41.5q-10 -16 -22 -27t-28.5 -18.5t-38.5 -11t-52 -3.5q-62 0 -91 23.5t-29 89.5q0 47 8 96t19 94h99q-9 -39 -13.5 -69.5t-4.5 -56.5q0 -23 4.5 -34.5t27.5 -11.5q20 0 29 5.5t15 19.5
q4 10 8.5 24t10.5 40t14 69t20 111z" />
    <glyph glyph-name="k" unicode="k" horiz-adv-x="424" 
d="M0 0zM208 0l-37 357h-8q0 -6 -0.5 -13t-2.5 -17.5t-5 -26.5t-7 -40l-45 -260h-113l133 757h113l-42 -236q-4 -23 -6.5 -37.5t-4.5 -24t-3.5 -15t-2.5 -10.5h8l152 323h119l-1 -5l-177 -355l51 -393v-4h-121z" />
    <glyph glyph-name="l" unicode="l" horiz-adv-x="329" 
d="M0 0zM-10 0l133 757h110l-110 -626h134l-23 -131h-244z" />
    <glyph glyph-name="m" unicode="m" horiz-adv-x="559" 
d="M0 0zM346 0l92 523h-4l-5 -15t-10 -28t-19 -52.5t-32.5 -89.5t-51 -138.5t-73.5 -199.5h-51q-3 117 -4.5 199t-2.5 138t-1.5 89.5t-0.5 53v28t1 15.5h-4l-92 -523h-100l133 757h162q-1 -81 -2 -138.5t-1.5 -97.5t-1 -65.5t-1 -41.5t-1 -25.5t-0.5 -17.5h5q2 8 5 17.5
t8.5 25.5t14.5 41.5t22.5 65.5t34 97.5t48.5 138.5h165l-133 -757h-100z" />
    <glyph glyph-name="n" unicode="n" horiz-adv-x="415" 
d="M0 0zM245 0l-68 472h-4l-83 -472h-101l133 757h115l35 -331h4l58 331h102l-133 -757h-58z" />
    <glyph glyph-name="o" unicode="o" 
d="M10 0zM273 49q-21 -35 -52.5 -48.5t-86.5 -13.5q-35 0 -58.5 5.5t-38 19t-21 36t-6.5 57.5q0 17 2 40.5t7.5 60t14 88.5t21.5 125q13 74 22.5 122t18.5 79t17.5 50.5t19.5 37.5q20 35 51.5 48.5t87.5 13.5q34 0 57.5 -5.5t38.5 -19t21.5 -36.5t6.5 -57q0 -17 -2 -40
t-6.5 -56.5t-12 -79.5t-18.5 -109q-15 -85 -26 -138.5t-20.5 -88t-18.5 -54.5t-19 -37zM199 143q4 10 8 22.5t9.5 37t13.5 67t20 111.5q10 60 17 99.5t10.5 65t5 40t1.5 23.5q0 23 -6 31t-27 8q-17 0 -26 -5.5t-16 -19.5q-4 -10 -8 -22t-9.5 -35.5t-13 -63.5t-18.5 -105
q-11 -62 -18 -103t-11 -67.5t-5.5 -41.5t-1.5 -25q0 -23 5.5 -32.5t27.5 -9.5q32 0 42 25z" />
    <glyph glyph-name="p" unicode="p" horiz-adv-x="396" 
d="M0 0zM-10 0l133 757h172q55 0 79 -26t24 -89q0 -27 -5 -65t-16 -101q-11 -64 -25 -109.5t-34 -74.5t-48 -42.5t-67 -13.5h-62l-41 -236h-110zM203 358q12 0 20.5 6.5t16 21.5t14 40t13.5 62q8 44 11 68t3 38q0 26 -7.5 32.5t-21.5 6.5h-41l-48 -275h40z" />
    <glyph glyph-name="q" unicode="q" 
d="M16 0zM140 -91q-4 10 -7.5 33t-9.5 77q-59 1 -83 25.5t-24 87.5q0 16 2 39t6.5 57t12 81t19.5 113q13 75 23 123t19 79.5t17.5 50t19.5 35.5q20 34 51 47t87 13q34 0 57.5 -5t38.5 -18t22 -35.5t7 -56.5q0 -26 -8 -95.5t-33 -199.5q-16 -85 -27.5 -140t-24 -90.5
t-30.5 -57.5t-46 -40q5 -55 11.5 -80t11.5 -38l-1 -5h-111zM203 163q4 9 7.5 20t8.5 33t12.5 60t18.5 101q11 61 18 102t10.5 66.5t5 40t1.5 23.5q0 22 -6 30.5t-27 8.5q-17 0 -26 -5.5t-15 -18.5q-5 -9 -9 -21t-9 -35t-12.5 -62.5t-19.5 -104.5q-10 -58 -16.5 -96.5
t-10 -63.5t-5 -39t-1.5 -23q0 -23 6 -31t28 -8q17 0 26 4.5t15 18.5z" />
    <glyph glyph-name="r" unicode="r" horiz-adv-x="405" 
d="M0 0zM191 0q-1 5 -1.5 9.5t-0.5 11.5q0 18 3 53t6.5 73.5t6.5 72t3 48.5q0 25 -5.5 32t-18.5 7h-30l-54 -307h-110l133 757h175q58 0 82 -24t24 -80q0 -10 -0.5 -22t-3 -29t-6.5 -41t-10 -57q-8 -38 -16.5 -63t-18 -41t-20.5 -25t-23 -15l-1 -6q11 -11 15 -30t4 -49
q0 -31 -2.5 -66t-6 -69t-6 -65.5t-2.5 -55.5v-19h-116zM209 418q15 0 25 4t17.5 15.5t13 31.5t11.5 52q6 35 8 52.5t2 28.5q0 19 -7 26t-24 7h-44l-38 -217h36z" />
    <glyph glyph-name="s" unicode="s" horiz-adv-x="372" 
d="M0 0zM254 522q5 23 10.5 49.5t5.5 48.5q0 19 -8 24.5t-28 5.5q-12 0 -20.5 -3t-14.5 -10.5t-10.5 -21.5t-8.5 -36q-7 -32 -9 -48.5t-2 -26.5q0 -9 2.5 -14.5t7.5 -12.5q9 -10 22.5 -20.5t28.5 -20t29.5 -19t24.5 -17.5q17 -16 26 -30.5t9 -45.5q0 -19 -3 -49t-15 -90
q-11 -57 -25.5 -95t-36 -61t-52 -32.5t-73.5 -9.5q-29 0 -50.5 4.5t-36 16t-21.5 31.5t-7 51q0 41 8 82t21 81h93q-6 -20 -11.5 -50t-5.5 -57q0 -23 8.5 -28.5t25.5 -5.5q13 0 23 3t17 13t13 28.5t12 49.5q6 30 7.5 42t1.5 19q0 12 -2.5 19t-8.5 15q-8 12 -23.5 24t-32.5 24
t-33.5 24t-26.5 24q-12 14 -16.5 26.5t-4.5 37.5q0 20 3.5 49.5t12.5 75.5q10 54 23.5 89.5t33.5 56.5t48.5 29.5t69.5 8.5q66 0 93 -21t27 -72q0 -16 -2.5 -35.5t-6.5 -40t-9 -41t-11 -38.5h-92z" />
    <glyph glyph-name="t" unicode="t" horiz-adv-x="368" 
d="M67 0zM67 0l111 632h-96l22 125h302l-22 -125h-95l-111 -632h-111z" />
    <glyph glyph-name="u" unicode="u" horiz-adv-x="405" 
d="M7 0zM320 757h110l-95 -536q-8 -42 -14 -70.5t-13 -48.5t-14 -34t-16 -27q-20 -31 -52 -42.5t-88 -11.5q-74 0 -102.5 23.5t-28.5 85.5q0 20 3.5 49.5t11.5 75.5l95 536h114l-95 -536q-6 -33 -8 -49t-2 -25q0 -17 7 -23t30 -6q17 0 25.5 3t14.5 13q3 5 5.5 11t5 16t5 24
t6.5 36z" />
    <glyph glyph-name="v" unicode="v" horiz-adv-x="399" 
d="M48 0zM48 0l58 757h116q-13 -127 -22.5 -218t-16 -153t-10.5 -100.5t-6.5 -61.5t-4 -35t-2.5 -22h8q2 10 5 22t8.5 35t15 61.5t25 100.5t38.5 152.5t55 218.5h119l-212 -757h-174z" />
    <glyph glyph-name="w" unicode="w" horiz-adv-x="604" 
d="M31 0zM292 0q9 111 15.5 190t10.5 133t7 87.5t4.5 53.5t3 30.5t2.5 19.5h-8q-2 -9 -4.5 -19.5t-7.5 -30.5t-14 -53.5t-23.5 -87.5t-36.5 -133t-52 -190h-158l76 757h110q-15 -127 -25.5 -216.5t-18 -150.5t-11.5 -97.5t-6.5 -58t-4 -32t-2.5 -19.5h8q2 9 4.5 19.5t8.5 32
t16.5 58t28 97.5t43 150.5t61.5 216.5h110q-9 -127 -15 -216.5t-10 -150.5t-6.5 -97.5t-4.5 -58t-3 -32t-2 -19.5h9q2 8 4 19t7 32t13.5 58t23 98t35.5 150.5t51 216.5h107l-188 -757h-158z" />
    <glyph glyph-name="x" unicode="x" horiz-adv-x="406" 
d="M0 0zM195 0v146v87t0.5 46.5t2.5 24.5h-8q-2 -10 -6.5 -24.5t-16 -46.5t-31 -87t-51.5 -146h-116l1 4l156 407l-10 341l1 5h113q0 -77 -0.5 -123t-1 -71.5t-1 -36.5t-1.5 -17h8q1 6 5 17t13 36.5t26 71.5t45 123h109l-1 -5l-132 -340l12 -408v-4h-116z" />
    <glyph glyph-name="y" unicode="y" horiz-adv-x="391" 
d="M76 0zM76 0l55 311l-34 441l1 5h112q1 -63 2 -104t2 -69.5t1 -49.5v-45h7q2 9 6.5 22.5t15 41.5t29.5 76t49 128h112l-1 -5l-186 -455l-52 -297h-119z" />
    <glyph glyph-name="z" unicode="z" horiz-adv-x="399" 
d="M0 0zM-19 0l24 141l255 482v8h-162l22 126h311l-12 -68l-293 -551l3 -7h187l-23 -131h-312z" />
    <glyph glyph-name="braceleft" unicode="{" 
d="M167 -238q-52 0 -73 21.5t-21 76.5q0 29 6.5 67t16.5 79t22 83t22 80t16.5 68.5t6.5 48.5q0 20 -7 24.5t-30 4.5h-39l16 93h29q18 0 29 3.5t18.5 12.5t12 25.5t9.5 42.5q6 36 9 75t6.5 83t10 94t20.5 107q6 25 15.5 45.5t24.5 35t37 22.5t54 8h78l-16 -93h-64
q-29 0 -39 -10.5t-15 -35.5q-15 -87 -21 -178t-22 -183q-7 -36 -22.5 -60.5t-36.5 -35.5l-2 -9q29 -18 29 -66q0 -15 -6.5 -47.5t-17 -73t-22 -85.5t-22 -85t-17 -72t-6.5 -46q0 -18 7.5 -22.5t26.5 -4.5h71l-16 -93h-78z" />
    <glyph glyph-name="bar" unicode="|" 
d="M53 -238l211 1200h84l-211 -1200h-84z" />
    <glyph glyph-name="braceright" unicode="}" 
d="M232 962q52 0 73 -21.5t21 -76.5q0 -29 -6.5 -67t-16.5 -79t-22 -83t-22 -80t-16.5 -68.5t-6.5 -48.5q0 -20 7 -24.5t30 -4.5h39l-16 -93h-29q-18 0 -29 -3.5t-18.5 -12.5t-12.5 -25.5t-9 -42.5q-6 -36 -9 -75t-6.5 -83t-10 -94t-20.5 -107q-6 -25 -15.5 -45.5t-24.5 -35
t-37.5 -22.5t-53.5 -8h-78l16 93h64q29 0 39 10.5t15 35.5q15 87 21 178t22 183q7 36 22.5 60.5t36.5 35.5l2 9q-29 18 -29 66q0 15 6.5 47.5t17 73t22 85.5t22 85t17 71.5t6.5 46.5q0 18 -7.5 22.5t-26.5 4.5h-71l16 93h78z" />
    <glyph glyph-name="asciitilde" unicode="~" 
d="M362 365q-23 -29 -46.5 -41.5t-52.5 -12.5q-22 0 -39 5.5t-36 17.5q-20 14 -31.5 19t-34.5 5q-24 0 -44.5 -13t-42.5 -42h-7l17 94q16 23 38.5 38.5t50.5 15.5q26 0 47 -6t41 -20q17 -13 31 -17.5t31 -4.5q23 0 44.5 12.5t44.5 41.5h5z" />
    <glyph glyph-name="nonbreakingspace" unicode="&#xa0;" horiz-adv-x="175" 
 />
    <glyph glyph-name="exclamdown" unicode="&#xa1;" horiz-adv-x="227" 
d="M-49 -229l113 561h91l-83 -561h-121zM67 408l27 151h111l-27 -151h-111z" />
    <glyph glyph-name="cent" unicode="&#xa2;" 
d="M104 -43l22 124q-54 2 -79 24t-25 79q0 14 1.5 33t5 46.5t9.5 65.5t15 91q10 56 18.5 93.5t16.5 63t16.5 41.5t18.5 29q17 23 42.5 33.5t68.5 12.5l19 108h56l-19 -108q55 -3 79 -27t24 -78q0 -28 -4 -57t-12 -58h-109q5 21 9 47t4 39q0 17 -7.5 24t-29.5 7
q-17 0 -26.5 -4.5t-14.5 -13.5q-4 -7 -7.5 -17t-8 -28t-10 -47t-12.5 -73q-8 -44 -13 -74t-8 -50.5t-4.5 -33.5t-1.5 -21q0 -17 6.5 -25.5t29.5 -8.5q16 0 26 3.5t17 16t12 36t11 63.5h109q-1 -13 -4 -32t-7.5 -40t-11 -42.5t-15.5 -39.5q-16 -32 -46 -53.5t-83 -24.5
l-22 -124h-56z" />
    <glyph glyph-name="sterling" unicode="&#xa3;" 
d="M301 19q-15 -14 -33.5 -23t-45.5 -9q-34 0 -50.5 19.5t-14.5 54.5h-8q-16 -30 -44.5 -52t-70.5 -22q-11 0 -24.5 5.5t-21.5 22.5l20 114q10 -3 20.5 -5t23.5 -2q14 0 23.5 12t15.5 30t9 38.5t3 38.5q0 10 -1 20t-6 21h-72l11 63h38l4 4q-13 38 -13 84q0 27 4.5 66
t13.5 79t21 76t27 59q12 18 25 29t29.5 17t38 8.5t50.5 2.5q34 0 58 -4.5t39 -16t22 -31.5t7 -51q0 -38 -8.5 -91.5t-19.5 -104.5h-104q7 37 11 62.5t6 42t3 26t1 15.5q0 19 -8 25t-28 6q-16 0 -26 -3.5t-17 -14.5q-5 -8 -10.5 -30t-10.5 -48t-8.5 -51t-3.5 -39t2 -25.5
t6 -25t10.5 -29.5t15.5 -37h120l-11 -63h-100l-3 -4q0 -34 -6 -69.5t-22 -70.5q5 -8 15 -12t32 -4q26 0 44 7.5t38 23.5h7z" />
    <glyph glyph-name="currency" unicode="&#xa4;" horiz-adv-x="595" 
d="M442 186q-29 -19 -61.5 -29.5t-70.5 -10.5t-72 10.5t-61 30.5l-78 -82l-64 62l81 79q-40 58 -40 133q0 71 40 134l-80 76l63 63l77 -81q55 44 134 44q72 0 133 -44l74 81l63 -63l-78 -76q19 -29 30 -62.5t11 -71.5t-11 -72t-30 -61l78 -79q-3 -3 -11.5 -12t-19 -19
t-19.5 -19l-12 -12zM310 239q28 0 53.5 11t44.5 30t30 44.5t11 54.5q0 28 -11 54t-30 45t-44.5 30.5t-53.5 11.5q-29 0 -54.5 -11.5t-44.5 -30.5t-30 -45t-11 -54q0 -29 11 -54.5t30 -44.5t44.5 -30t54.5 -11z" />
    <glyph glyph-name="yen" unicode="&#xa5;" 
d="M81 0l22 128h-97l11 63h97l14 76h-97l11 62h94l-35 423l1 5h111l6 -255h9l96 255h113l-1 -5l-180 -423h88l-11 -62h-91l-14 -76h91l-11 -63h-91l-22 -128h-114z" />
    <glyph glyph-name="brokenbar" unicode="&#xa6;" 
d="M55 -238l84 478h84l-84 -478h-84zM187 511l79 451h84l-79 -451h-84z" />
    <glyph glyph-name="section" unicode="&#xa7;" horiz-adv-x="426" 
d="M91 98q-8 -20 -12 -47.5t-4 -44.5q0 -19 8 -23.5t27 -4.5q12 0 20 2t14 8.5t10.5 19.5t9.5 36q2 16 6 31.5t4 32.5q0 10 -4.5 20.5t-15.5 19.5q-10 9 -24 17.5t-28 17.5t-27 18.5t-22 19.5q-17 20 -17 58q0 19 3.5 45t9.5 61t14.5 60.5t19.5 43t26.5 28.5t35.5 17
q0 33 7 69t16 70q14 54 48 75.5t99 21.5q60 0 86.5 -16.5t26.5 -65.5q0 -29 -7 -64t-17 -68h-86q5 20 9.5 43.5t4.5 37.5q0 19 -8.5 24t-26.5 5q-23 0 -34 -13.5t-18 -56.5q-6 -32 -6 -43q0 -12 6 -21q7 -11 19.5 -20t26.5 -18t28.5 -18t26.5 -19q21 -19 28.5 -31t7.5 -35
q0 -29 -6 -71t-16 -78q-7 -29 -15.5 -50t-19 -36.5t-24 -26.5t-30.5 -20q-2 -32 -9 -63t-17 -63t-23 -53.5t-32 -35t-44 -19.5t-58 -6q-55 0 -82 18.5t-27 71.5q0 35 7.5 69.5t18.5 69.5h86zM254 218q13 30 19 59.5t6 52.5q0 17 -5.5 27t-16.5 19q-20 17 -45.5 31.5
t-43.5 30.5q-10 -4 -16.5 -19t-10.5 -33t-5.5 -35t-1.5 -24q0 -12 2.5 -19.5t6.5 -12.5t9.5 -8.5t11.5 -7.5q12 -9 22.5 -15.5t21.5 -12.5t22 -13.5t24 -19.5z" />
    <glyph glyph-name="dieresis" unicode="&#xa8;" horiz-adv-x="358" 
d="M257 615l21 118h95l-21 -118h-95zM98 615l21 118h95l-21 -118h-95z" />
    <glyph glyph-name="ordfeminine" unicode="&#xaa;" horiz-adv-x="260" 
d="M234 399q-2 -5 -10.5 -10.5t-23.5 -5.5q-14 0 -21.5 4t-11.5 10q-8 -5 -22 -9.5t-32 -4.5q-27 0 -40 7.5t-13 38.5q0 19 3 43t8 43q6 24 12 39t16 23.5t25.5 11.5t40.5 3q6 0 10.5 -0.5t9.5 -1.5q5 23 6 32.5t1 12.5q0 11 -14 11t-16.5 -8t-5.5 -29h-61q0 15 4 31t10 31
q10 23 28 31t53 8q38 0 52.5 -13.5t14.5 -39.5q0 -10 -2 -21.5t-4 -25.5l-26 -146q-1 -5 -1.5 -8.5t-0.5 -5.5q0 -7 6 -7t11 3h2zM175 536q-8 2 -16 2q-16 0 -20 -5.5t-9 -31.5q-5 -25 -5 -36q0 -8 2 -11t11 -3q16 0 23 5z" />
    <glyph glyph-name="guillemotleft" unicode="&#xab;" 
d="M38 195zM167 195l-129 145l15 80l179 147h4l-19 -108l-101 -79l-1 -9l73 -77l-17 -99h-4zM324 195l-129 145l15 80l179 147h4l-19 -108l-101 -79l-1 -9l73 -77l-17 -99h-4z" />
    <glyph glyph-name="logicalnot" unicode="&#xac;" 
d="M216 0l60 345h-241l17 93h323l-77 -438h-82z" />
    <glyph glyph-name="macron" unicode="&#xaf;" horiz-adv-x="410" 
d="M106 637l15 84h297l-15 -84h-297z" />
    <glyph glyph-name="degree" unicode="&#xb0;" horiz-adv-x="307" 
d="M264 472q-13 -16 -34.5 -21.5t-61.5 -5.5q-23 0 -40.5 2t-29 8.5t-17 19t-5.5 33.5q0 16 3 41.5t11 67.5q7 39 12.5 63.5t10.5 39.5t10 24t12 17q13 14 34 20.5t59 6.5q22 0 39.5 -1.5t29.5 -8t18.5 -19t6.5 -33.5q0 -15 -3 -40.5t-11 -68.5q-7 -39 -12 -64t-10 -40.5
t-10.5 -24.5t-11.5 -16zM258 687q0 17 -9 21t-34 4q-18 0 -26.5 -2t-13.5 -7q-3 -3 -6 -8t-5.5 -14t-6 -24t-7.5 -39q-5 -29 -7 -44.5t-2 -24.5q0 -17 7.5 -20.5t33.5 -3.5q20 0 28.5 1.5t12.5 5.5t7 8.5t5.5 13.5t5.5 24t7 40q5 29 7.5 45t2.5 24z" />
    <glyph glyph-name="plusminus" unicode="&#xb1;" 
d="M0 0zM130 199l23 134h-120l16 92h120l24 134h84l-24 -134h119l-16 -92h-119l-23 -134h-84zM-32 -47l16 92h323l-16 -92h-323z" />
    <glyph glyph-name="twosuperior" unicode="&#xb2;" horiz-adv-x="265" 
d="M47 348zM47 348l14 82l64 72q16 18 27.5 30.5t19.5 23t12.5 19.5t6.5 20q2 8 4.5 21.5l5 27t4 25t1.5 14.5q0 10 -3.5 12t-11.5 2q-11 0 -16 -5t-10 -28q-4 -14 -6.5 -29.5t-3.5 -32.5h-67q2 22 6.5 44t10.5 45q6 25 14 41t19.5 25.5t27.5 13.5t39 4q38 0 56 -13.5
t18 -55.5q0 -9 -1 -22.5t-3 -28.5t-5 -30.5t-7 -28.5q-5 -18 -10 -31.5t-12.5 -26.5t-19 -26.5t-28.5 -31.5l-47 -53h85l-14 -79h-170z" />
    <glyph glyph-name="threesuperior" unicode="&#xb3;" horiz-adv-x="265" 
d="M54 341zM121 528l12 68h40q7 0 11 1t7 6.5t5.5 15.5t5.5 28q2 14 3.5 23.5t1.5 14.5q0 9 -4 11t-12 2q-15 0 -19 -5.5t-8 -25.5q-5 -24 -6 -42h-66q4 43 20 92q11 32 31 45t62 13q39 0 56.5 -9t17.5 -44q0 -13 -4 -39t-8 -48q-7 -33 -14.5 -47.5t-20.5 -23.5
q8 -5 12.5 -12.5t4.5 -27.5q0 -23 -4 -46.5t-9 -46.5q-6 -29 -14 -46.5t-20 -27.5t-30 -13t-43 -3q-42 0 -58.5 14t-16.5 49q0 17 4 44t12 53h65q-3 -13 -7 -30.5t-4 -31.5q0 -11 4.5 -13.5t14.5 -2.5q14 0 19 6t11 33q3 14 5 28.5t2 22.5q0 11 -4.5 13t-14.5 2h-40z" />
    <glyph glyph-name="acute" unicode="&#xb4;" horiz-adv-x="282" 
d="M89 592l1 4l102 169h104l-1 -6l-120 -167h-86z" />
    <glyph glyph-name="paragraph" unicode="&#xb6;" horiz-adv-x="489" 
d="M267 -102l134 760h-71l-134 -760h-89l83 471h-43q-45 0 -65 20t-20 72q0 47 8 95.5t24 93.5q20 59 49 83t70 24h294l-151 -859h-89z" />
    <glyph glyph-name="periodcentered" unicode="&#xb7;" horiz-adv-x="214" 
d="M45 312zM45 312l24 138h110l-24 -138h-110z" />
    <glyph glyph-name="cedilla" unicode="&#xb8;" horiz-adv-x="252" 
d="M-51 -238v5l82 192h98l-1 -6l-98 -191h-81z" />
    <glyph glyph-name="onesuperior" unicode="&#xb9;" horiz-adv-x="265" 
d="M49 348zM49 348l14 82h48l36 202h-49l12 70h33q9 0 15 3t9.5 10t6.5 19.5t7 32.5h62l-60 -337h45l-14 -82h-165z" />
    <glyph glyph-name="ordmasculine" unicode="&#xba;" horiz-adv-x="253" 
d="M204 412q-12 -17 -28 -23t-45 -6q-35 0 -51 12.5t-16 44.5q0 7 1 17t3 24.5t5 34.5t8 48q5 30 9.5 49.5t8.5 32.5t8.5 21t9.5 16q10 15 27 21t45 6q36 0 51.5 -11t15.5 -46q0 -14 -3 -40.5t-13 -81.5q-5 -31 -9.5 -51t-9 -32.5t-8.5 -20.5t-9 -15zM144 454q6 0 10 2.5
t7.5 11.5t6.5 26.5t8 46.5q8 38 10.5 57.5t2.5 29.5q0 11 -3 14t-9 3q-5 0 -9 -2.5t-7.5 -12t-7.5 -28t-10 -50.5q-6 -33 -9 -52t-3 -29q0 -11 3.5 -14t9.5 -3z" />
    <glyph glyph-name="guillemotright" unicode="&#xbb;" 
d="M13 195zM82 567l129 -145l-15 -80l-179 -147h-4l19 108l101 79l1 9l-73 77l17 99h4zM239 567l129 -145l-15 -80l-179 -147h-4l19 108l101 79l1 9l-73 77l17 99h4z" />
    <glyph glyph-name="onequarter" unicode="&#xbc;" horiz-adv-x="541" 
d="M12 0zM40 348l14 82h48l36 202h-49l12 70h33q9 0 15 3t9.5 10t6.5 19.5t7 32.5h62l-60 -337h45l-14 -82h-165zM12 0l1 4l467 753h70l-1 -5l-468 -752h-69zM345 -10l13 75h-96l13 75l144 269h67l-49 -273h24l-12 -71h-24l-13 -75h-67zM389 229h-3l-48 -93h34z" />
    <glyph glyph-name="onehalf" unicode="&#xbd;" horiz-adv-x="541" 
d="M7 0zM35 348l14 82h48l36 202h-49l12 70h33q9 0 15 3t9.5 10t6.5 19.5t7 32.5h62l-60 -337h45l-14 -82h-165zM7 0l1 4l467 753h70l-1 -5l-468 -752h-69zM270 -10l14 82l64 72q16 18 27.5 30.5t19.5 23t12.5 19.5t6.5 20q2 8 4.5 21.5l5 27t4 25t1.5 14.5q0 10 -3.5 12
t-11.5 2q-11 0 -16 -5t-10 -28q-4 -14 -6.5 -29.5t-3.5 -32.5h-67q2 22 6.5 44t10.5 45q6 25 14 41t19.5 25.5t27.5 13.5t39 4q38 0 56 -13.5t18 -55.5q0 -9 -1 -22.5t-3 -28.5t-5 -30.5t-7 -28.5q-5 -18 -10 -31.5t-12.5 -26.5t-19 -26.5t-28.5 -31.5l-47 -53h85l-14 -79
h-170z" />
    <glyph glyph-name="threequarters" unicode="&#xbe;" horiz-adv-x="541" 
d="M14 0zM116 528l12 68h40q7 0 11 1t7 6.5t5.5 15.5t5.5 28q2 14 3.5 23.5t1.5 14.5q0 9 -4 11t-12 2q-15 0 -19 -5.5t-8 -25.5q-5 -24 -6 -42h-66q4 43 20 92q11 32 31 45t62 13q39 0 56.5 -9t17.5 -44q0 -13 -4 -39t-8 -48q-7 -33 -14.5 -47.5t-20.5 -23.5
q8 -5 12.5 -12.5t4.5 -27.5q0 -23 -4 -46.5t-9 -46.5q-6 -29 -14 -46.5t-20 -27.5t-30 -13t-43 -3q-42 0 -58.5 14t-16.5 49q0 17 4 44t12 53h65q-3 -13 -7 -30.5t-4 -31.5q0 -11 4.5 -13.5t14.5 -2.5q14 0 19 6t11 33q3 14 5 28.5t2 22.5q0 11 -4.5 13t-14.5 2h-40zM14 0
l1 4l467 753h70l-1 -5l-468 -752h-69zM348 -10l13 75h-96l13 75l144 269h67l-49 -273h24l-12 -71h-24l-13 -75h-67zM392 229h-3l-48 -93h34z" />
    <glyph glyph-name="questiondown" unicode="&#xbf;" horiz-adv-x="370" 
d="M232 333q-2 -21 -6 -47t-9 -52q-6 -36 -21 -61t-45 -49q-25 -20 -34 -29t-14 -18q-5 -8 -8 -15.5t-5.5 -17t-5 -22.5t-5.5 -34q-4 -20 -5.5 -32t-1.5 -20q0 -14 5.5 -20t28.5 -6q19 0 28 3t17 23q8 17 12.5 45t7.5 57h93q-2 -50 -10 -93.5t-20 -75.5q-17 -45 -51.5 -62
t-97.5 -17q-59 0 -89.5 17t-30.5 70q0 20 3 48t11 75q6 33 11 55t11 38t13 27.5t17 22.5q20 23 43.5 41t35.5 37q19 31 27 112h95zM281 560l-26 -151h-111l26 151h111z" />
    <glyph glyph-name="Agrave" unicode="&#xc0;" horiz-adv-x="391" 
d="M0 0zM183 0l20 190h-70l-47 -190h-112l203 757h186l-67 -757h-113zM250 633h-8l-84 -323h61zM245 789l-68 167l1 6h98l50 -169l-1 -4h-80z" />
    <glyph glyph-name="Aacute" unicode="&#xc1;" horiz-adv-x="391" 
d="M0 0zM183 0l20 190h-70l-47 -190h-112l203 757h186l-67 -757h-113zM250 633h-8l-84 -323h61zM217 789l1 4l102 169h104l-1 -6l-120 -167h-86z" />
    <glyph glyph-name="Acircumflex" unicode="&#xc2;" horiz-adv-x="391" 
d="M0 0zM183 0l20 190h-70l-47 -190h-112l203 757h186l-67 -757h-113zM250 633h-8l-84 -323h61zM319 789l-28 80h-8l-56 -80h-90l1 4l126 169h74l69 -169l-1 -4h-87z" />
    <glyph glyph-name="Atilde" unicode="&#xc3;" horiz-adv-x="391" 
d="M0 0zM183 0l20 190h-70l-47 -190h-112l203 757h186l-67 -757h-113zM250 633h-8l-84 -323h61zM437 858q-21 -28 -44 -40t-51 -12q-20 0 -37 6t-32 17q-17 12 -31 17.5t-33 5.5q-23 0 -43 -12.5t-41 -38.5h-4l16 89q14 20 36 34.5t49 14.5q43 0 76 -21q22 -14 35 -19t29 -5
q22 0 43.5 11.5t41.5 38.5h5z" />
    <glyph glyph-name="Adieresis" unicode="&#xc4;" horiz-adv-x="391" 
d="M0 0zM183 0l20 190h-70l-47 -190h-112l203 757h186l-67 -757h-113zM250 633h-8l-84 -323h61zM307 812l21 118h95l-21 -118h-95zM148 812l21 118h95l-21 -118h-95z" />
    <glyph glyph-name="Aring" unicode="&#xc5;" horiz-adv-x="391" 
d="M0 0zM183 0l20 190h-70l-47 -190h-112l203 757h186l-67 -757h-113zM250 633h-8l-84 -323h61zM336 790q-8 -9 -23.5 -12t-44.5 -3q-34 0 -52 6t-18 32q0 8 2 23t7 44q6 34 11 46.5t15 20.5q9 8 24 11.5t44 3.5q36 0 53.5 -7.5t17.5 -34.5q0 -8 -1.5 -21.5t-5.5 -39.5
q-3 -18 -6.5 -29.5t-7 -19t-7.5 -12t-8 -8.5zM302 829q5 3 6.5 8.5t5.5 26.5q6 31 6 37q0 14 -27 14q-12 0 -17.5 -1t-8.5 -4q-4 -3 -5.5 -8.5t-6.5 -26.5q-6 -30 -6 -38q0 -7 5.5 -9.5t22.5 -2.5q12 0 17 1t8 3z" />
    <glyph glyph-name="AE" unicode="&#xc6;" horiz-adv-x="534" 
d="M167 0l33 190h-70l-47 -190h-110l203 757h381l-22 -125h-146l-33 -186h144l-21 -119h-144l-34 -196h145l-23 -131h-256zM278 633h-39l-84 -323h66z" />
    <glyph glyph-name="Ccedilla" unicode="&#xc7;" 
d="M0 0zM339 290q-5 -43 -14.5 -94.5t-29.5 -103.5q-18 -46 -53.5 -75.5t-103.5 -29.5q-35 0 -59.5 5t-39.5 18t-21.5 35.5t-6.5 57.5q0 18 2 42.5t7 60.5t13 86t20 119q15 84 26 136t20.5 83.5t17.5 48t17 30.5q21 34 51.5 47.5t86.5 13.5q52 0 77 -11t35 -35
q6 -12 8.5 -29t2.5 -38q0 -47 -12 -116l-12 -61h-106q8 35 13.5 70t5.5 66q0 17 -6 24.5t-27 7.5q-17 0 -26 -5.5t-16 -19.5q-4 -10 -8 -22.5t-9.5 -36.5t-13 -64.5t-18.5 -104.5q-11 -60 -18 -100t-11 -67t-5.5 -43t-1.5 -26q0 -23 7 -32t30 -9q29 0 40 28q4 10 7 21.5
t7 28t8 39.5t10 55h106zM-8 -238v5l82 192h98l-1 -6l-98 -191h-81z" />
    <glyph glyph-name="Egrave" unicode="&#xc8;" horiz-adv-x="355" 
d="M0 0zM-10 0l133 757h256l-22 -125h-146l-33 -186h143l-21 -119h-143l-34 -196h145l-23 -131h-255zM232 789l-68 167l1 6h98l50 -169l-1 -4h-80z" />
    <glyph glyph-name="Eacute" unicode="&#xc9;" horiz-adv-x="355" 
d="M0 0zM-10 0l133 757h256l-22 -125h-146l-33 -186h143l-21 -119h-143l-34 -196h145l-23 -131h-255zM201 789l1 4l102 169h104l-1 -6l-120 -167h-86z" />
    <glyph glyph-name="Ecircumflex" unicode="&#xca;" horiz-adv-x="355" 
d="M0 0zM-10 0l133 757h256l-22 -125h-146l-33 -186h143l-21 -119h-143l-34 -196h145l-23 -131h-255zM306 789l-28 80h-8l-56 -80h-90l1 4l126 169h74l69 -169l-1 -4h-87z" />
    <glyph glyph-name="Edieresis" unicode="&#xcb;" horiz-adv-x="355" 
d="M0 0zM-10 0l133 757h256l-22 -125h-146l-33 -186h143l-21 -119h-143l-34 -196h145l-23 -131h-255zM293 812l21 118h95l-21 -118h-95zM134 812l21 118h95l-21 -118h-95z" />
    <glyph glyph-name="Igrave" unicode="&#xcc;" horiz-adv-x="220" 
d="M0 0zM-9 0l133 757h114l-133 -757h-114zM162 789l-68 167l1 6h98l50 -169l-1 -4h-80z" />
    <glyph glyph-name="Iacute" unicode="&#xcd;" horiz-adv-x="220" 
d="M0 0zM-9 0l133 757h114l-133 -757h-114zM132 789l1 4l102 169h104l-1 -6l-120 -167h-86z" />
    <glyph glyph-name="Icircumflex" unicode="&#xce;" horiz-adv-x="220" 
d="M0 0zM-9 0l133 757h114l-133 -757h-114zM235 789l-28 80h-8l-56 -80h-90l1 4l126 169h74l69 -169l-1 -4h-87z" />
    <glyph glyph-name="Idieresis" unicode="&#xcf;" horiz-adv-x="220" 
d="M0 0zM-9 0l133 757h114l-133 -757h-114zM224 812l21 118h95l-21 -118h-95zM65 812l21 118h95l-21 -118h-95z" />
    <glyph glyph-name="Eth" unicode="&#xd0;" horiz-adv-x="411" 
d="M-10 0l57 327h-27l21 119h27l55 311h161q36 0 60 -6.5t38.5 -20.5t20.5 -36t6 -54q0 -17 -2 -39.5t-7 -56t-12.5 -80.5t-19.5 -112q-14 -78 -24 -127t-18.5 -80.5t-17.5 -50.5t-19 -35q-20 -34 -51 -46.5t-87 -12.5h-161zM172 130q17 0 25.5 5t16.5 19q4 9 8 21t9.5 36.5
t13.5 67t20 111.5q9 50 14.5 85t9 58.5t5 38t1.5 23.5q0 17 -5.5 27t-28.5 10h-53l-33 -186h63l-21 -119h-63l-35 -197h53z" />
    <glyph glyph-name="Ntilde" unicode="&#xd1;" horiz-adv-x="415" 
d="M0 0zM245 0l-68 472h-4l-83 -472h-101l133 757h115l35 -331h4l58 331h102l-133 -757h-58zM449 858q-21 -28 -44 -40t-51 -12q-20 0 -37 6t-32 17q-17 12 -31 17.5t-33 5.5q-23 0 -43 -12.5t-41 -38.5h-4l16 89q14 20 36 34.5t49 14.5q43 0 76 -21q22 -14 35 -19t29 -5
q22 0 43.5 11.5t41.5 38.5h5z" />
    <glyph glyph-name="Ograve" unicode="&#xd2;" 
d="M10 0zM273 49q-21 -35 -52.5 -48.5t-86.5 -13.5q-35 0 -58.5 5.5t-38 19t-21 36t-6.5 57.5q0 17 2 40.5t7.5 60t14 88.5t21.5 125q13 74 22.5 122t18.5 79t17.5 50.5t19.5 37.5q20 35 51.5 48.5t87.5 13.5q34 0 57.5 -5.5t38.5 -19t21.5 -36.5t6.5 -57q0 -17 -2 -40
t-6.5 -56.5t-12 -79.5t-18.5 -109q-15 -85 -26 -138.5t-20.5 -88t-18.5 -54.5t-19 -37zM199 143q4 10 8 22.5t9.5 37t13.5 67t20 111.5q10 60 17 99.5t10.5 65t5 40t1.5 23.5q0 23 -6 31t-27 8q-17 0 -26 -5.5t-16 -19.5q-4 -10 -8 -22t-9.5 -35.5t-13 -63.5t-18.5 -105
q-11 -62 -18 -103t-11 -67.5t-5.5 -41.5t-1.5 -25q0 -23 5.5 -32.5t27.5 -9.5q32 0 42 25zM249 789l-68 167l1 6h98l50 -169l-1 -4h-80z" />
    <glyph glyph-name="Oacute" unicode="&#xd3;" 
d="M10 0zM273 49q-21 -35 -52.5 -48.5t-86.5 -13.5q-35 0 -58.5 5.5t-38 19t-21 36t-6.5 57.5q0 17 2 40.5t7.5 60t14 88.5t21.5 125q13 74 22.5 122t18.5 79t17.5 50.5t19.5 37.5q20 35 51.5 48.5t87.5 13.5q34 0 57.5 -5.5t38.5 -19t21.5 -36.5t6.5 -57q0 -17 -2 -40
t-6.5 -56.5t-12 -79.5t-18.5 -109q-15 -85 -26 -138.5t-20.5 -88t-18.5 -54.5t-19 -37zM199 143q4 10 8 22.5t9.5 37t13.5 67t20 111.5q10 60 17 99.5t10.5 65t5 40t1.5 23.5q0 23 -6 31t-27 8q-17 0 -26 -5.5t-16 -19.5q-4 -10 -8 -22t-9.5 -35.5t-13 -63.5t-18.5 -105
q-11 -62 -18 -103t-11 -67.5t-5.5 -41.5t-1.5 -25q0 -23 5.5 -32.5t27.5 -9.5q32 0 42 25zM220 789l1 4l102 169h104l-1 -6l-120 -167h-86z" />
    <glyph glyph-name="Ocircumflex" unicode="&#xd4;" 
d="M10 0zM273 49q-21 -35 -52.5 -48.5t-86.5 -13.5q-35 0 -58.5 5.5t-38 19t-21 36t-6.5 57.5q0 17 2 40.5t7.5 60t14 88.5t21.5 125q13 74 22.5 122t18.5 79t17.5 50.5t19.5 37.5q20 35 51.5 48.5t87.5 13.5q34 0 57.5 -5.5t38.5 -19t21.5 -36.5t6.5 -57q0 -17 -2 -40
t-6.5 -56.5t-12 -79.5t-18.5 -109q-15 -85 -26 -138.5t-20.5 -88t-18.5 -54.5t-19 -37zM199 143q4 10 8 22.5t9.5 37t13.5 67t20 111.5q10 60 17 99.5t10.5 65t5 40t1.5 23.5q0 23 -6 31t-27 8q-17 0 -26 -5.5t-16 -19.5q-4 -10 -8 -22t-9.5 -35.5t-13 -63.5t-18.5 -105
q-11 -62 -18 -103t-11 -67.5t-5.5 -41.5t-1.5 -25q0 -23 5.5 -32.5t27.5 -9.5q32 0 42 25zM323 789l-28 80h-8l-56 -80h-90l1 4l126 169h74l69 -169l-1 -4h-87z" />
    <glyph glyph-name="Otilde" unicode="&#xd5;" 
d="M10 0zM273 49q-21 -35 -52.5 -48.5t-86.5 -13.5q-35 0 -58.5 5.5t-38 19t-21 36t-6.5 57.5q0 17 2 40.5t7.5 60t14 88.5t21.5 125q13 74 22.5 122t18.5 79t17.5 50.5t19.5 37.5q20 35 51.5 48.5t87.5 13.5q34 0 57.5 -5.5t38.5 -19t21.5 -36.5t6.5 -57q0 -17 -2 -40
t-6.5 -56.5t-12 -79.5t-18.5 -109q-15 -85 -26 -138.5t-20.5 -88t-18.5 -54.5t-19 -37zM199 143q4 10 8 22.5t9.5 37t13.5 67t20 111.5q10 60 17 99.5t10.5 65t5 40t1.5 23.5q0 23 -6 31t-27 8q-17 0 -26 -5.5t-16 -19.5q-4 -10 -8 -22t-9.5 -35.5t-13 -63.5t-18.5 -105
q-11 -62 -18 -103t-11 -67.5t-5.5 -41.5t-1.5 -25q0 -23 5.5 -32.5t27.5 -9.5q32 0 42 25zM441 858q-21 -28 -44 -40t-51 -12q-20 0 -37 6t-32 17q-17 12 -31 17.5t-33 5.5q-23 0 -43 -12.5t-41 -38.5h-4l16 89q14 20 36 34.5t49 14.5q43 0 76 -21q22 -14 35 -19t29 -5
q22 0 43.5 11.5t41.5 38.5h5z" />
    <glyph glyph-name="Odieresis" unicode="&#xd6;" 
d="M10 0zM273 49q-21 -35 -52.5 -48.5t-86.5 -13.5q-35 0 -58.5 5.5t-38 19t-21 36t-6.5 57.5q0 17 2 40.5t7.5 60t14 88.5t21.5 125q13 74 22.5 122t18.5 79t17.5 50.5t19.5 37.5q20 35 51.5 48.5t87.5 13.5q34 0 57.5 -5.5t38.5 -19t21.5 -36.5t6.5 -57q0 -17 -2 -40
t-6.5 -56.5t-12 -79.5t-18.5 -109q-15 -85 -26 -138.5t-20.5 -88t-18.5 -54.5t-19 -37zM199 143q4 10 8 22.5t9.5 37t13.5 67t20 111.5q10 60 17 99.5t10.5 65t5 40t1.5 23.5q0 23 -6 31t-27 8q-17 0 -26 -5.5t-16 -19.5q-4 -10 -8 -22t-9.5 -35.5t-13 -63.5t-18.5 -105
q-11 -62 -18 -103t-11 -67.5t-5.5 -41.5t-1.5 -25q0 -23 5.5 -32.5t27.5 -9.5q32 0 42 25zM311 812l21 118h95l-21 -118h-95zM152 812l21 118h95l-21 -118h-95z" />
    <glyph glyph-name="multiply" unicode="&#xd7;" 
d="M269 213l-73 100l-111 -104l-51 70l113 104l-73 99l68 62l72 -101l110 105l50 -70l-110 -103l73 -100z" />
    <glyph glyph-name="Oslash" unicode="&#xd8;" 
d="M-36 -130l63 153q-10 17 -13.5 38t-3.5 44q0 17 2 40.5t7.5 60.5t14 89.5t21.5 127.5q13 73 22.5 120t18.5 77.5t17.5 50t19.5 37.5q20 35 51.5 48.5t87.5 13.5q37 0 61 -6l38 89h54l-49 -116q12 -16 16 -39t4 -46q0 -17 -2 -40.5t-7 -59.5t-13.5 -86.5t-20.5 -122.5
q-14 -76 -24 -125t-19 -80.5t-18 -51.5t-19 -37q-21 -35 -52.5 -48.5t-86.5 -13.5q-41 0 -66 7l-50 -124h-54zM126 133q4 -15 31 -15q20 0 29 8t17 27q3 6 6 18t10 45t18.5 95t31.5 168h-4q-6 -21 -14 -43t-19 -48zM141 288q6 20 14 43.5t19 46.5l106 257q-6 13 -29 13
q-17 0 -27 -6t-18 -26q-11 -30 -19.5 -70t-16 -84t-15 -89t-17.5 -85h3z" />
    <glyph glyph-name="Ugrave" unicode="&#xd9;" horiz-adv-x="405" 
d="M7 0zM320 757h110l-95 -536q-8 -42 -14 -70.5t-13 -48.5t-14 -34t-16 -27q-20 -31 -52 -42.5t-88 -11.5q-74 0 -102.5 23.5t-28.5 85.5q0 20 3.5 49.5t11.5 75.5l95 536h114l-95 -536q-6 -33 -8 -49t-2 -25q0 -17 7 -23t30 -6q17 0 25.5 3t14.5 13q3 5 5.5 11t5 16t5 24
t6.5 36zM252 789l-68 167l1 6h98l50 -169l-1 -4h-80z" />
    <glyph glyph-name="Uacute" unicode="&#xda;" horiz-adv-x="405" 
d="M7 0zM320 757h110l-95 -536q-8 -42 -14 -70.5t-13 -48.5t-14 -34t-16 -27q-20 -31 -52 -42.5t-88 -11.5q-74 0 -102.5 23.5t-28.5 85.5q0 20 3.5 49.5t11.5 75.5l95 536h114l-95 -536q-6 -33 -8 -49t-2 -25q0 -17 7 -23t30 -6q17 0 25.5 3t14.5 13q3 5 5.5 11t5 16t5 24
t6.5 36zM224 789l1 4l102 169h104l-1 -6l-120 -167h-86z" />
    <glyph glyph-name="Ucircumflex" unicode="&#xdb;" horiz-adv-x="405" 
d="M7 0zM320 757h110l-95 -536q-8 -42 -14 -70.5t-13 -48.5t-14 -34t-16 -27q-20 -31 -52 -42.5t-88 -11.5q-74 0 -102.5 23.5t-28.5 85.5q0 20 3.5 49.5t11.5 75.5l95 536h114l-95 -536q-6 -33 -8 -49t-2 -25q0 -17 7 -23t30 -6q17 0 25.5 3t14.5 13q3 5 5.5 11t5 16t5 24
t6.5 36zM326 789l-28 80h-8l-56 -80h-90l1 4l126 169h74l69 -169l-1 -4h-87z" />
    <glyph glyph-name="Udieresis" unicode="&#xdc;" horiz-adv-x="405" 
d="M7 0zM320 757h110l-95 -536q-8 -42 -14 -70.5t-13 -48.5t-14 -34t-16 -27q-20 -31 -52 -42.5t-88 -11.5q-74 0 -102.5 23.5t-28.5 85.5q0 20 3.5 49.5t11.5 75.5l95 536h114l-95 -536q-6 -33 -8 -49t-2 -25q0 -17 7 -23t30 -6q17 0 25.5 3t14.5 13q3 5 5.5 11t5 16t5 24
t6.5 36zM314 812l21 118h95l-21 -118h-95zM155 812l21 118h95l-21 -118h-95z" />
    <glyph glyph-name="Yacute" unicode="&#xdd;" horiz-adv-x="391" 
d="M76 0zM76 0l55 311l-34 441l1 5h112q1 -63 2 -104t2 -69.5t1 -49.5v-45h7q2 9 6.5 22.5t15 41.5t29.5 76t49 128h112l-1 -5l-186 -455l-52 -297h-119zM217 789l1 4l102 169h104l-1 -6l-120 -167h-86z" />
    <glyph glyph-name="Thorn" unicode="&#xde;" horiz-adv-x="397" 
d="M-10 0l133 757h110l-20 -116h63q54 0 77.5 -25.5t23.5 -88.5q0 -28 -5 -68.5t-17 -111.5q-11 -62 -24.5 -106.5t-33.5 -73.5t-48 -42.5t-67 -13.5h-63l-19 -111h-110zM185 233q10 0 18 5t15 18t13 36.5t13 61.5q10 58 13.5 85t3.5 42q0 24 -7 30t-21 6h-42l-50 -284h44z
" />
    <glyph glyph-name="germandbls" unicode="&#xdf;" horiz-adv-x="552" 
d="M14 0l104 590q6 31 11 54t11 40t13.5 28.5t17.5 20.5q19 18 48.5 27.5t89.5 9.5q27 0 49.5 -2.5t38.5 -10.5t25 -25t9 -45q0 -18 -3.5 -42.5t-8.5 -52.5q-4 -26 -6.5 -41t-4 -23.5t-2 -12t-0.5 -5.5q0 -8 3 -13t11 -11q20 -17 36.5 -29t31.5 -27q10 -10 15 -19t5 -31
q0 -17 -3 -43t-11 -69q-12 -65 -21 -106t-17 -65.5t-15 -38t-15 -24.5q-20 -27 -48 -37t-79 -10q-30 0 -51 3t-34.5 12.5t-20 28t-6.5 49.5q0 33 5.5 67t15.5 67h90q-8 -40 -11 -60.5t-3 -33.5q0 -15 7.5 -19t27.5 -4q16 0 23.5 3.5t14.5 16.5q3 6 5.5 12.5t5 18.5t6 30.5
t9.5 48.5q5 27 8 44.5t5 29t2.5 18t0.5 11.5q0 11 -3.5 17.5t-13.5 16.5q-7 7 -16.5 14.5t-19.5 15.5t-18.5 16t-13.5 16q-9 12 -12 20.5t-3 22.5t2.5 36.5t10.5 64.5q7 35 9.5 51.5t2.5 23.5q0 14 -7.5 18.5t-28.5 4.5q-17 0 -26 -3t-16 -13q-5 -8 -8 -18t-8 -38l-105 -596
h-111z" />
    <glyph glyph-name="agrave" unicode="&#xe0;" horiz-adv-x="391" 
d="M0 0zM183 0l20 190h-70l-47 -190h-112l203 757h186l-67 -757h-113zM250 633h-8l-84 -323h61zM245 789l-68 167l1 6h98l50 -169l-1 -4h-80z" />
    <glyph glyph-name="aacute" unicode="&#xe1;" horiz-adv-x="391" 
d="M0 0zM183 0l20 190h-70l-47 -190h-112l203 757h186l-67 -757h-113zM250 633h-8l-84 -323h61zM217 789l1 4l102 169h104l-1 -6l-120 -167h-86z" />
    <glyph glyph-name="acircumflex" unicode="&#xe2;" horiz-adv-x="391" 
d="M0 0zM183 0l20 190h-70l-47 -190h-112l203 757h186l-67 -757h-113zM250 633h-8l-84 -323h61zM319 789l-28 80h-8l-56 -80h-90l1 4l126 169h74l69 -169l-1 -4h-87z" />
    <glyph glyph-name="atilde" unicode="&#xe3;" horiz-adv-x="391" 
d="M0 0zM183 0l20 190h-70l-47 -190h-112l203 757h186l-67 -757h-113zM250 633h-8l-84 -323h61zM437 858q-21 -28 -44 -40t-51 -12q-20 0 -37 6t-32 17q-17 12 -31 17.5t-33 5.5q-23 0 -43 -12.5t-41 -38.5h-4l16 89q14 20 36 34.5t49 14.5q43 0 76 -21q22 -14 35 -19t29 -5
q22 0 43.5 11.5t41.5 38.5h5z" />
    <glyph glyph-name="adieresis" unicode="&#xe4;" horiz-adv-x="391" 
d="M0 0zM183 0l20 190h-70l-47 -190h-112l203 757h186l-67 -757h-113zM250 633h-8l-84 -323h61zM307 812l21 118h95l-21 -118h-95zM148 812l21 118h95l-21 -118h-95z" />
    <glyph glyph-name="aring" unicode="&#xe5;" horiz-adv-x="391" 
d="M0 0zM183 0l20 190h-70l-47 -190h-112l203 757h186l-67 -757h-113zM250 633h-8l-84 -323h61zM336 790q-8 -9 -23.5 -12t-44.5 -3q-34 0 -52 6t-18 32q0 8 2 23t7 44q6 34 11 46.5t15 20.5q9 8 24 11.5t44 3.5q36 0 53.5 -7.5t17.5 -34.5q0 -8 -1.5 -21.5t-5.5 -39.5
q-3 -18 -6.5 -29.5t-7 -19t-7.5 -12t-8 -8.5zM302 829q5 3 6.5 8.5t5.5 26.5q6 31 6 37q0 14 -27 14q-12 0 -17.5 -1t-8.5 -4q-4 -3 -5.5 -8.5t-6.5 -26.5q-6 -30 -6 -38q0 -7 5.5 -9.5t22.5 -2.5q12 0 17 1t8 3z" />
    <glyph glyph-name="ae" unicode="&#xe6;" horiz-adv-x="534" 
d="M0 0zM167 0l33 190h-70l-47 -190h-110l203 757h381l-22 -125h-146l-33 -186h144l-21 -119h-144l-34 -196h145l-23 -131h-256zM278 633h-39l-84 -323h66z" />
    <glyph glyph-name="ccedilla" unicode="&#xe7;" 
d="M0 0zM339 290q-5 -43 -14.5 -94.5t-29.5 -103.5q-18 -46 -53.5 -75.5t-103.5 -29.5q-35 0 -59.5 5t-39.5 18t-21.5 35.5t-6.5 57.5q0 18 2 42.5t7 60.5t13 86t20 119q15 84 26 136t20.5 83.5t17.5 48t17 30.5q21 34 51.5 47.5t86.5 13.5q52 0 77 -11t35 -35
q6 -12 8.5 -29t2.5 -38q0 -47 -12 -116l-12 -61h-106q8 35 13.5 70t5.5 66q0 17 -6 24.5t-27 7.5q-17 0 -26 -5.5t-16 -19.5q-4 -10 -8 -22.5t-9.5 -36.5t-13 -64.5t-18.5 -104.5q-11 -60 -18 -100t-11 -67t-5.5 -43t-1.5 -26q0 -23 7 -32t30 -9q29 0 40 28q4 10 7 21.5
t7 28t8 39.5t10 55h106zM-8 -238v5l82 192h98l-1 -6l-98 -191h-81z" />
    <glyph glyph-name="egrave" unicode="&#xe8;" horiz-adv-x="355" 
d="M0 0zM-10 0l133 757h256l-22 -125h-146l-33 -186h143l-21 -119h-143l-34 -196h145l-23 -131h-255zM232 789l-68 167l1 6h98l50 -169l-1 -4h-80z" />
    <glyph glyph-name="eacute" unicode="&#xe9;" horiz-adv-x="355" 
d="M0 0zM-10 0l133 757h256l-22 -125h-146l-33 -186h143l-21 -119h-143l-34 -196h145l-23 -131h-255zM201 789l1 4l102 169h104l-1 -6l-120 -167h-86z" />
    <glyph glyph-name="ecircumflex" unicode="&#xea;" horiz-adv-x="355" 
d="M0 0zM-10 0l133 757h256l-22 -125h-146l-33 -186h143l-21 -119h-143l-34 -196h145l-23 -131h-255zM306 789l-28 80h-8l-56 -80h-90l1 4l126 169h74l69 -169l-1 -4h-87z" />
    <glyph glyph-name="edieresis" unicode="&#xeb;" horiz-adv-x="355" 
d="M0 0zM-10 0l133 757h256l-22 -125h-146l-33 -186h143l-21 -119h-143l-34 -196h145l-23 -131h-255zM293 812l21 118h95l-21 -118h-95zM134 812l21 118h95l-21 -118h-95z" />
    <glyph glyph-name="igrave" unicode="&#xec;" horiz-adv-x="220" 
d="M0 0zM-9 0l133 757h114l-133 -757h-114zM162 789l-68 167l1 6h98l50 -169l-1 -4h-80z" />
    <glyph glyph-name="iacute" unicode="&#xed;" horiz-adv-x="220" 
d="M0 0zM-9 0l133 757h114l-133 -757h-114zM132 789l1 4l102 169h104l-1 -6l-120 -167h-86z" />
    <glyph glyph-name="icircumflex" unicode="&#xee;" horiz-adv-x="220" 
d="M0 0zM-9 0l133 757h114l-133 -757h-114zM235 789l-28 80h-8l-56 -80h-90l1 4l126 169h74l69 -169l-1 -4h-87z" />
    <glyph glyph-name="idieresis" unicode="&#xef;" horiz-adv-x="220" 
d="M0 0zM-9 0l133 757h114l-133 -757h-114zM224 812l21 118h95l-21 -118h-95zM65 812l21 118h95l-21 -118h-95z" />
    <glyph glyph-name="eth" unicode="&#xf0;" horiz-adv-x="411" 
d="M0 0zM-10 0l57 327h-27l21 119h27l55 311h161q36 0 60 -6.5t38.5 -20.5t20.5 -36t6 -54q0 -17 -2 -39.5t-7 -56t-12.5 -80.5t-19.5 -112q-14 -78 -24 -127t-18.5 -80.5t-17.5 -50.5t-19 -35q-20 -34 -51 -46.5t-87 -12.5h-161zM172 130q17 0 25.5 5t16.5 19q4 9 8 21
t9.5 36.5t13.5 67t20 111.5q9 50 14.5 85t9 58.5t5 38t1.5 23.5q0 17 -5.5 27t-28.5 10h-53l-33 -186h63l-21 -119h-63l-35 -197h53z" />
    <glyph glyph-name="ntilde" unicode="&#xf1;" horiz-adv-x="415" 
d="M0 0zM245 0l-68 472h-4l-83 -472h-101l133 757h115l35 -331h4l58 331h102l-133 -757h-58zM449 858q-21 -28 -44 -40t-51 -12q-20 0 -37 6t-32 17q-17 12 -31 17.5t-33 5.5q-23 0 -43 -12.5t-41 -38.5h-4l16 89q14 20 36 34.5t49 14.5q43 0 76 -21q22 -14 35 -19t29 -5
q22 0 43.5 11.5t41.5 38.5h5z" />
    <glyph glyph-name="ograve" unicode="&#xf2;" 
d="M10 0zM273 49q-21 -35 -52.5 -48.5t-86.5 -13.5q-35 0 -58.5 5.5t-38 19t-21 36t-6.5 57.5q0 17 2 40.5t7.5 60t14 88.5t21.5 125q13 74 22.5 122t18.5 79t17.5 50.5t19.5 37.5q20 35 51.5 48.5t87.5 13.5q34 0 57.5 -5.5t38.5 -19t21.5 -36.5t6.5 -57q0 -17 -2 -40
t-6.5 -56.5t-12 -79.5t-18.5 -109q-15 -85 -26 -138.5t-20.5 -88t-18.5 -54.5t-19 -37zM199 143q4 10 8 22.5t9.5 37t13.5 67t20 111.5q10 60 17 99.5t10.5 65t5 40t1.5 23.5q0 23 -6 31t-27 8q-17 0 -26 -5.5t-16 -19.5q-4 -10 -8 -22t-9.5 -35.5t-13 -63.5t-18.5 -105
q-11 -62 -18 -103t-11 -67.5t-5.5 -41.5t-1.5 -25q0 -23 5.5 -32.5t27.5 -9.5q32 0 42 25zM249 789l-68 167l1 6h98l50 -169l-1 -4h-80z" />
    <glyph glyph-name="oacute" unicode="&#xf3;" 
d="M10 0zM273 49q-21 -35 -52.5 -48.5t-86.5 -13.5q-35 0 -58.5 5.5t-38 19t-21 36t-6.5 57.5q0 17 2 40.5t7.5 60t14 88.5t21.5 125q13 74 22.5 122t18.5 79t17.5 50.5t19.5 37.5q20 35 51.5 48.5t87.5 13.5q34 0 57.5 -5.5t38.5 -19t21.5 -36.5t6.5 -57q0 -17 -2 -40
t-6.5 -56.5t-12 -79.5t-18.5 -109q-15 -85 -26 -138.5t-20.5 -88t-18.5 -54.5t-19 -37zM199 143q4 10 8 22.5t9.5 37t13.5 67t20 111.5q10 60 17 99.5t10.5 65t5 40t1.5 23.5q0 23 -6 31t-27 8q-17 0 -26 -5.5t-16 -19.5q-4 -10 -8 -22t-9.5 -35.5t-13 -63.5t-18.5 -105
q-11 -62 -18 -103t-11 -67.5t-5.5 -41.5t-1.5 -25q0 -23 5.5 -32.5t27.5 -9.5q32 0 42 25zM220 789l1 4l102 169h104l-1 -6l-120 -167h-86z" />
    <glyph glyph-name="ocircumflex" unicode="&#xf4;" 
d="M10 0zM273 49q-21 -35 -52.5 -48.5t-86.5 -13.5q-35 0 -58.5 5.5t-38 19t-21 36t-6.5 57.5q0 17 2 40.5t7.5 60t14 88.5t21.5 125q13 74 22.5 122t18.5 79t17.5 50.5t19.5 37.5q20 35 51.5 48.5t87.5 13.5q34 0 57.5 -5.5t38.5 -19t21.5 -36.5t6.5 -57q0 -17 -2 -40
t-6.5 -56.5t-12 -79.5t-18.5 -109q-15 -85 -26 -138.5t-20.5 -88t-18.5 -54.5t-19 -37zM199 143q4 10 8 22.5t9.5 37t13.5 67t20 111.5q10 60 17 99.5t10.5 65t5 40t1.5 23.5q0 23 -6 31t-27 8q-17 0 -26 -5.5t-16 -19.5q-4 -10 -8 -22t-9.5 -35.5t-13 -63.5t-18.5 -105
q-11 -62 -18 -103t-11 -67.5t-5.5 -41.5t-1.5 -25q0 -23 5.5 -32.5t27.5 -9.5q32 0 42 25zM323 789l-28 80h-8l-56 -80h-90l1 4l126 169h74l69 -169l-1 -4h-87z" />
    <glyph glyph-name="otilde" unicode="&#xf5;" 
d="M10 0zM273 49q-21 -35 -52.5 -48.5t-86.5 -13.5q-35 0 -58.5 5.5t-38 19t-21 36t-6.5 57.5q0 17 2 40.5t7.5 60t14 88.5t21.5 125q13 74 22.5 122t18.5 79t17.5 50.5t19.5 37.5q20 35 51.5 48.5t87.5 13.5q34 0 57.5 -5.5t38.5 -19t21.5 -36.5t6.5 -57q0 -17 -2 -40
t-6.5 -56.5t-12 -79.5t-18.5 -109q-15 -85 -26 -138.5t-20.5 -88t-18.5 -54.5t-19 -37zM199 143q4 10 8 22.5t9.5 37t13.5 67t20 111.5q10 60 17 99.5t10.5 65t5 40t1.5 23.5q0 23 -6 31t-27 8q-17 0 -26 -5.5t-16 -19.5q-4 -10 -8 -22t-9.5 -35.5t-13 -63.5t-18.5 -105
q-11 -62 -18 -103t-11 -67.5t-5.5 -41.5t-1.5 -25q0 -23 5.5 -32.5t27.5 -9.5q32 0 42 25zM441 858q-21 -28 -44 -40t-51 -12q-20 0 -37 6t-32 17q-17 12 -31 17.5t-33 5.5q-23 0 -43 -12.5t-41 -38.5h-4l16 89q14 20 36 34.5t49 14.5q43 0 76 -21q22 -14 35 -19t29 -5
q22 0 43.5 11.5t41.5 38.5h5z" />
    <glyph glyph-name="odieresis" unicode="&#xf6;" 
d="M10 0zM273 49q-21 -35 -52.5 -48.5t-86.5 -13.5q-35 0 -58.5 5.5t-38 19t-21 36t-6.5 57.5q0 17 2 40.5t7.5 60t14 88.5t21.5 125q13 74 22.5 122t18.5 79t17.5 50.5t19.5 37.5q20 35 51.5 48.5t87.5 13.5q34 0 57.5 -5.5t38.5 -19t21.5 -36.5t6.5 -57q0 -17 -2 -40
t-6.5 -56.5t-12 -79.5t-18.5 -109q-15 -85 -26 -138.5t-20.5 -88t-18.5 -54.5t-19 -37zM199 143q4 10 8 22.5t9.5 37t13.5 67t20 111.5q10 60 17 99.5t10.5 65t5 40t1.5 23.5q0 23 -6 31t-27 8q-17 0 -26 -5.5t-16 -19.5q-4 -10 -8 -22t-9.5 -35.5t-13 -63.5t-18.5 -105
q-11 -62 -18 -103t-11 -67.5t-5.5 -41.5t-1.5 -25q0 -23 5.5 -32.5t27.5 -9.5q32 0 42 25zM311 812l21 118h95l-21 -118h-95zM152 812l21 118h95l-21 -118h-95z" />
    <glyph glyph-name="divide" unicode="&#xf7;" 
d="M35 95zM35 333l16 92h323l-16 -92h-323zM174 525l24 138h110l-24 -138h-110zM98 95l24 138h110l-24 -138h-110z" />
    <glyph glyph-name="oslash" unicode="&#xf8;" 
d="M0 0zM-36 -130l63 153q-10 17 -13.5 38t-3.5 44q0 17 2 40.5t7.5 60.5t14 89.5t21.5 127.5q13 73 22.5 120t18.5 77.5t17.5 50t19.5 37.5q20 35 51.5 48.5t87.5 13.5q37 0 61 -6l38 89h54l-49 -116q12 -16 16 -39t4 -46q0 -17 -2 -40.5t-7 -59.5t-13.5 -86.5
t-20.5 -122.5q-14 -76 -24 -125t-19 -80.5t-18 -51.5t-19 -37q-21 -35 -52.5 -48.5t-86.5 -13.5q-41 0 -66 7l-50 -124h-54zM126 133q4 -15 31 -15q20 0 29 8t17 27q3 6 6 18t10 45t18.5 95t31.5 168h-4q-6 -21 -14 -43t-19 -48zM141 288q6 20 14 43.5t19 46.5l106 257
q-6 13 -29 13q-17 0 -27 -6t-18 -26q-11 -30 -19.5 -70t-16 -84t-15 -89t-17.5 -85h3z" />
    <glyph glyph-name="ugrave" unicode="&#xf9;" horiz-adv-x="405" 
d="M7 0zM320 757h110l-95 -536q-8 -42 -14 -70.5t-13 -48.5t-14 -34t-16 -27q-20 -31 -52 -42.5t-88 -11.5q-74 0 -102.5 23.5t-28.5 85.5q0 20 3.5 49.5t11.5 75.5l95 536h114l-95 -536q-6 -33 -8 -49t-2 -25q0 -17 7 -23t30 -6q17 0 25.5 3t14.5 13q3 5 5.5 11t5 16t5 24
t6.5 36zM252 789l-68 167l1 6h98l50 -169l-1 -4h-80z" />
    <glyph glyph-name="uacute" unicode="&#xfa;" horiz-adv-x="405" 
d="M7 0zM320 757h110l-95 -536q-8 -42 -14 -70.5t-13 -48.5t-14 -34t-16 -27q-20 -31 -52 -42.5t-88 -11.5q-74 0 -102.5 23.5t-28.5 85.5q0 20 3.5 49.5t11.5 75.5l95 536h114l-95 -536q-6 -33 -8 -49t-2 -25q0 -17 7 -23t30 -6q17 0 25.5 3t14.5 13q3 5 5.5 11t5 16t5 24
t6.5 36zM224 789l1 4l102 169h104l-1 -6l-120 -167h-86z" />
    <glyph glyph-name="ucircumflex" unicode="&#xfb;" horiz-adv-x="405" 
d="M7 0zM320 757h110l-95 -536q-8 -42 -14 -70.5t-13 -48.5t-14 -34t-16 -27q-20 -31 -52 -42.5t-88 -11.5q-74 0 -102.5 23.5t-28.5 85.5q0 20 3.5 49.5t11.5 75.5l95 536h114l-95 -536q-6 -33 -8 -49t-2 -25q0 -17 7 -23t30 -6q17 0 25.5 3t14.5 13q3 5 5.5 11t5 16t5 24
t6.5 36zM326 789l-28 80h-8l-56 -80h-90l1 4l126 169h74l69 -169l-1 -4h-87z" />
    <glyph glyph-name="udieresis" unicode="&#xfc;" horiz-adv-x="405" 
d="M7 0zM320 757h110l-95 -536q-8 -42 -14 -70.5t-13 -48.5t-14 -34t-16 -27q-20 -31 -52 -42.5t-88 -11.5q-74 0 -102.5 23.5t-28.5 85.5q0 20 3.5 49.5t11.5 75.5l95 536h114l-95 -536q-6 -33 -8 -49t-2 -25q0 -17 7 -23t30 -6q17 0 25.5 3t14.5 13q3 5 5.5 11t5 16t5 24
t6.5 36zM314 812l21 118h95l-21 -118h-95zM155 812l21 118h95l-21 -118h-95z" />
    <glyph glyph-name="yacute" unicode="&#xfd;" horiz-adv-x="391" 
d="M76 0zM76 0l55 311l-34 441l1 5h112q1 -63 2 -104t2 -69.5t1 -49.5v-45h7q2 9 6.5 22.5t15 41.5t29.5 76t49 128h112l-1 -5l-186 -455l-52 -297h-119zM217 789l1 4l102 169h104l-1 -6l-120 -167h-86z" />
    <glyph glyph-name="thorn" unicode="&#xfe;" horiz-adv-x="397" 
d="M0 0zM-10 0l133 757h110l-20 -116h63q54 0 77.5 -25.5t23.5 -88.5q0 -28 -5 -68.5t-17 -111.5q-11 -62 -24.5 -106.5t-33.5 -73.5t-48 -42.5t-67 -13.5h-63l-19 -111h-110zM185 233q10 0 18 5t15 18t13 36.5t13 61.5q10 58 13.5 85t3.5 42q0 24 -7 30t-21 6h-42l-50 -284
h44z" />
    <glyph glyph-name="ydieresis" unicode="&#xff;" horiz-adv-x="391" 
d="M76 0zM76 0l55 311l-34 441l1 5h112q1 -63 2 -104t2 -69.5t1 -49.5v-45h7q2 9 6.5 22.5t15 41.5t29.5 76t49 128h112l-1 -5l-186 -455l-52 -297h-119zM308 812l21 118h95l-21 -118h-95zM149 812l21 118h95l-21 -118h-95z" />
    <glyph glyph-name="Amacron" unicode="&#x100;" horiz-adv-x="391" 
d="M0 0zM183 0l20 190h-70l-47 -190h-112l203 757h186l-67 -757h-113zM250 633h-8l-84 -323h61zM130 834l15 84h297l-15 -84h-297z" />
    <glyph glyph-name="amacron" unicode="&#x101;" horiz-adv-x="391" 
d="M0 0zM183 0l20 190h-70l-47 -190h-112l203 757h186l-67 -757h-113zM250 633h-8l-84 -323h61zM130 834l15 84h297l-15 -84h-297z" />
    <glyph glyph-name="Abreve" unicode="&#x102;" horiz-adv-x="391" 
d="M0 0zM183 0l20 190h-70l-47 -190h-112l203 757h186l-67 -757h-113zM250 633h-8l-84 -323h61zM428 962q-9 -52 -16.5 -79t-15.5 -42q-9 -17 -20 -27t-25.5 -15.5t-33.5 -7.5t-45 -2q-60 0 -84 14t-24 58q0 16 3 39.5t9 61.5h73q-5 -28 -7 -44.5t-2 -28.5q0 -16 8 -21
t37 -5q25 0 37.5 6.5t19.5 31.5q2 9 5 23.5t7 37.5h74z" />
    <glyph glyph-name="abreve" unicode="&#x103;" horiz-adv-x="391" 
d="M0 0zM183 0l20 190h-70l-47 -190h-112l203 757h186l-67 -757h-113zM250 633h-8l-84 -323h61zM428 962q-9 -52 -16.5 -79t-15.5 -42q-9 -17 -20 -27t-25.5 -15.5t-33.5 -7.5t-45 -2q-60 0 -84 14t-24 58q0 16 3 39.5t9 61.5h73q-5 -28 -7 -44.5t-2 -28.5q0 -16 8 -21
t37 -5q25 0 37.5 6.5t19.5 31.5q2 9 5 23.5t7 37.5h74z" />
    <glyph glyph-name="Aogonek" unicode="&#x104;" horiz-adv-x="391" 
d="M257 -206q-8 -10 -33 -21t-65 -11q-89 0 -89 76q0 43 22.5 82.5t85.5 62.5l24 207h-70l-47 -190h-112l203 757h186l-67 -757q-24 -9 -44 -18.5t-35 -21t-23 -27.5t-8 -38q0 -37 40 -37q14 0 23.5 3t17.5 7h4zM249 633h-8l-84 -323h61z" />
    <glyph glyph-name="aogonek" unicode="&#x105;" horiz-adv-x="391" 
d="M0 0zM257 -206q-8 -10 -33 -21t-65 -11q-89 0 -89 76q0 43 22.5 82.5t85.5 62.5l24 207h-70l-47 -190h-112l203 757h186l-67 -757q-24 -9 -44 -18.5t-35 -21t-23 -27.5t-8 -38q0 -37 40 -37q14 0 23.5 3t17.5 7h4zM249 633h-8l-84 -323h61z" />
    <glyph glyph-name="Cacute" unicode="&#x106;" 
d="M11 0zM339 290q-5 -43 -14.5 -94.5t-29.5 -103.5q-18 -46 -53.5 -75.5t-103.5 -29.5q-35 0 -59.5 5t-39.5 18t-21.5 35.5t-6.5 57.5q0 18 2 42.5t7 60.5t13 86t20 119q15 84 26 136t20.5 83.5t17.5 48t17 30.5q21 34 51.5 47.5t86.5 13.5q52 0 77 -11t35 -35
q6 -12 8.5 -29t2.5 -38q0 -47 -12 -116l-12 -61h-106q8 35 13.5 70t5.5 66q0 17 -6 24.5t-27 7.5q-17 0 -26 -5.5t-16 -19.5q-4 -10 -8 -22.5t-9.5 -36.5t-13 -64.5t-18.5 -104.5q-11 -60 -18 -100t-11 -67t-5.5 -43t-1.5 -26q0 -23 7 -32t30 -9q29 0 40 28q4 10 7 21.5
t7 28t8 39.5t10 55h106zM220 789l1 4l102 169h104l-1 -6l-120 -167h-86z" />
    <glyph glyph-name="cacute" unicode="&#x107;" 
d="M11 0zM339 290q-5 -43 -14.5 -94.5t-29.5 -103.5q-18 -46 -53.5 -75.5t-103.5 -29.5q-35 0 -59.5 5t-39.5 18t-21.5 35.5t-6.5 57.5q0 18 2 42.5t7 60.5t13 86t20 119q15 84 26 136t20.5 83.5t17.5 48t17 30.5q21 34 51.5 47.5t86.5 13.5q52 0 77 -11t35 -35
q6 -12 8.5 -29t2.5 -38q0 -47 -12 -116l-12 -61h-106q8 35 13.5 70t5.5 66q0 17 -6 24.5t-27 7.5q-17 0 -26 -5.5t-16 -19.5q-4 -10 -8 -22.5t-9.5 -36.5t-13 -64.5t-18.5 -104.5q-11 -60 -18 -100t-11 -67t-5.5 -43t-1.5 -26q0 -23 7 -32t30 -9q29 0 40 28q4 10 7 21.5
t7 28t8 39.5t10 55h106zM220 789l1 4l102 169h104l-1 -6l-120 -167h-86z" />
    <glyph glyph-name="Cdotaccent" unicode="&#x10a;" 
d="M11 0zM339 290q-5 -43 -14.5 -94.5t-29.5 -103.5q-18 -46 -53.5 -75.5t-103.5 -29.5q-35 0 -59.5 5t-39.5 18t-21.5 35.5t-6.5 57.5q0 18 2 42.5t7 60.5t13 86t20 119q15 84 26 136t20.5 83.5t17.5 48t17 30.5q21 34 51.5 47.5t86.5 13.5q52 0 77 -11t35 -35
q6 -12 8.5 -29t2.5 -38q0 -47 -12 -116l-12 -61h-106q8 35 13.5 70t5.5 66q0 17 -6 24.5t-27 7.5q-17 0 -26 -5.5t-16 -19.5q-4 -10 -8 -22.5t-9.5 -36.5t-13 -64.5t-18.5 -104.5q-11 -60 -18 -100t-11 -67t-5.5 -43t-1.5 -26q0 -23 7 -32t30 -9q29 0 40 28q4 10 7 21.5
t7 28t8 39.5t10 55h106zM233 812l21 118h95l-21 -118h-95z" />
    <glyph glyph-name="cdotaccent" unicode="&#x10b;" 
d="M11 0zM339 290q-5 -43 -14.5 -94.5t-29.5 -103.5q-18 -46 -53.5 -75.5t-103.5 -29.5q-35 0 -59.5 5t-39.5 18t-21.5 35.5t-6.5 57.5q0 18 2 42.5t7 60.5t13 86t20 119q15 84 26 136t20.5 83.5t17.5 48t17 30.5q21 34 51.5 47.5t86.5 13.5q52 0 77 -11t35 -35
q6 -12 8.5 -29t2.5 -38q0 -47 -12 -116l-12 -61h-106q8 35 13.5 70t5.5 66q0 17 -6 24.5t-27 7.5q-17 0 -26 -5.5t-16 -19.5q-4 -10 -8 -22.5t-9.5 -36.5t-13 -64.5t-18.5 -104.5q-11 -60 -18 -100t-11 -67t-5.5 -43t-1.5 -26q0 -23 7 -32t30 -9q29 0 40 28q4 10 7 21.5
t7 28t8 39.5t10 55h106zM233 812l21 118h95l-21 -118h-95z" />
    <glyph glyph-name="Ccaron" unicode="&#x10c;" 
d="M11 0zM339 290q-5 -43 -14.5 -94.5t-29.5 -103.5q-18 -46 -53.5 -75.5t-103.5 -29.5q-35 0 -59.5 5t-39.5 18t-21.5 35.5t-6.5 57.5q0 18 2 42.5t7 60.5t13 86t20 119q15 84 26 136t20.5 83.5t17.5 48t17 30.5q21 34 51.5 47.5t86.5 13.5q52 0 77 -11t35 -35
q6 -12 8.5 -29t2.5 -38q0 -47 -12 -116l-12 -61h-106q8 35 13.5 70t5.5 66q0 17 -6 24.5t-27 7.5q-17 0 -26 -5.5t-16 -19.5q-4 -10 -8 -22.5t-9.5 -36.5t-13 -64.5t-18.5 -104.5q-11 -60 -18 -100t-11 -67t-5.5 -43t-1.5 -26q0 -23 7 -32t30 -9q29 0 40 28q4 10 7 21.5
t7 28t8 39.5t10 55h106zM237 789l-68 168v5h87l28 -80h8l56 80h90v-5l-127 -168h-74z" />
    <glyph glyph-name="ccaron" unicode="&#x10d;" 
d="M11 0zM339 290q-5 -43 -14.5 -94.5t-29.5 -103.5q-18 -46 -53.5 -75.5t-103.5 -29.5q-35 0 -59.5 5t-39.5 18t-21.5 35.5t-6.5 57.5q0 18 2 42.5t7 60.5t13 86t20 119q15 84 26 136t20.5 83.5t17.5 48t17 30.5q21 34 51.5 47.5t86.5 13.5q52 0 77 -11t35 -35
q6 -12 8.5 -29t2.5 -38q0 -47 -12 -116l-12 -61h-106q8 35 13.5 70t5.5 66q0 17 -6 24.5t-27 7.5q-17 0 -26 -5.5t-16 -19.5q-4 -10 -8 -22.5t-9.5 -36.5t-13 -64.5t-18.5 -104.5q-11 -60 -18 -100t-11 -67t-5.5 -43t-1.5 -26q0 -23 7 -32t30 -9q29 0 40 28q4 10 7 21.5
t7 28t8 39.5t10 55h106zM237 789l-68 168v5h87l28 -80h8l56 80h90v-5l-127 -168h-74z" />
    <glyph glyph-name="Dcaron" unicode="&#x10e;" horiz-adv-x="412" 
d="M0 0zM-10 0l133 757h161q62 0 93.5 -24.5t31.5 -91.5q0 -17 -2 -40.5t-7 -57.5t-12.5 -80t-18.5 -107q-14 -79 -24 -129t-19 -82t-18 -51t-19 -35q-20 -34 -51 -46.5t-87 -12.5h-161zM170 130q17 0 26 5t17 19q4 9 7.5 21t9 35t13 62.5t18.5 103.5q9 54 15.5 91.5
t10.5 62.5t5.5 40.5t1.5 26.5q0 17 -7 26t-28 9h-48l-89 -502h48zM239 789l-68 168v5h87l28 -80h8l56 80h90v-5l-127 -168h-74z" />
    <glyph glyph-name="dcaron" unicode="&#x10f;" horiz-adv-x="412" 
d="M0 0zM-10 0l133 757h161q62 0 93.5 -24.5t31.5 -91.5q0 -17 -2 -40.5t-7 -57.5t-12.5 -80t-18.5 -107q-14 -79 -24 -129t-19 -82t-18 -51t-19 -35q-20 -34 -51 -46.5t-87 -12.5h-161zM170 130q17 0 26 5t17 19q4 9 7.5 21t9 35t13 62.5t18.5 103.5q9 54 15.5 91.5
t10.5 62.5t5.5 40.5t1.5 26.5q0 17 -7 26t-28 9h-48l-89 -502h48zM239 789l-68 168v5h87l28 -80h8l56 80h90v-5l-127 -168h-74z" />
    <glyph glyph-name="Dcroat" unicode="&#x110;" horiz-adv-x="411" 
d="M0 0zM-10 0l57 327h-27l21 119h27l55 311h161q36 0 60 -6.5t38.5 -20.5t20.5 -36t6 -54q0 -17 -2 -39.5t-7 -56t-12.5 -80.5t-19.5 -112q-14 -78 -24 -127t-18.5 -80.5t-17.5 -50.5t-19 -35q-20 -34 -51 -46.5t-87 -12.5h-161zM172 130q17 0 25.5 5t16.5 19q4 9 8 21
t9.5 36.5t13.5 67t20 111.5q9 50 14.5 85t9 58.5t5 38t1.5 23.5q0 17 -5.5 27t-28.5 10h-53l-33 -186h63l-21 -119h-63l-35 -197h53z" />
    <glyph glyph-name="dcroat" unicode="&#x111;" horiz-adv-x="411" 
d="M0 0zM-10 0l57 327h-27l21 119h27l55 311h161q36 0 60 -6.5t38.5 -20.5t20.5 -36t6 -54q0 -17 -2 -39.5t-7 -56t-12.5 -80.5t-19.5 -112q-14 -78 -24 -127t-18.5 -80.5t-17.5 -50.5t-19 -35q-20 -34 -51 -46.5t-87 -12.5h-161zM172 130q17 0 25.5 5t16.5 19q4 9 8 21
t9.5 36.5t13.5 67t20 111.5q9 50 14.5 85t9 58.5t5 38t1.5 23.5q0 17 -5.5 27t-28.5 10h-53l-33 -186h63l-21 -119h-63l-35 -197h53z" />
    <glyph glyph-name="Emacron" unicode="&#x112;" horiz-adv-x="355" 
d="M0 0zM-10 0l133 757h256l-22 -125h-146l-33 -186h143l-21 -119h-143l-34 -196h145l-23 -131h-255zM116 834l15 84h297l-15 -84h-297z" />
    <glyph glyph-name="emacron" unicode="&#x113;" horiz-adv-x="355" 
d="M0 0zM-10 0l133 757h256l-22 -125h-146l-33 -186h143l-21 -119h-143l-34 -196h145l-23 -131h-255zM116 834l15 84h297l-15 -84h-297z" />
    <glyph glyph-name="Ebreve" unicode="&#x114;" horiz-adv-x="355" 
d="M0 0zM-10 0l133 757h256l-22 -125h-146l-33 -186h143l-21 -119h-143l-34 -196h145l-23 -131h-255zM413 962q-9 -52 -16.5 -79t-15.5 -42q-9 -17 -20 -27t-25.5 -15.5t-33.5 -7.5t-45 -2q-60 0 -84 14t-24 58q0 16 3 39.5t9 61.5h73q-5 -28 -7 -44.5t-2 -28.5q0 -16 8 -21
t37 -5q25 0 37.5 6.5t19.5 31.5q2 9 5 23.5t7 37.5h74z" />
    <glyph glyph-name="ebreve" unicode="&#x115;" horiz-adv-x="355" 
d="M0 0zM-10 0l133 757h256l-22 -125h-146l-33 -186h143l-21 -119h-143l-34 -196h145l-23 -131h-255zM413 962q-9 -52 -16.5 -79t-15.5 -42q-9 -17 -20 -27t-25.5 -15.5t-33.5 -7.5t-45 -2q-60 0 -84 14t-24 58q0 16 3 39.5t9 61.5h73q-5 -28 -7 -44.5t-2 -28.5q0 -16 8 -21
t37 -5q25 0 37.5 6.5t19.5 31.5q2 9 5 23.5t7 37.5h74z" />
    <glyph glyph-name="Edotaccent" unicode="&#x116;" horiz-adv-x="355" 
d="M0 0zM-10 0l133 757h256l-22 -125h-146l-33 -186h143l-21 -119h-143l-34 -196h145l-23 -131h-255zM213 812l21 118h95l-21 -118h-95z" />
    <glyph glyph-name="edotaccent" unicode="&#x117;" horiz-adv-x="355" 
d="M0 0zM-10 0l133 757h256l-22 -125h-146l-33 -186h143l-21 -119h-143l-34 -196h145l-23 -131h-255zM213 812l21 118h95l-21 -118h-95z" />
    <glyph glyph-name="Eogonek" unicode="&#x118;" horiz-adv-x="355" 
d="M207 -206q-8 -10 -32.5 -21t-64.5 -11q-90 0 -90 76q0 27 8 52.5t28.5 47.5t55 38t88.5 24h-210l133 757h256l-22 -125h-146l-33 -186h143l-21 -119h-143l-34 -196h145l-23 -131q-24 -9 -44 -18t-35 -21t-23 -27.5t-8 -38.5q0 -37 40 -37q14 0 24 3t18 7h3z" />
    <glyph glyph-name="eogonek" unicode="&#x119;" horiz-adv-x="355" 
d="M0 0zM207 -206q-8 -10 -32.5 -21t-64.5 -11q-90 0 -90 76q0 27 8 52.5t28.5 47.5t55 38t88.5 24h-210l133 757h256l-22 -125h-146l-33 -186h143l-21 -119h-143l-34 -196h145l-23 -131q-24 -9 -44 -18t-35 -21t-23 -27.5t-8 -38.5q0 -37 40 -37q14 0 24 3t18 7h3z" />
    <glyph glyph-name="Ecaron" unicode="&#x11a;" horiz-adv-x="355" 
d="M0 0zM-10 0l133 757h256l-22 -125h-146l-33 -186h143l-21 -119h-143l-34 -196h145l-23 -131h-255zM221 789l-68 168v5h87l28 -80h8l56 80h90v-5l-127 -168h-74z" />
    <glyph glyph-name="ecaron" unicode="&#x11b;" horiz-adv-x="355" 
d="M0 0zM-10 0l133 757h256l-22 -125h-146l-33 -186h143l-21 -119h-143l-34 -196h145l-23 -131h-255zM221 789l-68 168v5h87l28 -80h8l56 80h90v-5l-127 -168h-74z" />
    <glyph glyph-name="Gbreve" unicode="&#x11e;" horiz-adv-x="395" 
d="M10 0zM178 313l21 119h167q-3 -19 -8.5 -53.5t-13.5 -82.5q-11 -60 -20 -100.5t-17.5 -68t-16.5 -45.5t-17 -33q-21 -35 -52.5 -48.5t-86.5 -13.5q-35 0 -59 5.5t-38.5 19t-20.5 36t-6 57.5q0 17 2 41t7 59.5t13 85.5t20 119q14 78 24.5 128t19.5 82t17.5 51t19.5 36
q11 18 24 30t29 19.5t37 10.5t49 3q35 0 59 -5.5t38.5 -19t20.5 -36.5t6 -57q0 -61 -17 -126h-105q6 21 9 45t3 44t-9 26.5t-27 6.5t-27 -6t-16 -22q-4 -9 -8 -21t-9.5 -37t-13.5 -66.5t-20 -109.5q-10 -58 -16.5 -96.5t-10.5 -64t-5.5 -40.5t-1.5 -24q0 -24 7 -34t30 -10
q20 0 30 6.5t17 23.5q4 9 8.5 23t8 30l7 32t5.5 30l9 51h-66zM431 962q-9 -52 -16.5 -79t-15.5 -42q-9 -17 -20 -27t-25.5 -15.5t-33.5 -7.5t-45 -2q-60 0 -84 14t-24 58q0 16 3 39.5t9 61.5h73q-5 -28 -7 -44.5t-2 -28.5q0 -16 8 -21t37 -5q25 0 37.5 6.5t19.5 31.5
q2 9 5 23.5t7 37.5h74z" />
    <glyph glyph-name="gbreve" unicode="&#x11f;" horiz-adv-x="395" 
d="M10 0zM178 313l21 119h167q-3 -19 -8.5 -53.5t-13.5 -82.5q-11 -60 -20 -100.5t-17.5 -68t-16.5 -45.5t-17 -33q-21 -35 -52.5 -48.5t-86.5 -13.5q-35 0 -59 5.5t-38.5 19t-20.5 36t-6 57.5q0 17 2 41t7 59.5t13 85.5t20 119q14 78 24.5 128t19.5 82t17.5 51t19.5 36
q11 18 24 30t29 19.5t37 10.5t49 3q35 0 59 -5.5t38.5 -19t20.5 -36.5t6 -57q0 -61 -17 -126h-105q6 21 9 45t3 44t-9 26.5t-27 6.5t-27 -6t-16 -22q-4 -9 -8 -21t-9.5 -37t-13.5 -66.5t-20 -109.5q-10 -58 -16.5 -96.5t-10.5 -64t-5.5 -40.5t-1.5 -24q0 -24 7 -34t30 -10
q20 0 30 6.5t17 23.5q4 9 8.5 23t8 30l7 32t5.5 30l9 51h-66zM431 962q-9 -52 -16.5 -79t-15.5 -42q-9 -17 -20 -27t-25.5 -15.5t-33.5 -7.5t-45 -2q-60 0 -84 14t-24 58q0 16 3 39.5t9 61.5h73q-5 -28 -7 -44.5t-2 -28.5q0 -16 8 -21t37 -5q25 0 37.5 6.5t19.5 31.5
q2 9 5 23.5t7 37.5h74z" />
    <glyph glyph-name="Gdotaccent" unicode="&#x120;" horiz-adv-x="395" 
d="M10 0zM178 313l21 119h167q-3 -19 -8.5 -53.5t-13.5 -82.5q-11 -60 -20 -100.5t-17.5 -68t-16.5 -45.5t-17 -33q-21 -35 -52.5 -48.5t-86.5 -13.5q-35 0 -59 5.5t-38.5 19t-20.5 36t-6 57.5q0 17 2 41t7 59.5t13 85.5t20 119q14 78 24.5 128t19.5 82t17.5 51t19.5 36
q11 18 24 30t29 19.5t37 10.5t49 3q35 0 59 -5.5t38.5 -19t20.5 -36.5t6 -57q0 -61 -17 -126h-105q6 21 9 45t3 44t-9 26.5t-27 6.5t-27 -6t-16 -22q-4 -9 -8 -21t-9.5 -37t-13.5 -66.5t-20 -109.5q-10 -58 -16.5 -96.5t-10.5 -64t-5.5 -40.5t-1.5 -24q0 -24 7 -34t30 -10
q20 0 30 6.5t17 23.5q4 9 8.5 23t8 30l7 32t5.5 30l9 51h-66zM232 812l21 118h95l-21 -118h-95z" />
    <glyph glyph-name="gdotaccent" unicode="&#x121;" horiz-adv-x="395" 
d="M10 0zM178 313l21 119h167q-3 -19 -8.5 -53.5t-13.5 -82.5q-11 -60 -20 -100.5t-17.5 -68t-16.5 -45.5t-17 -33q-21 -35 -52.5 -48.5t-86.5 -13.5q-35 0 -59 5.5t-38.5 19t-20.5 36t-6 57.5q0 17 2 41t7 59.5t13 85.5t20 119q14 78 24.5 128t19.5 82t17.5 51t19.5 36
q11 18 24 30t29 19.5t37 10.5t49 3q35 0 59 -5.5t38.5 -19t20.5 -36.5t6 -57q0 -61 -17 -126h-105q6 21 9 45t3 44t-9 26.5t-27 6.5t-27 -6t-16 -22q-4 -9 -8 -21t-9.5 -37t-13.5 -66.5t-20 -109.5q-10 -58 -16.5 -96.5t-10.5 -64t-5.5 -40.5t-1.5 -24q0 -24 7 -34t30 -10
q20 0 30 6.5t17 23.5q4 9 8.5 23t8 30l7 32t5.5 30l9 51h-66zM232 812l21 118h95l-21 -118h-95z" />
    <glyph glyph-name="Gcommaaccent" unicode="&#x122;" horiz-adv-x="395" 
d="M3 0zM178 313l21 119h167q-3 -19 -8.5 -53.5t-13.5 -82.5q-11 -60 -20 -100.5t-17.5 -68t-16.5 -45.5t-17 -33q-21 -35 -52.5 -48.5t-86.5 -13.5q-35 0 -59 5.5t-38.5 19t-20.5 36t-6 57.5q0 17 2 41t7 59.5t13 85.5t20 119q14 78 24.5 128t19.5 82t17.5 51t19.5 36
q11 18 24 30t29 19.5t37 10.5t49 3q35 0 59 -5.5t38.5 -19t20.5 -36.5t6 -57q0 -61 -17 -126h-105q6 21 9 45t3 44t-9 26.5t-27 6.5t-27 -6t-16 -22q-4 -9 -8 -21t-9.5 -37t-13.5 -66.5t-20 -109.5q-10 -58 -16.5 -96.5t-10.5 -64t-5.5 -40.5t-1.5 -24q0 -24 7 -34t30 -10
q20 0 30 6.5t17 23.5q4 9 8.5 23t8 30l7 32t5.5 30l9 51h-66zM3 -238v5l82 192h98l-1 -6l-98 -191h-81z" />
    <glyph glyph-name="gcommaaccent" unicode="&#x123;" horiz-adv-x="395" 
d="M3 0zM178 313l21 119h167q-3 -19 -8.5 -53.5t-13.5 -82.5q-11 -60 -20 -100.5t-17.5 -68t-16.5 -45.5t-17 -33q-21 -35 -52.5 -48.5t-86.5 -13.5q-35 0 -59 5.5t-38.5 19t-20.5 36t-6 57.5q0 17 2 41t7 59.5t13 85.5t20 119q14 78 24.5 128t19.5 82t17.5 51t19.5 36
q11 18 24 30t29 19.5t37 10.5t49 3q35 0 59 -5.5t38.5 -19t20.5 -36.5t6 -57q0 -61 -17 -126h-105q6 21 9 45t3 44t-9 26.5t-27 6.5t-27 -6t-16 -22q-4 -9 -8 -21t-9.5 -37t-13.5 -66.5t-20 -109.5q-10 -58 -16.5 -96.5t-10.5 -64t-5.5 -40.5t-1.5 -24q0 -24 7 -34t30 -10
q20 0 30 6.5t17 23.5q4 9 8.5 23t8 30l7 32t5.5 30l9 51h-66zM3 -238v5l82 192h98l-1 -6l-98 -191h-81z" />
    <glyph glyph-name="Hbar" unicode="&#x126;" horiz-adv-x="422" 
d="M197 0l55 315h-96l-55 -315h-113l133 757h113l-21 -117h96l21 117h112l-133 -757h-112zM295 556h-96l-22 -122h96z" />
    <glyph glyph-name="hbar" unicode="&#x127;" horiz-adv-x="422" 
d="M0 0zM197 0l55 315h-96l-55 -315h-113l133 757h113l-21 -117h96l21 117h112l-133 -757h-112zM295 556h-96l-22 -122h96z" />
    <glyph glyph-name="Imacron" unicode="&#x12a;" horiz-adv-x="265" 
d="M13 0zM13 0l133 757h114l-133 -757h-114zM69 834l15 84h297l-15 -84h-297z" />
    <glyph glyph-name="imacron" unicode="&#x12b;" horiz-adv-x="265" 
d="M13 0zM13 0l133 757h114l-133 -757h-114zM69 834l15 84h297l-15 -84h-297z" />
    <glyph glyph-name="Ibreve" unicode="&#x12c;" horiz-adv-x="220" 
d="M0 0zM-9 0l133 757h114l-133 -757h-114zM343 962q-9 -52 -16.5 -79t-15.5 -42q-9 -17 -20 -27t-25.5 -15.5t-33.5 -7.5t-45 -2q-60 0 -84 14t-24 58q0 16 3 39.5t9 61.5h73q-5 -28 -7 -44.5t-2 -28.5q0 -16 8 -21t37 -5q25 0 37.5 6.5t19.5 31.5q2 9 5 23.5t7 37.5h74z
" />
    <glyph glyph-name="ibreve" unicode="&#x12d;" horiz-adv-x="220" 
d="M0 0zM-9 0l133 757h114l-133 -757h-114zM343 962q-9 -52 -16.5 -79t-15.5 -42q-9 -17 -20 -27t-25.5 -15.5t-33.5 -7.5t-45 -2q-60 0 -84 14t-24 58q0 16 3 39.5t9 61.5h73q-5 -28 -7 -44.5t-2 -28.5q0 -16 8 -21t37 -5q25 0 37.5 6.5t19.5 31.5q2 9 5 23.5t7 37.5h74z
" />
    <glyph glyph-name="Iogonek" unicode="&#x12e;" horiz-adv-x="220" 
d="M67 -206q-8 -10 -32.5 -21t-64.5 -11q-89 0 -89 76q0 21 5 42.5t17.5 40.5t33 35t51.5 27l136 774h114l-133 -757q-24 -9 -44 -18t-35 -21t-23 -27.5t-8 -38.5q0 -37 40 -37q14 0 24 3t18 7h3z" />
    <glyph glyph-name="iogonek" unicode="&#x12f;" horiz-adv-x="220" 
d="M0 0zM67 -206q-8 -10 -32.5 -21t-64.5 -11q-89 0 -89 76q0 21 5 42.5t17.5 40.5t33 35t51.5 27l136 774h114l-133 -757q-24 -9 -44 -18t-35 -21t-23 -27.5t-8 -38.5q0 -37 40 -37q14 0 24 3t18 7h3z" />
    <glyph glyph-name="Idotaccent" unicode="&#x130;" horiz-adv-x="220" 
d="M0 0zM-9 0l133 757h114l-133 -757h-114zM143 812l21 118h95l-21 -118h-95z" />
    <glyph glyph-name="dotlessi" unicode="&#x131;" horiz-adv-x="220" 
d="M0 0zM-9 0l133 757h114l-133 -757h-114z" />
    <glyph glyph-name="IJ" unicode="&#x132;" horiz-adv-x="566" 
d="M0 0zM-9 0l133 757h114l-133 -757h-114zM477 757h113l-65 -367q-15 -86 -26.5 -143.5t-21.5 -96t-19.5 -62t-21.5 -41.5q-10 -16 -22 -27t-28.5 -18.5t-38.5 -11t-52 -3.5q-62 0 -91 23.5t-29 89.5q0 47 8 96t19 94h99q-9 -39 -13.5 -69.5t-4.5 -56.5q0 -23 4.5 -34.5
t27.5 -11.5q20 0 29 5.5t15 19.5q4 10 8.5 24t10.5 40t14 69t20 111z" />
    <glyph glyph-name="ij" unicode="&#x133;" horiz-adv-x="566" 
d="M0 0zM-9 0l133 757h114l-133 -757h-114zM477 757h113l-65 -367q-15 -86 -26.5 -143.5t-21.5 -96t-19.5 -62t-21.5 -41.5q-10 -16 -22 -27t-28.5 -18.5t-38.5 -11t-52 -3.5q-62 0 -91 23.5t-29 89.5q0 47 8 96t19 94h99q-9 -39 -13.5 -69.5t-4.5 -56.5q0 -23 4.5 -34.5
t27.5 -11.5q20 0 29 5.5t15 19.5q4 10 8.5 24t10.5 40t14 69t20 111z" />
    <glyph glyph-name="Kcommaaccent" unicode="&#x136;" horiz-adv-x="424" 
d="M0 0zM208 0l-37 357h-8q0 -6 -0.5 -13t-2.5 -17.5t-5 -26.5t-7 -40l-45 -260h-113l133 757h113l-42 -236q-4 -23 -6.5 -37.5t-4.5 -24t-3.5 -15t-2.5 -10.5h8l152 323h119l-1 -5l-177 -355l51 -393v-4h-121zM15 -238v5l82 192h98l-1 -6l-98 -191h-81z" />
    <glyph glyph-name="kcommaaccent" unicode="&#x137;" horiz-adv-x="424" 
d="M0 0zM208 0l-37 357h-8q0 -6 -0.5 -13t-2.5 -17.5t-5 -26.5t-7 -40l-45 -260h-113l133 757h113l-42 -236q-4 -23 -6.5 -37.5t-4.5 -24t-3.5 -15t-2.5 -10.5h8l152 323h119l-1 -5l-177 -355l51 -393v-4h-121zM15 -238v5l82 192h98l-1 -6l-98 -191h-81z" />
    <glyph glyph-name="Lacute" unicode="&#x139;" horiz-adv-x="329" 
d="M0 0zM-10 0l133 757h110l-110 -626h134l-23 -131h-244zM180 789l1 4l102 169h104l-1 -6l-120 -167h-86z" />
    <glyph glyph-name="lacute" unicode="&#x13a;" horiz-adv-x="329" 
d="M0 0zM-10 0l133 757h110l-110 -626h134l-23 -131h-244zM180 789l1 4l102 169h104l-1 -6l-120 -167h-86z" />
    <glyph glyph-name="Lcommaaccent" unicode="&#x13b;" horiz-adv-x="329" 
d="M0 0zM-10 0l133 757h110l-110 -626h134l-23 -131h-244zM-26 -238v5l82 192h98l-1 -6l-98 -191h-81z" />
    <glyph glyph-name="lcommaaccent" unicode="&#x13c;" horiz-adv-x="329" 
d="M0 0zM-10 0l133 757h110l-110 -626h134l-23 -131h-244zM-26 -238v5l82 192h98l-1 -6l-98 -191h-81z" />
    <glyph glyph-name="Lcaron" unicode="&#x13d;" horiz-adv-x="339" 
d="M0 0zM-10 0l133 757h110l-110 -626h134l-23 -131h-244zM226 591v5l82 192h98l-1 -6l-98 -191h-81z" />
    <glyph glyph-name="lcaron" unicode="&#x13e;" horiz-adv-x="339" 
d="M0 0zM-10 0l133 757h110l-110 -626h134l-23 -131h-244zM226 591v5l82 192h98l-1 -6l-98 -191h-81z" />
    <glyph glyph-name="Ldot" unicode="&#x13f;" horiz-adv-x="342" 
d="M0 0zM-10 0l133 757h110l-110 -626h134l-23 -131h-244zM206 339l21 118h95l-21 -118h-95z" />
    <glyph glyph-name="ldot" unicode="&#x140;" horiz-adv-x="342" 
d="M0 0zM-10 0l133 757h110l-110 -626h134l-23 -131h-244zM206 339l21 118h95l-21 -118h-95z" />
    <glyph glyph-name="Lslash" unicode="&#x141;" horiz-adv-x="331" 
d="M-11 0l71 403l-25 -13h-4l19 108l29 17l43 242h110l-30 -171l100 59h4l-19 -107l-105 -62l-60 -345h134l-23 -131h-244z" />
    <glyph glyph-name="lslash" unicode="&#x142;" horiz-adv-x="331" 
d="M0 0zM-11 0l71 403l-25 -13h-4l19 108l29 17l43 242h110l-30 -171l100 59h4l-19 -107l-105 -62l-60 -345h134l-23 -131h-244z" />
    <glyph glyph-name="Nacute" unicode="&#x143;" horiz-adv-x="415" 
d="M0 0zM245 0l-68 472h-4l-83 -472h-101l133 757h115l35 -331h4l58 331h102l-133 -757h-58zM234 789l1 4l102 169h104l-1 -6l-120 -167h-86z" />
    <glyph glyph-name="nacute" unicode="&#x144;" horiz-adv-x="415" 
d="M0 0zM245 0l-68 472h-4l-83 -472h-101l133 757h115l35 -331h4l58 331h102l-133 -757h-58zM234 789l1 4l102 169h104l-1 -6l-120 -167h-86z" />
    <glyph glyph-name="Ncommaaccent" unicode="&#x145;" horiz-adv-x="415" 
d="M0 0zM245 0l-68 472h-4l-83 -472h-101l133 757h115l35 -331h4l58 331h102l-133 -757h-58zM20 -238v5l82 192h98l-1 -6l-98 -191h-81z" />
    <glyph glyph-name="ncommaaccent" unicode="&#x146;" horiz-adv-x="415" 
d="M0 0zM245 0l-68 472h-4l-83 -472h-101l133 757h115l35 -331h4l58 331h102l-133 -757h-58zM20 -238v5l82 192h98l-1 -6l-98 -191h-81z" />
    <glyph glyph-name="Ncaron" unicode="&#x147;" horiz-adv-x="415" 
d="M0 0zM245 0l-68 472h-4l-83 -472h-101l133 757h115l35 -331h4l58 331h102l-133 -757h-58zM248 789l-68 168v5h87l28 -80h8l56 80h90v-5l-127 -168h-74z" />
    <glyph glyph-name="ncaron" unicode="&#x148;" horiz-adv-x="415" 
d="M0 0zM245 0l-68 472h-4l-83 -472h-101l133 757h115l35 -331h4l58 331h102l-133 -757h-58zM248 789l-68 168v5h87l28 -80h8l56 80h90v-5l-127 -168h-74z" />
    <glyph glyph-name="Eng" unicode="&#x14a;" horiz-adv-x="415" 
d="M83 -130h6q13 -6 37 -6q15 0 25.5 3t17.5 11.5t12 23t9 37.5l34 197l-48 330h-4l-82 -466h-101l133 757h115l36 -323h4l57 323h102l-144 -818q-9 -49 -20.5 -83t-30 -55t-47 -30t-70.5 -9q-18 0 -34.5 4t-23.5 8z" />
    <glyph glyph-name="eng" unicode="&#x14b;" horiz-adv-x="415" 
d="M0 0zM83 -130h6q13 -6 37 -6q15 0 25.5 3t17.5 11.5t12 23t9 37.5l34 197l-48 330h-4l-82 -466h-101l133 757h115l36 -323h4l57 323h102l-144 -818q-9 -49 -20.5 -83t-30 -55t-47 -30t-70.5 -9q-18 0 -34.5 4t-23.5 8z" />
    <glyph glyph-name="Omacron" unicode="&#x14c;" 
d="M10 0zM273 49q-21 -35 -52.5 -48.5t-86.5 -13.5q-35 0 -58.5 5.5t-38 19t-21 36t-6.5 57.5q0 17 2 40.5t7.5 60t14 88.5t21.5 125q13 74 22.5 122t18.5 79t17.5 50.5t19.5 37.5q20 35 51.5 48.5t87.5 13.5q34 0 57.5 -5.5t38.5 -19t21.5 -36.5t6.5 -57q0 -17 -2 -40
t-6.5 -56.5t-12 -79.5t-18.5 -109q-15 -85 -26 -138.5t-20.5 -88t-18.5 -54.5t-19 -37zM199 143q4 10 8 22.5t9.5 37t13.5 67t20 111.5q10 60 17 99.5t10.5 65t5 40t1.5 23.5q0 23 -6 31t-27 8q-17 0 -26 -5.5t-16 -19.5q-4 -10 -8 -22t-9.5 -35.5t-13 -63.5t-18.5 -105
q-11 -62 -18 -103t-11 -67.5t-5.5 -41.5t-1.5 -25q0 -23 5.5 -32.5t27.5 -9.5q32 0 42 25zM135 834l15 84h297l-15 -84h-297z" />
    <glyph glyph-name="omacron" unicode="&#x14d;" 
d="M10 0zM273 49q-21 -35 -52.5 -48.5t-86.5 -13.5q-35 0 -58.5 5.5t-38 19t-21 36t-6.5 57.5q0 17 2 40.5t7.5 60t14 88.5t21.5 125q13 74 22.5 122t18.5 79t17.5 50.5t19.5 37.5q20 35 51.5 48.5t87.5 13.5q34 0 57.5 -5.5t38.5 -19t21.5 -36.5t6.5 -57q0 -17 -2 -40
t-6.5 -56.5t-12 -79.5t-18.5 -109q-15 -85 -26 -138.5t-20.5 -88t-18.5 -54.5t-19 -37zM199 143q4 10 8 22.5t9.5 37t13.5 67t20 111.5q10 60 17 99.5t10.5 65t5 40t1.5 23.5q0 23 -6 31t-27 8q-17 0 -26 -5.5t-16 -19.5q-4 -10 -8 -22t-9.5 -35.5t-13 -63.5t-18.5 -105
q-11 -62 -18 -103t-11 -67.5t-5.5 -41.5t-1.5 -25q0 -23 5.5 -32.5t27.5 -9.5q32 0 42 25zM135 834l15 84h297l-15 -84h-297z" />
    <glyph glyph-name="Obreve" unicode="&#x14e;" 
d="M10 0zM273 49q-21 -35 -52.5 -48.5t-86.5 -13.5q-35 0 -58.5 5.5t-38 19t-21 36t-6.5 57.5q0 17 2 40.5t7.5 60t14 88.5t21.5 125q13 74 22.5 122t18.5 79t17.5 50.5t19.5 37.5q20 35 51.5 48.5t87.5 13.5q34 0 57.5 -5.5t38.5 -19t21.5 -36.5t6.5 -57q0 -17 -2 -40
t-6.5 -56.5t-12 -79.5t-18.5 -109q-15 -85 -26 -138.5t-20.5 -88t-18.5 -54.5t-19 -37zM199 143q4 10 8 22.5t9.5 37t13.5 67t20 111.5q10 60 17 99.5t10.5 65t5 40t1.5 23.5q0 23 -6 31t-27 8q-17 0 -26 -5.5t-16 -19.5q-4 -10 -8 -22t-9.5 -35.5t-13 -63.5t-18.5 -105
q-11 -62 -18 -103t-11 -67.5t-5.5 -41.5t-1.5 -25q0 -23 5.5 -32.5t27.5 -9.5q32 0 42 25zM431 962q-9 -52 -16.5 -79t-15.5 -42q-9 -17 -20 -27t-25.5 -15.5t-33.5 -7.5t-45 -2q-60 0 -84 14t-24 58q0 16 3 39.5t9 61.5h73q-5 -28 -7 -44.5t-2 -28.5q0 -16 8 -21t37 -5
q25 0 37.5 6.5t19.5 31.5q2 9 5 23.5t7 37.5h74z" />
    <glyph glyph-name="obreve" unicode="&#x14f;" 
d="M10 0zM273 49q-21 -35 -52.5 -48.5t-86.5 -13.5q-35 0 -58.5 5.5t-38 19t-21 36t-6.5 57.5q0 17 2 40.5t7.5 60t14 88.5t21.5 125q13 74 22.5 122t18.5 79t17.5 50.5t19.5 37.5q20 35 51.5 48.5t87.5 13.5q34 0 57.5 -5.5t38.5 -19t21.5 -36.5t6.5 -57q0 -17 -2 -40
t-6.5 -56.5t-12 -79.5t-18.5 -109q-15 -85 -26 -138.5t-20.5 -88t-18.5 -54.5t-19 -37zM199 143q4 10 8 22.5t9.5 37t13.5 67t20 111.5q10 60 17 99.5t10.5 65t5 40t1.5 23.5q0 23 -6 31t-27 8q-17 0 -26 -5.5t-16 -19.5q-4 -10 -8 -22t-9.5 -35.5t-13 -63.5t-18.5 -105
q-11 -62 -18 -103t-11 -67.5t-5.5 -41.5t-1.5 -25q0 -23 5.5 -32.5t27.5 -9.5q32 0 42 25zM431 962q-9 -52 -16.5 -79t-15.5 -42q-9 -17 -20 -27t-25.5 -15.5t-33.5 -7.5t-45 -2q-60 0 -84 14t-24 58q0 16 3 39.5t9 61.5h73q-5 -28 -7 -44.5t-2 -28.5q0 -16 8 -21t37 -5
q25 0 37.5 6.5t19.5 31.5q2 9 5 23.5t7 37.5h74z" />
    <glyph glyph-name="Ohungarumlaut" unicode="&#x150;" 
d="M10 0zM273 49q-21 -35 -52.5 -48.5t-86.5 -13.5q-35 0 -58.5 5.5t-38 19t-21 36t-6.5 57.5q0 17 2 40.5t7.5 60t14 88.5t21.5 125q13 74 22.5 122t18.5 79t17.5 50.5t19.5 37.5q20 35 51.5 48.5t87.5 13.5q34 0 57.5 -5.5t38.5 -19t21.5 -36.5t6.5 -57q0 -17 -2 -40
t-6.5 -56.5t-12 -79.5t-18.5 -109q-15 -85 -26 -138.5t-20.5 -88t-18.5 -54.5t-19 -37zM199 143q4 10 8 22.5t9.5 37t13.5 67t20 111.5q10 60 17 99.5t10.5 65t5 40t1.5 23.5q0 23 -6 31t-27 8q-17 0 -26 -5.5t-16 -19.5q-4 -10 -8 -22t-9.5 -35.5t-13 -63.5t-18.5 -105
q-11 -62 -18 -103t-11 -67.5t-5.5 -41.5t-1.5 -25q0 -23 5.5 -32.5t27.5 -9.5q32 0 42 25zM295 789l1 4l102 169h103l-1 -6l-119 -167h-86zM145 789l1 4l102 169h104l-1 -6l-120 -167h-86z" />
    <glyph glyph-name="ohungarumlaut" unicode="&#x151;" 
d="M10 0zM273 49q-21 -35 -52.5 -48.5t-86.5 -13.5q-35 0 -58.5 5.5t-38 19t-21 36t-6.5 57.5q0 17 2 40.5t7.5 60t14 88.5t21.5 125q13 74 22.5 122t18.5 79t17.5 50.5t19.5 37.5q20 35 51.5 48.5t87.5 13.5q34 0 57.5 -5.5t38.5 -19t21.5 -36.5t6.5 -57q0 -17 -2 -40
t-6.5 -56.5t-12 -79.5t-18.5 -109q-15 -85 -26 -138.5t-20.5 -88t-18.5 -54.5t-19 -37zM199 143q4 10 8 22.5t9.5 37t13.5 67t20 111.5q10 60 17 99.5t10.5 65t5 40t1.5 23.5q0 23 -6 31t-27 8q-17 0 -26 -5.5t-16 -19.5q-4 -10 -8 -22t-9.5 -35.5t-13 -63.5t-18.5 -105
q-11 -62 -18 -103t-11 -67.5t-5.5 -41.5t-1.5 -25q0 -23 5.5 -32.5t27.5 -9.5q32 0 42 25zM295 789l1 4l102 169h103l-1 -6l-119 -167h-86zM145 789l1 4l102 169h104l-1 -6l-120 -167h-86z" />
    <glyph glyph-name="OE" unicode="&#x152;" horiz-adv-x="554" 
d="M136 0q-35 0 -58.5 5t-38 18t-21 35.5t-6.5 57.5q0 16 2 39t7 59t13.5 88t21.5 126q12 67 21 111t17.5 73.5t17 48.5t19.5 36q21 33 52 46.5t86 13.5h308l-22 -125h-147l-33 -186h144l-21 -119h-144l-34 -196h146l-23 -131h-307zM299 632h-48q-17 0 -26 -5t-15 -18
q-5 -9 -9 -21t-9 -34.5t-12 -59t-17 -94.5q-11 -60 -17.5 -99.5t-10 -65.5t-5 -41t-1.5 -24q0 -21 5 -30.5t28 -9.5h48z" />
    <glyph glyph-name="oe" unicode="&#x153;" horiz-adv-x="554" 
d="M12 0zM136 0q-35 0 -58.5 5t-38 18t-21 35.5t-6.5 57.5q0 16 2 39t7 59t13.5 88t21.5 126q12 67 21 111t17.5 73.5t17 48.5t19.5 36q21 33 52 46.5t86 13.5h308l-22 -125h-147l-33 -186h144l-21 -119h-144l-34 -196h146l-23 -131h-307zM299 632h-48q-17 0 -26 -5t-15 -18
q-5 -9 -9 -21t-9 -34.5t-12 -59t-17 -94.5q-11 -60 -17.5 -99.5t-10 -65.5t-5 -41t-1.5 -24q0 -21 5 -30.5t28 -9.5h48z" />
    <glyph glyph-name="Racute" unicode="&#x154;" horiz-adv-x="405" 
d="M0 0zM191 0q-1 5 -1.5 9.5t-0.5 11.5q0 18 3 53t6.5 73.5t6.5 72t3 48.5q0 25 -5.5 32t-18.5 7h-30l-54 -307h-110l133 757h175q58 0 82 -24t24 -80q0 -10 -0.5 -22t-3 -29t-6.5 -41t-10 -57q-8 -38 -16.5 -63t-18 -41t-20.5 -25t-23 -15l-1 -6q11 -11 15 -30t4 -49
q0 -31 -2.5 -66t-6 -69t-6 -65.5t-2.5 -55.5v-19h-116zM209 418q15 0 25 4t17.5 15.5t13 31.5t11.5 52q6 35 8 52.5t2 28.5q0 19 -7 26t-24 7h-44l-38 -217h36zM217 789l1 4l102 169h104l-1 -6l-120 -167h-86z" />
    <glyph glyph-name="racute" unicode="&#x155;" horiz-adv-x="405" 
d="M0 0zM191 0q-1 5 -1.5 9.5t-0.5 11.5q0 18 3 53t6.5 73.5t6.5 72t3 48.5q0 25 -5.5 32t-18.5 7h-30l-54 -307h-110l133 757h175q58 0 82 -24t24 -80q0 -10 -0.5 -22t-3 -29t-6.5 -41t-10 -57q-8 -38 -16.5 -63t-18 -41t-20.5 -25t-23 -15l-1 -6q11 -11 15 -30t4 -49
q0 -31 -2.5 -66t-6 -69t-6 -65.5t-2.5 -55.5v-19h-116zM209 418q15 0 25 4t17.5 15.5t13 31.5t11.5 52q6 35 8 52.5t2 28.5q0 19 -7 26t-24 7h-44l-38 -217h36zM217 789l1 4l102 169h104l-1 -6l-120 -167h-86z" />
    <glyph glyph-name="Rcommaaccent" unicode="&#x156;" horiz-adv-x="405" 
d="M0 0zM191 0q-1 5 -1.5 9.5t-0.5 11.5q0 18 3 53t6.5 73.5t6.5 72t3 48.5q0 25 -5.5 32t-18.5 7h-30l-54 -307h-110l133 757h175q58 0 82 -24t24 -80q0 -10 -0.5 -22t-3 -29t-6.5 -41t-10 -57q-8 -38 -16.5 -63t-18 -41t-20.5 -25t-23 -15l-1 -6q11 -11 15 -30t4 -49
q0 -31 -2.5 -66t-6 -69t-6 -65.5t-2.5 -55.5v-19h-116zM209 418q15 0 25 4t17.5 15.5t13 31.5t11.5 52q6 35 8 52.5t2 28.5q0 19 -7 26t-24 7h-44l-38 -217h36zM7 -238v5l82 192h98l-1 -6l-98 -191h-81z" />
    <glyph glyph-name="rcommaaccent" unicode="&#x157;" horiz-adv-x="405" 
d="M0 0zM191 0q-1 5 -1.5 9.5t-0.5 11.5q0 18 3 53t6.5 73.5t6.5 72t3 48.5q0 25 -5.5 32t-18.5 7h-30l-54 -307h-110l133 757h175q58 0 82 -24t24 -80q0 -10 -0.5 -22t-3 -29t-6.5 -41t-10 -57q-8 -38 -16.5 -63t-18 -41t-20.5 -25t-23 -15l-1 -6q11 -11 15 -30t4 -49
q0 -31 -2.5 -66t-6 -69t-6 -65.5t-2.5 -55.5v-19h-116zM209 418q15 0 25 4t17.5 15.5t13 31.5t11.5 52q6 35 8 52.5t2 28.5q0 19 -7 26t-24 7h-44l-38 -217h36zM7 -238v5l82 192h98l-1 -6l-98 -191h-81z" />
    <glyph glyph-name="Rcaron" unicode="&#x158;" horiz-adv-x="405" 
d="M0 0zM191 0q-1 5 -1.5 9.5t-0.5 11.5q0 18 3 53t6.5 73.5t6.5 72t3 48.5q0 25 -5.5 32t-18.5 7h-30l-54 -307h-110l133 757h175q58 0 82 -24t24 -80q0 -10 -0.5 -22t-3 -29t-6.5 -41t-10 -57q-8 -38 -16.5 -63t-18 -41t-20.5 -25t-23 -15l-1 -6q11 -11 15 -30t4 -49
q0 -31 -2.5 -66t-6 -69t-6 -65.5t-2.5 -55.5v-19h-116zM209 418q15 0 25 4t17.5 15.5t13 31.5t11.5 52q6 35 8 52.5t2 28.5q0 19 -7 26t-24 7h-44l-38 -217h36zM239 789l-68 168v5h87l28 -80h8l56 80h90v-5l-127 -168h-74z" />
    <glyph glyph-name="rcaron" unicode="&#x159;" horiz-adv-x="405" 
d="M0 0zM191 0q-1 5 -1.5 9.5t-0.5 11.5q0 18 3 53t6.5 73.5t6.5 72t3 48.5q0 25 -5.5 32t-18.5 7h-30l-54 -307h-110l133 757h175q58 0 82 -24t24 -80q0 -10 -0.5 -22t-3 -29t-6.5 -41t-10 -57q-8 -38 -16.5 -63t-18 -41t-20.5 -25t-23 -15l-1 -6q11 -11 15 -30t4 -49
q0 -31 -2.5 -66t-6 -69t-6 -65.5t-2.5 -55.5v-19h-116zM209 418q15 0 25 4t17.5 15.5t13 31.5t11.5 52q6 35 8 52.5t2 28.5q0 19 -7 26t-24 7h-44l-38 -217h36zM239 789l-68 168v5h87l28 -80h8l56 80h90v-5l-127 -168h-74z" />
    <glyph glyph-name="Sacute" unicode="&#x15a;" horiz-adv-x="372" 
d="M0 0zM254 522q5 23 10.5 49.5t5.5 48.5q0 19 -8 24.5t-28 5.5q-12 0 -20.5 -3t-14.5 -10.5t-10.5 -21.5t-8.5 -36q-7 -32 -9 -48.5t-2 -26.5q0 -9 2.5 -14.5t7.5 -12.5q9 -10 22.5 -20.5t28.5 -20t29.5 -19t24.5 -17.5q17 -16 26 -30.5t9 -45.5q0 -19 -3 -49t-15 -90
q-11 -57 -25.5 -95t-36 -61t-52 -32.5t-73.5 -9.5q-29 0 -50.5 4.5t-36 16t-21.5 31.5t-7 51q0 41 8 82t21 81h93q-6 -20 -11.5 -50t-5.5 -57q0 -23 8.5 -28.5t25.5 -5.5q13 0 23 3t17 13t13 28.5t12 49.5q6 30 7.5 42t1.5 19q0 12 -2.5 19t-8.5 15q-8 12 -23.5 24t-32.5 24
t-33.5 24t-26.5 24q-12 14 -16.5 26.5t-4.5 37.5q0 20 3.5 49.5t12.5 75.5q10 54 23.5 89.5t33.5 56.5t48.5 29.5t69.5 8.5q66 0 93 -21t27 -72q0 -16 -2.5 -35.5t-6.5 -40t-9 -41t-11 -38.5h-92zM208 789l1 4l102 169h104l-1 -6l-120 -167h-86z" />
    <glyph glyph-name="sacute" unicode="&#x15b;" horiz-adv-x="372" 
d="M0 0zM254 522q5 23 10.5 49.5t5.5 48.5q0 19 -8 24.5t-28 5.5q-12 0 -20.5 -3t-14.5 -10.5t-10.5 -21.5t-8.5 -36q-7 -32 -9 -48.5t-2 -26.5q0 -9 2.5 -14.5t7.5 -12.5q9 -10 22.5 -20.5t28.5 -20t29.5 -19t24.5 -17.5q17 -16 26 -30.5t9 -45.5q0 -19 -3 -49t-15 -90
q-11 -57 -25.5 -95t-36 -61t-52 -32.5t-73.5 -9.5q-29 0 -50.5 4.5t-36 16t-21.5 31.5t-7 51q0 41 8 82t21 81h93q-6 -20 -11.5 -50t-5.5 -57q0 -23 8.5 -28.5t25.5 -5.5q13 0 23 3t17 13t13 28.5t12 49.5q6 30 7.5 42t1.5 19q0 12 -2.5 19t-8.5 15q-8 12 -23.5 24t-32.5 24
t-33.5 24t-26.5 24q-12 14 -16.5 26.5t-4.5 37.5q0 20 3.5 49.5t12.5 75.5q10 54 23.5 89.5t33.5 56.5t48.5 29.5t69.5 8.5q66 0 93 -21t27 -72q0 -16 -2.5 -35.5t-6.5 -40t-9 -41t-11 -38.5h-92zM208 789l1 4l102 169h104l-1 -6l-120 -167h-86z" />
    <glyph glyph-name="Scedilla" unicode="&#x15e;" horiz-adv-x="372" 
d="M0 0zM254 522q5 23 10.5 49.5t5.5 48.5q0 19 -8 24.5t-28 5.5q-12 0 -20.5 -3t-14.5 -10.5t-10.5 -21.5t-8.5 -36q-7 -32 -9 -48.5t-2 -26.5q0 -9 2.5 -14.5t7.5 -12.5q9 -10 22.5 -20.5t28.5 -20t29.5 -19t24.5 -17.5q17 -16 26 -30.5t9 -45.5q0 -19 -3 -49t-15 -90
q-11 -57 -25.5 -95t-36 -61t-52 -32.5t-73.5 -9.5q-29 0 -50.5 4.5t-36 16t-21.5 31.5t-7 51q0 41 8 82t21 81h93q-6 -20 -11.5 -50t-5.5 -57q0 -23 8.5 -28.5t25.5 -5.5q13 0 23 3t17 13t13 28.5t12 49.5q6 30 7.5 42t1.5 19q0 12 -2.5 19t-8.5 15q-8 12 -23.5 24t-32.5 24
t-33.5 24t-26.5 24q-12 14 -16.5 26.5t-4.5 37.5q0 20 3.5 49.5t12.5 75.5q10 54 23.5 89.5t33.5 56.5t48.5 29.5t69.5 8.5q66 0 93 -21t27 -72q0 -16 -2.5 -35.5t-6.5 -40t-9 -41t-11 -38.5h-92zM-20 -238v5l82 192h98l-1 -6l-98 -191h-81z" />
    <glyph glyph-name="scedilla" unicode="&#x15f;" horiz-adv-x="372" 
d="M0 0zM254 522q5 23 10.5 49.5t5.5 48.5q0 19 -8 24.5t-28 5.5q-12 0 -20.5 -3t-14.5 -10.5t-10.5 -21.5t-8.5 -36q-7 -32 -9 -48.5t-2 -26.5q0 -9 2.5 -14.5t7.5 -12.5q9 -10 22.5 -20.5t28.5 -20t29.5 -19t24.5 -17.5q17 -16 26 -30.5t9 -45.5q0 -19 -3 -49t-15 -90
q-11 -57 -25.5 -95t-36 -61t-52 -32.5t-73.5 -9.5q-29 0 -50.5 4.5t-36 16t-21.5 31.5t-7 51q0 41 8 82t21 81h93q-6 -20 -11.5 -50t-5.5 -57q0 -23 8.5 -28.5t25.5 -5.5q13 0 23 3t17 13t13 28.5t12 49.5q6 30 7.5 42t1.5 19q0 12 -2.5 19t-8.5 15q-8 12 -23.5 24t-32.5 24
t-33.5 24t-26.5 24q-12 14 -16.5 26.5t-4.5 37.5q0 20 3.5 49.5t12.5 75.5q10 54 23.5 89.5t33.5 56.5t48.5 29.5t69.5 8.5q66 0 93 -21t27 -72q0 -16 -2.5 -35.5t-6.5 -40t-9 -41t-11 -38.5h-92zM-20 -238v5l82 192h98l-1 -6l-98 -191h-81z" />
    <glyph glyph-name="Scaron" unicode="&#x160;" horiz-adv-x="372" 
d="M0 0zM254 522q5 23 10.5 49.5t5.5 48.5q0 19 -8 24.5t-28 5.5q-12 0 -20.5 -3t-14.5 -10.5t-10.5 -21.5t-8.5 -36q-7 -32 -9 -48.5t-2 -26.5q0 -9 2.5 -14.5t7.5 -12.5q9 -10 22.5 -20.5t28.5 -20t29.5 -19t24.5 -17.5q17 -16 26 -30.5t9 -45.5q0 -19 -3 -49t-15 -90
q-11 -57 -25.5 -95t-36 -61t-52 -32.5t-73.5 -9.5q-29 0 -50.5 4.5t-36 16t-21.5 31.5t-7 51q0 41 8 82t21 81h93q-6 -20 -11.5 -50t-5.5 -57q0 -23 8.5 -28.5t25.5 -5.5q13 0 23 3t17 13t13 28.5t12 49.5q6 30 7.5 42t1.5 19q0 12 -2.5 19t-8.5 15q-8 12 -23.5 24t-32.5 24
t-33.5 24t-26.5 24q-12 14 -16.5 26.5t-4.5 37.5q0 20 3.5 49.5t12.5 75.5q10 54 23.5 89.5t33.5 56.5t48.5 29.5t69.5 8.5q66 0 93 -21t27 -72q0 -16 -2.5 -35.5t-6.5 -40t-9 -41t-11 -38.5h-92zM226 789l-68 168v5h87l28 -80h8l56 80h90v-5l-127 -168h-74z" />
    <glyph glyph-name="scaron" unicode="&#x161;" horiz-adv-x="372" 
d="M0 0zM254 522q5 23 10.5 49.5t5.5 48.5q0 19 -8 24.5t-28 5.5q-12 0 -20.5 -3t-14.5 -10.5t-10.5 -21.5t-8.5 -36q-7 -32 -9 -48.5t-2 -26.5q0 -9 2.5 -14.5t7.5 -12.5q9 -10 22.5 -20.5t28.5 -20t29.5 -19t24.5 -17.5q17 -16 26 -30.5t9 -45.5q0 -19 -3 -49t-15 -90
q-11 -57 -25.5 -95t-36 -61t-52 -32.5t-73.5 -9.5q-29 0 -50.5 4.5t-36 16t-21.5 31.5t-7 51q0 41 8 82t21 81h93q-6 -20 -11.5 -50t-5.5 -57q0 -23 8.5 -28.5t25.5 -5.5q13 0 23 3t17 13t13 28.5t12 49.5q6 30 7.5 42t1.5 19q0 12 -2.5 19t-8.5 15q-8 12 -23.5 24t-32.5 24
t-33.5 24t-26.5 24q-12 14 -16.5 26.5t-4.5 37.5q0 20 3.5 49.5t12.5 75.5q10 54 23.5 89.5t33.5 56.5t48.5 29.5t69.5 8.5q66 0 93 -21t27 -72q0 -16 -2.5 -35.5t-6.5 -40t-9 -41t-11 -38.5h-92zM226 789l-68 168v5h87l28 -80h8l56 80h90v-5l-127 -168h-74z" />
    <glyph glyph-name="uni0162" unicode="&#x162;" horiz-adv-x="368" 
d="M0 0zM67 0l111 632h-96l22 125h302l-22 -125h-95l-111 -632h-111zM-19 -238v5l82 192h98l-1 -6l-98 -191h-81z" />
    <glyph glyph-name="uni0163" unicode="&#x163;" horiz-adv-x="368" 
d="M0 0zM67 0l111 632h-96l22 125h302l-22 -125h-95l-111 -632h-111zM-19 -238v5l82 192h98l-1 -6l-98 -191h-81z" />
    <glyph glyph-name="Tcaron" unicode="&#x164;" horiz-adv-x="368" 
d="M67 0zM67 0l111 632h-96l22 125h302l-22 -125h-95l-111 -632h-111zM224 789l-68 168v5h87l28 -80h8l56 80h90v-5l-127 -168h-74z" />
    <glyph glyph-name="tcaron" unicode="&#x165;" horiz-adv-x="368" 
d="M67 0zM67 0l111 632h-96l22 125h302l-22 -125h-95l-111 -632h-111zM224 789l-68 168v5h87l28 -80h8l56 80h90v-5l-127 -168h-74z" />
    <glyph glyph-name="Tbar" unicode="&#x166;" horiz-adv-x="368" 
d="M67 0l72 411h-69l17 98h69l22 123h-96l22 125h302l-22 -125h-95l-22 -123h67l-17 -98h-67l-72 -411h-111z" />
    <glyph glyph-name="tbar" unicode="&#x167;" horiz-adv-x="368" 
d="M67 0zM67 0l72 411h-69l17 98h69l22 123h-96l22 125h302l-22 -125h-95l-22 -123h67l-17 -98h-67l-72 -411h-111z" />
    <glyph glyph-name="Utilde" unicode="&#x168;" horiz-adv-x="405" 
d="M7 0zM320 757h110l-95 -536q-8 -42 -14 -70.5t-13 -48.5t-14 -34t-16 -27q-20 -31 -52 -42.5t-88 -11.5q-74 0 -102.5 23.5t-28.5 85.5q0 20 3.5 49.5t11.5 75.5l95 536h114l-95 -536q-6 -33 -8 -49t-2 -25q0 -17 7 -23t30 -6q17 0 25.5 3t14.5 13q3 5 5.5 11t5 16t5 24
t6.5 36zM444 858q-21 -28 -44 -40t-51 -12q-20 0 -37 6t-32 17q-17 12 -31 17.5t-33 5.5q-23 0 -43 -12.5t-41 -38.5h-4l16 89q14 20 36 34.5t49 14.5q43 0 76 -21q22 -14 35 -19t29 -5q22 0 43.5 11.5t41.5 38.5h5z" />
    <glyph glyph-name="utilde" unicode="&#x169;" horiz-adv-x="405" 
d="M7 0zM320 757h110l-95 -536q-8 -42 -14 -70.5t-13 -48.5t-14 -34t-16 -27q-20 -31 -52 -42.5t-88 -11.5q-74 0 -102.5 23.5t-28.5 85.5q0 20 3.5 49.5t11.5 75.5l95 536h114l-95 -536q-6 -33 -8 -49t-2 -25q0 -17 7 -23t30 -6q17 0 25.5 3t14.5 13q3 5 5.5 11t5 16t5 24
t6.5 36zM444 858q-21 -28 -44 -40t-51 -12q-20 0 -37 6t-32 17q-17 12 -31 17.5t-33 5.5q-23 0 -43 -12.5t-41 -38.5h-4l16 89q14 20 36 34.5t49 14.5q43 0 76 -21q22 -14 35 -19t29 -5q22 0 43.5 11.5t41.5 38.5h5z" />
    <glyph glyph-name="Umacron" unicode="&#x16a;" horiz-adv-x="405" 
d="M7 0zM320 757h110l-95 -536q-8 -42 -14 -70.5t-13 -48.5t-14 -34t-16 -27q-20 -31 -52 -42.5t-88 -11.5q-74 0 -102.5 23.5t-28.5 85.5q0 20 3.5 49.5t11.5 75.5l95 536h114l-95 -536q-6 -33 -8 -49t-2 -25q0 -17 7 -23t30 -6q17 0 25.5 3t14.5 13q3 5 5.5 11t5 16t5 24
t6.5 36zM138 834l15 84h297l-15 -84h-297z" />
    <glyph glyph-name="umacron" unicode="&#x16b;" horiz-adv-x="405" 
d="M7 0zM320 757h110l-95 -536q-8 -42 -14 -70.5t-13 -48.5t-14 -34t-16 -27q-20 -31 -52 -42.5t-88 -11.5q-74 0 -102.5 23.5t-28.5 85.5q0 20 3.5 49.5t11.5 75.5l95 536h114l-95 -536q-6 -33 -8 -49t-2 -25q0 -17 7 -23t30 -6q17 0 25.5 3t14.5 13q3 5 5.5 11t5 16t5 24
t6.5 36zM138 834l15 84h297l-15 -84h-297z" />
    <glyph glyph-name="Ubreve" unicode="&#x16c;" horiz-adv-x="405" 
d="M7 0zM320 757h110l-95 -536q-8 -42 -14 -70.5t-13 -48.5t-14 -34t-16 -27q-20 -31 -52 -42.5t-88 -11.5q-74 0 -102.5 23.5t-28.5 85.5q0 20 3.5 49.5t11.5 75.5l95 536h114l-95 -536q-6 -33 -8 -49t-2 -25q0 -17 7 -23t30 -6q17 0 25.5 3t14.5 13q3 5 5.5 11t5 16t5 24
t6.5 36zM434 962q-9 -52 -16.5 -79t-15.5 -42q-9 -17 -20 -27t-25.5 -15.5t-33.5 -7.5t-45 -2q-60 0 -84 14t-24 58q0 16 3 39.5t9 61.5h73q-5 -28 -7 -44.5t-2 -28.5q0 -16 8 -21t37 -5q25 0 37.5 6.5t19.5 31.5q2 9 5 23.5t7 37.5h74z" />
    <glyph glyph-name="ubreve" unicode="&#x16d;" horiz-adv-x="405" 
d="M7 0zM320 757h110l-95 -536q-8 -42 -14 -70.5t-13 -48.5t-14 -34t-16 -27q-20 -31 -52 -42.5t-88 -11.5q-74 0 -102.5 23.5t-28.5 85.5q0 20 3.5 49.5t11.5 75.5l95 536h114l-95 -536q-6 -33 -8 -49t-2 -25q0 -17 7 -23t30 -6q17 0 25.5 3t14.5 13q3 5 5.5 11t5 16t5 24
t6.5 36zM434 962q-9 -52 -16.5 -79t-15.5 -42q-9 -17 -20 -27t-25.5 -15.5t-33.5 -7.5t-45 -2q-60 0 -84 14t-24 58q0 16 3 39.5t9 61.5h73q-5 -28 -7 -44.5t-2 -28.5q0 -16 8 -21t37 -5q25 0 37.5 6.5t19.5 31.5q2 9 5 23.5t7 37.5h74z" />
    <glyph glyph-name="Uring" unicode="&#x16e;" horiz-adv-x="405" 
d="M7 0zM320 757h110l-95 -536q-8 -42 -14 -70.5t-13 -48.5t-14 -34t-16 -27q-20 -31 -52 -42.5t-88 -11.5q-74 0 -102.5 23.5t-28.5 85.5q0 20 3.5 49.5t11.5 75.5l95 536h114l-95 -536q-6 -33 -8 -49t-2 -25q0 -17 7 -23t30 -6q17 0 25.5 3t14.5 13q3 5 5.5 11t5 16t5 24
t6.5 36zM345 790q-8 -9 -23.5 -12t-44.5 -3q-34 0 -52 6t-18 32q0 8 2 23t7 44q6 34 11 46.5t15 20.5q9 8 24 11.5t44 3.5q36 0 53.5 -7.5t17.5 -34.5q0 -8 -1.5 -21.5t-5.5 -39.5q-3 -18 -6.5 -29.5t-7 -19t-7.5 -12t-8 -8.5zM311 829q5 3 6.5 8.5t5.5 26.5q6 31 6 37
q0 14 -27 14q-12 0 -17.5 -1t-8.5 -4q-4 -3 -5.5 -8.5t-6.5 -26.5q-6 -30 -6 -38q0 -7 5.5 -9.5t22.5 -2.5q12 0 17 1t8 3z" />
    <glyph glyph-name="uring" unicode="&#x16f;" horiz-adv-x="405" 
d="M7 0zM320 757h110l-95 -536q-8 -42 -14 -70.5t-13 -48.5t-14 -34t-16 -27q-20 -31 -52 -42.5t-88 -11.5q-74 0 -102.5 23.5t-28.5 85.5q0 20 3.5 49.5t11.5 75.5l95 536h114l-95 -536q-6 -33 -8 -49t-2 -25q0 -17 7 -23t30 -6q17 0 25.5 3t14.5 13q3 5 5.5 11t5 16t5 24
t6.5 36zM345 790q-8 -9 -23.5 -12t-44.5 -3q-34 0 -52 6t-18 32q0 8 2 23t7 44q6 34 11 46.5t15 20.5q9 8 24 11.5t44 3.5q36 0 53.5 -7.5t17.5 -34.5q0 -8 -1.5 -21.5t-5.5 -39.5q-3 -18 -6.5 -29.5t-7 -19t-7.5 -12t-8 -8.5zM311 829q5 3 6.5 8.5t5.5 26.5q6 31 6 37
q0 14 -27 14q-12 0 -17.5 -1t-8.5 -4q-4 -3 -5.5 -8.5t-6.5 -26.5q-6 -30 -6 -38q0 -7 5.5 -9.5t22.5 -2.5q12 0 17 1t8 3z" />
    <glyph glyph-name="Uhungarumlaut" unicode="&#x170;" horiz-adv-x="405" 
d="M7 0zM320 757h110l-95 -536q-8 -42 -14 -70.5t-13 -48.5t-14 -34t-16 -27q-20 -31 -52 -42.5t-88 -11.5q-74 0 -102.5 23.5t-28.5 85.5q0 20 3.5 49.5t11.5 75.5l95 536h114l-95 -536q-6 -33 -8 -49t-2 -25q0 -17 7 -23t30 -6q17 0 25.5 3t14.5 13q3 5 5.5 11t5 16t5 24
t6.5 36zM299 789l1 4l102 169h103l-1 -6l-119 -167h-86zM149 789l1 4l102 169h104l-1 -6l-120 -167h-86z" />
    <glyph glyph-name="uhungarumlaut" unicode="&#x171;" horiz-adv-x="405" 
d="M7 0zM320 757h110l-95 -536q-8 -42 -14 -70.5t-13 -48.5t-14 -34t-16 -27q-20 -31 -52 -42.5t-88 -11.5q-74 0 -102.5 23.5t-28.5 85.5q0 20 3.5 49.5t11.5 75.5l95 536h114l-95 -536q-6 -33 -8 -49t-2 -25q0 -17 7 -23t30 -6q17 0 25.5 3t14.5 13q3 5 5.5 11t5 16t5 24
t6.5 36zM299 789l1 4l102 169h103l-1 -6l-119 -167h-86zM149 789l1 4l102 169h104l-1 -6l-120 -167h-86z" />
    <glyph glyph-name="Uogonek" unicode="&#x172;" horiz-adv-x="405" 
d="M320 757h110l-95 -536q-8 -42 -14 -70.5t-13 -48.5t-14 -34t-16 -27q-12 -18 -29.5 -29t-52.5 -23q-31 -11 -54.5 -31t-23.5 -63q0 -37 40 -37q14 0 23.5 3t17.5 7h4l-13 -74q-8 -10 -33 -21t-65 -11q-89 0 -89 76q0 22 5.5 44.5t19.5 42t37 35.5t59 27q-66 2 -91.5 26
t-25.5 83q0 20 3.5 49.5t11.5 75.5l95 536h114l-95 -536q-6 -33 -8 -49t-2 -25q0 -17 7 -23t30 -6q17 0 25.5 3t14.5 13q3 5 5.5 11t5 16t5 24t6.5 36z" />
    <glyph glyph-name="uogonek" unicode="&#x173;" horiz-adv-x="405" 
d="M3 0zM320 757h110l-95 -536q-8 -42 -14 -70.5t-13 -48.5t-14 -34t-16 -27q-12 -18 -29.5 -29t-52.5 -23q-31 -11 -54.5 -31t-23.5 -63q0 -37 40 -37q14 0 23.5 3t17.5 7h4l-13 -74q-8 -10 -33 -21t-65 -11q-89 0 -89 76q0 22 5.5 44.5t19.5 42t37 35.5t59 27
q-66 2 -91.5 26t-25.5 83q0 20 3.5 49.5t11.5 75.5l95 536h114l-95 -536q-6 -33 -8 -49t-2 -25q0 -17 7 -23t30 -6q17 0 25.5 3t14.5 13q3 5 5.5 11t5 16t5 24t6.5 36z" />
    <glyph glyph-name="Wcircumflex" unicode="&#x174;" horiz-adv-x="604" 
d="M31 0zM292 0q9 111 15.5 190t10.5 133t7 87.5t4.5 53.5t3 30.5t2.5 19.5h-8q-2 -9 -4.5 -19.5t-7.5 -30.5t-14 -53.5t-23.5 -87.5t-36.5 -133t-52 -190h-158l76 757h110q-15 -127 -25.5 -216.5t-18 -150.5t-11.5 -97.5t-6.5 -58t-4 -32t-2.5 -19.5h8q2 9 4.5 19.5t8.5 32
t16.5 58t28 97.5t43 150.5t61.5 216.5h110q-9 -127 -15 -216.5t-10 -150.5t-6.5 -97.5t-4.5 -58t-3 -32t-2 -19.5h9q2 8 4 19t7 32t13.5 58t23 98t35.5 150.5t51 216.5h107l-188 -757h-158zM429 789l-28 80h-8l-56 -80h-90l1 4l126 169h74l69 -169l-1 -4h-87z" />
    <glyph glyph-name="wcircumflex" unicode="&#x175;" horiz-adv-x="604" 
d="M31 0zM292 0q9 111 15.5 190t10.5 133t7 87.5t4.5 53.5t3 30.5t2.5 19.5h-8q-2 -9 -4.5 -19.5t-7.5 -30.5t-14 -53.5t-23.5 -87.5t-36.5 -133t-52 -190h-158l76 757h110q-15 -127 -25.5 -216.5t-18 -150.5t-11.5 -97.5t-6.5 -58t-4 -32t-2.5 -19.5h8q2 9 4.5 19.5t8.5 32
t16.5 58t28 97.5t43 150.5t61.5 216.5h110q-9 -127 -15 -216.5t-10 -150.5t-6.5 -97.5t-4.5 -58t-3 -32t-2 -19.5h9q2 8 4 19t7 32t13.5 58t23 98t35.5 150.5t51 216.5h107l-188 -757h-158zM429 789l-28 80h-8l-56 -80h-90l1 4l126 169h74l69 -169l-1 -4h-87z" />
    <glyph glyph-name="Ycircumflex" unicode="&#x176;" horiz-adv-x="391" 
d="M76 0zM76 0l55 311l-34 441l1 5h112q1 -63 2 -104t2 -69.5t1 -49.5v-45h7q2 9 6.5 22.5t15 41.5t29.5 76t49 128h112l-1 -5l-186 -455l-52 -297h-119zM320 789l-28 80h-8l-56 -80h-90l1 4l126 169h74l69 -169l-1 -4h-87z" />
    <glyph glyph-name="ycircumflex" unicode="&#x177;" horiz-adv-x="391" 
d="M76 0zM76 0l55 311l-34 441l1 5h112q1 -63 2 -104t2 -69.5t1 -49.5v-45h7q2 9 6.5 22.5t15 41.5t29.5 76t49 128h112l-1 -5l-186 -455l-52 -297h-119zM320 789l-28 80h-8l-56 -80h-90l1 4l126 169h74l69 -169l-1 -4h-87z" />
    <glyph glyph-name="Ydieresis" unicode="&#x178;" horiz-adv-x="391" 
d="M76 0zM76 0l55 311l-34 441l1 5h112q1 -63 2 -104t2 -69.5t1 -49.5v-45h7q2 9 6.5 22.5t15 41.5t29.5 76t49 128h112l-1 -5l-186 -455l-52 -297h-119zM308 812l21 118h95l-21 -118h-95zM149 812l21 118h95l-21 -118h-95z" />
    <glyph glyph-name="Zacute" unicode="&#x179;" horiz-adv-x="399" 
d="M0 0zM-19 0l24 141l255 482v8h-162l22 126h311l-12 -68l-293 -551l3 -7h187l-23 -131h-312zM229 789l1 4l102 169h104l-1 -6l-120 -167h-86z" />
    <glyph glyph-name="zacute" unicode="&#x17a;" horiz-adv-x="399" 
d="M0 0zM-19 0l24 141l255 482v8h-162l22 126h311l-12 -68l-293 -551l3 -7h187l-23 -131h-312zM229 789l1 4l102 169h104l-1 -6l-120 -167h-86z" />
    <glyph glyph-name="Zdotaccent" unicode="&#x17b;" horiz-adv-x="399" 
d="M0 0zM-19 0l24 141l255 482v8h-162l22 126h311l-12 -68l-293 -551l3 -7h187l-23 -131h-312zM239 812l21 118h95l-21 -118h-95z" />
    <glyph glyph-name="zdotaccent" unicode="&#x17c;" horiz-adv-x="399" 
d="M0 0zM-19 0l24 141l255 482v8h-162l22 126h311l-12 -68l-293 -551l3 -7h187l-23 -131h-312zM239 812l21 118h95l-21 -118h-95z" />
    <glyph glyph-name="Zcaron" unicode="&#x17d;" horiz-adv-x="399" 
d="M0 0zM-19 0l24 141l255 482v8h-162l22 126h311l-12 -68l-293 -551l3 -7h187l-23 -131h-312zM239 789l-68 168v5h87l28 -80h8l56 80h90v-5l-127 -168h-74z" />
    <glyph glyph-name="zcaron" unicode="&#x17e;" horiz-adv-x="399" 
d="M0 0zM-19 0l24 141l255 482v8h-162l22 126h311l-12 -68l-293 -551l3 -7h187l-23 -131h-312zM239 789l-68 168v5h87l28 -80h8l56 80h90v-5l-127 -168h-74z" />
    <glyph glyph-name="florin" unicode="&#x192;" 
d="M-41 -130h4q7 -2 16.5 -4t21.5 -2q16 0 26.5 3t17.5 11.5t11.5 23.5t8.5 38l92 522h-47l17 98h47l14 80q7 39 17.5 69t29.5 50.5t49.5 31t77.5 10.5q6 0 14.5 -1t17.5 -2.5t16.5 -4t10.5 -4.5l-17 -97h-4q-8 3 -17.5 5t-22.5 2q-16 0 -26.5 -3t-17.5 -11.5t-11.5 -23.5
t-8.5 -38l-11 -63h92l-17 -98h-92l-89 -505q-9 -50 -19 -86.5t-28.5 -60.5t-49.5 -36t-82 -12q-6 0 -14.5 1t-17.5 2.5t-16.5 3.5t-9.5 5z" />
    <glyph glyph-name="Scommaaccent" unicode="&#x218;" horiz-adv-x="372" 
d="M0 0zM254 522q5 23 10.5 49.5t5.5 48.5q0 19 -8 24.5t-28 5.5q-12 0 -20.5 -3t-14.5 -10.5t-10.5 -21.5t-8.5 -36q-7 -32 -9 -48.5t-2 -26.5q0 -9 2.5 -14.5t7.5 -12.5q9 -10 22.5 -20.5t28.5 -20t29.5 -19t24.5 -17.5q17 -16 26 -30.5t9 -45.5q0 -19 -3 -49t-15 -90
q-11 -57 -25.5 -95t-36 -61t-52 -32.5t-73.5 -9.5q-29 0 -50.5 4.5t-36 16t-21.5 31.5t-7 51q0 41 8 82t21 81h93q-6 -20 -11.5 -50t-5.5 -57q0 -23 8.5 -28.5t25.5 -5.5q13 0 23 3t17 13t13 28.5t12 49.5q6 30 7.5 42t1.5 19q0 12 -2.5 19t-8.5 15q-8 12 -23.5 24t-32.5 24
t-33.5 24t-26.5 24q-12 14 -16.5 26.5t-4.5 37.5q0 20 3.5 49.5t12.5 75.5q10 54 23.5 89.5t33.5 56.5t48.5 29.5t69.5 8.5q66 0 93 -21t27 -72q0 -16 -2.5 -35.5t-6.5 -40t-9 -41t-11 -38.5h-92zM-20 -238v5l82 192h98l-1 -6l-98 -191h-81z" />
    <glyph glyph-name="scommaaccent" unicode="&#x219;" horiz-adv-x="372" 
d="M0 0zM254 522q5 23 10.5 49.5t5.5 48.5q0 19 -8 24.5t-28 5.5q-12 0 -20.5 -3t-14.5 -10.5t-10.5 -21.5t-8.5 -36q-7 -32 -9 -48.5t-2 -26.5q0 -9 2.5 -14.5t7.5 -12.5q9 -10 22.5 -20.5t28.5 -20t29.5 -19t24.5 -17.5q17 -16 26 -30.5t9 -45.5q0 -19 -3 -49t-15 -90
q-11 -57 -25.5 -95t-36 -61t-52 -32.5t-73.5 -9.5q-29 0 -50.5 4.5t-36 16t-21.5 31.5t-7 51q0 41 8 82t21 81h93q-6 -20 -11.5 -50t-5.5 -57q0 -23 8.5 -28.5t25.5 -5.5q13 0 23 3t17 13t13 28.5t12 49.5q6 30 7.5 42t1.5 19q0 12 -2.5 19t-8.5 15q-8 12 -23.5 24t-32.5 24
t-33.5 24t-26.5 24q-12 14 -16.5 26.5t-4.5 37.5q0 20 3.5 49.5t12.5 75.5q10 54 23.5 89.5t33.5 56.5t48.5 29.5t69.5 8.5q66 0 93 -21t27 -72q0 -16 -2.5 -35.5t-6.5 -40t-9 -41t-11 -38.5h-92zM-20 -238v5l82 192h98l-1 -6l-98 -191h-81z" />
    <glyph glyph-name="uni021A" unicode="&#x21a;" horiz-adv-x="368" 
d="M0 0zM67 0l111 632h-96l22 125h302l-22 -125h-95l-111 -632h-111zM-19 -238v5l82 192h98l-1 -6l-98 -191h-81z" />
    <glyph glyph-name="uni021B" unicode="&#x21b;" horiz-adv-x="368" 
d="M0 0zM67 0l111 632h-96l22 125h302l-22 -125h-95l-111 -632h-111zM-19 -238v5l82 192h98l-1 -6l-98 -191h-81z" />
    <glyph glyph-name="circumflex" unicode="&#x2c6;" horiz-adv-x="373" 
d="M276 592l-28 80h-8l-56 -80h-90l1 4l126 169h74l69 -169l-1 -4h-87z" />
    <glyph glyph-name="caron" unicode="&#x2c7;" horiz-adv-x="373" 
d="M192 592l-68 168v5h87l28 -80h8l56 80h90v-5l-127 -168h-74z" />
    <glyph glyph-name="breve" unicode="&#x2d8;" horiz-adv-x="355" 
d="M376 765q-9 -52 -16.5 -79t-15.5 -42q-9 -17 -20 -27t-25.5 -15.5t-33.5 -7.5t-45 -2q-60 0 -84 14t-24 58q0 16 3 39.5t9 61.5h73q-5 -28 -7 -44.5t-2 -28.5q0 -16 8 -21t37 -5q25 0 37.5 6.5t19.5 31.5q2 9 5 23.5t7 37.5h74z" />
    <glyph glyph-name="dotaccent" unicode="&#x2d9;" horiz-adv-x="200" 
d="M98 615l21 118h95l-21 -118h-95z" />
    <glyph glyph-name="ring" unicode="&#x2da;" horiz-adv-x="264" 
d="M239 593q-8 -9 -23.5 -12t-44.5 -3q-34 0 -52 6t-18 32q0 8 2 23t7 44q6 34 11 46.5t15 20.5q9 8 24 11.5t44 3.5q36 0 53.5 -7.5t17.5 -34.5q0 -8 -1.5 -21.5t-5.5 -39.5q-3 -18 -6.5 -29.5t-7 -19t-7.5 -12t-8 -8.5zM205 632q5 3 6.5 8.5t5.5 26.5q6 31 6 37
q0 14 -27 14q-12 0 -17.5 -1t-8.5 -4q-4 -3 -5.5 -8.5t-6.5 -26.5q-6 -30 -6 -38q0 -7 5.5 -9.5t22.5 -2.5q12 0 17 1t8 3z" />
    <glyph glyph-name="ogonek" unicode="&#x2db;" horiz-adv-x="302" 
d="M150 -206q-8 -10 -33 -21t-65 -11q-89 0 -89 77q0 27 8 52.5t28.5 47t55.5 37.5t88 24h45q-24 -9 -44.5 -18.5t-35 -21t-22.5 -27.5t-8 -38q0 -37 40 -37q14 0 23.5 3t17.5 7h4z" />
    <glyph glyph-name="tilde" unicode="&#x2dc;" horiz-adv-x="410" 
d="M412 661q-21 -28 -44 -40t-51 -12q-20 0 -37 6t-32 17q-17 12 -31 17.5t-33 5.5q-23 0 -43 -12.5t-41 -38.5h-4l16 89q14 20 36 34.5t49 14.5q43 0 76 -21q22 -14 35 -19t29 -5q22 0 43.5 11.5t41.5 38.5h5z" />
    <glyph glyph-name="hungarumlaut" unicode="&#x2dd;" horiz-adv-x="430" 
d="M239 592l1 4l102 169h103l-1 -6l-119 -167h-86zM89 592l1 4l102 169h104l-1 -6l-120 -167h-86z" />
    <glyph glyph-name="Delta" unicode="&#x394;" 
d="M-28 0l254 757h93l-18 -757h-329zM219 502h-8l-117 -371h102z" />
    <glyph glyph-name="Omega" unicode="&#x3a9;" 
d="M154 0l20 117q12 15 25 43.5t26 72t27 104t28 141.5q10 58 14 86.5t4 48.5q0 21 -11 28t-37 7q-23 0 -34.5 -5.5t-19.5 -19.5q-8 -15 -14 -40.5t-16 -78.5q-20 -116 -29 -191.5t-9 -122.5q0 -52 10 -73l-20 -117h-135l23 131h52l2 6q-11 23 -17.5 46.5t-6.5 63.5
q0 43 7.5 108.5t24.5 159.5q10 55 17.5 93.5t15.5 64.5t17 42t21 26q19 17 49 23t83 6q30 0 55.5 -1t43.5 -9t28.5 -25t10.5 -50q0 -12 -1.5 -28t-5 -40.5t-9.5 -59.5t-15 -86q-14 -83 -27 -136.5t-26.5 -90t-29 -60.5t-34.5 -47l1 -6h50l-23 -131h-135z" />
    <glyph glyph-name="mu" unicode="&#x3bc;" 
d="M-53 -238l139 798h111l-72 -409q-4 -20 -4 -36q0 -17 7 -22t22 -5q14 0 25.5 7.5t19.5 18.5l78 446h111l-98 -560h-101v32q-17 -20 -39.5 -28.5t-47.5 -8.5l-41 -233h-110z" />
    <glyph glyph-name="pi" unicode="&#x3c0;" horiz-adv-x="477" 
d="M375 19q-8 -10 -33.5 -21t-67.5 -11t-63.5 17.5t-21.5 61.5q0 10 1 22.5t6 37.5l59 336h-73l-81 -462h-110l98 560h294l-73 -413q-3 -17 -3.5 -24.5t-0.5 -12.5q0 -17 8 -22.5t27 -5.5q14 0 24.5 3.5t17.5 8.5h5z" />
    <glyph glyph-name="Wgrave" unicode="&#x1e80;" horiz-adv-x="604" 
d="M31 0zM292 0q9 111 15.5 190t10.5 133t7 87.5t4.5 53.5t3 30.5t2.5 19.5h-8q-2 -9 -4.5 -19.5t-7.5 -30.5t-14 -53.5t-23.5 -87.5t-36.5 -133t-52 -190h-158l76 757h110q-15 -127 -25.5 -216.5t-18 -150.5t-11.5 -97.5t-6.5 -58t-4 -32t-2.5 -19.5h8q2 9 4.5 19.5t8.5 32
t16.5 58t28 97.5t43 150.5t61.5 216.5h110q-9 -127 -15 -216.5t-10 -150.5t-6.5 -97.5t-4.5 -58t-3 -32t-2 -19.5h9q2 8 4 19t7 32t13.5 58t23 98t35.5 150.5t51 216.5h107l-188 -757h-158zM354 789l-68 167l1 6h98l50 -169l-1 -4h-80z" />
    <glyph glyph-name="wgrave" unicode="&#x1e81;" horiz-adv-x="604" 
d="M31 0zM292 0q9 111 15.5 190t10.5 133t7 87.5t4.5 53.5t3 30.5t2.5 19.5h-8q-2 -9 -4.5 -19.5t-7.5 -30.5t-14 -53.5t-23.5 -87.5t-36.5 -133t-52 -190h-158l76 757h110q-15 -127 -25.5 -216.5t-18 -150.5t-11.5 -97.5t-6.5 -58t-4 -32t-2.5 -19.5h8q2 9 4.5 19.5t8.5 32
t16.5 58t28 97.5t43 150.5t61.5 216.5h110q-9 -127 -15 -216.5t-10 -150.5t-6.5 -97.5t-4.5 -58t-3 -32t-2 -19.5h9q2 8 4 19t7 32t13.5 58t23 98t35.5 150.5t51 216.5h107l-188 -757h-158zM354 789l-68 167l1 6h98l50 -169l-1 -4h-80z" />
    <glyph glyph-name="Wacute" unicode="&#x1e82;" horiz-adv-x="604" 
d="M31 0zM292 0q9 111 15.5 190t10.5 133t7 87.5t4.5 53.5t3 30.5t2.5 19.5h-8q-2 -9 -4.5 -19.5t-7.5 -30.5t-14 -53.5t-23.5 -87.5t-36.5 -133t-52 -190h-158l76 757h110q-15 -127 -25.5 -216.5t-18 -150.5t-11.5 -97.5t-6.5 -58t-4 -32t-2.5 -19.5h8q2 9 4.5 19.5t8.5 32
t16.5 58t28 97.5t43 150.5t61.5 216.5h110q-9 -127 -15 -216.5t-10 -150.5t-6.5 -97.5t-4.5 -58t-3 -32t-2 -19.5h9q2 8 4 19t7 32t13.5 58t23 98t35.5 150.5t51 216.5h107l-188 -757h-158zM325 789l1 4l102 169h104l-1 -6l-120 -167h-86z" />
    <glyph glyph-name="wacute" unicode="&#x1e83;" horiz-adv-x="604" 
d="M31 0zM292 0q9 111 15.5 190t10.5 133t7 87.5t4.5 53.5t3 30.5t2.5 19.5h-8q-2 -9 -4.5 -19.5t-7.5 -30.5t-14 -53.5t-23.5 -87.5t-36.5 -133t-52 -190h-158l76 757h110q-15 -127 -25.5 -216.5t-18 -150.5t-11.5 -97.5t-6.5 -58t-4 -32t-2.5 -19.5h8q2 9 4.5 19.5t8.5 32
t16.5 58t28 97.5t43 150.5t61.5 216.5h110q-9 -127 -15 -216.5t-10 -150.5t-6.5 -97.5t-4.5 -58t-3 -32t-2 -19.5h9q2 8 4 19t7 32t13.5 58t23 98t35.5 150.5t51 216.5h107l-188 -757h-158zM325 789l1 4l102 169h104l-1 -6l-120 -167h-86z" />
    <glyph glyph-name="Wdieresis" unicode="&#x1e84;" horiz-adv-x="604" 
d="M31 0zM292 0q9 111 15.5 190t10.5 133t7 87.5t4.5 53.5t3 30.5t2.5 19.5h-8q-2 -9 -4.5 -19.5t-7.5 -30.5t-14 -53.5t-23.5 -87.5t-36.5 -133t-52 -190h-158l76 757h110q-15 -127 -25.5 -216.5t-18 -150.5t-11.5 -97.5t-6.5 -58t-4 -32t-2.5 -19.5h8q2 9 4.5 19.5t8.5 32
t16.5 58t28 97.5t43 150.5t61.5 216.5h110q-9 -127 -15 -216.5t-10 -150.5t-6.5 -97.5t-4.5 -58t-3 -32t-2 -19.5h9q2 8 4 19t7 32t13.5 58t23 98t35.5 150.5t51 216.5h107l-188 -757h-158zM413 812l21 118h95l-21 -118h-95zM254 812l21 118h95l-21 -118h-95z" />
    <glyph glyph-name="wdieresis" unicode="&#x1e85;" horiz-adv-x="604" 
d="M31 0zM292 0q9 111 15.5 190t10.5 133t7 87.5t4.5 53.5t3 30.5t2.5 19.5h-8q-2 -9 -4.5 -19.5t-7.5 -30.5t-14 -53.5t-23.5 -87.5t-36.5 -133t-52 -190h-158l76 757h110q-15 -127 -25.5 -216.5t-18 -150.5t-11.5 -97.5t-6.5 -58t-4 -32t-2.5 -19.5h8q2 9 4.5 19.5t8.5 32
t16.5 58t28 97.5t43 150.5t61.5 216.5h110q-9 -127 -15 -216.5t-10 -150.5t-6.5 -97.5t-4.5 -58t-3 -32t-2 -19.5h9q2 8 4 19t7 32t13.5 58t23 98t35.5 150.5t51 216.5h107l-188 -757h-158zM413 812l21 118h95l-21 -118h-95zM254 812l21 118h95l-21 -118h-95z" />
    <glyph glyph-name="Ygrave" unicode="&#x1ef2;" horiz-adv-x="391" 
d="M76 0zM76 0l55 311l-34 441l1 5h112q1 -63 2 -104t2 -69.5t1 -49.5v-45h7q2 9 6.5 22.5t15 41.5t29.5 76t49 128h112l-1 -5l-186 -455l-52 -297h-119zM247 789l-68 167l1 6h98l50 -169l-1 -4h-80z" />
    <glyph glyph-name="ygrave" unicode="&#x1ef3;" horiz-adv-x="391" 
d="M76 0zM76 0l55 311l-34 441l1 5h112q1 -63 2 -104t2 -69.5t1 -49.5v-45h7q2 9 6.5 22.5t15 41.5t29.5 76t49 128h112l-1 -5l-186 -455l-52 -297h-119zM247 789l-68 167l1 6h98l50 -169l-1 -4h-80z" />
    <glyph glyph-name="endash" unicode="&#x2013;" horiz-adv-x="472" 
d="M37 332l17 98h390l-17 -98h-390z" />
    <glyph glyph-name="emdash" unicode="&#x2014;" horiz-adv-x="638" 
d="M37 332l17 98h555l-17 -98h-555z" />
    <glyph glyph-name="quoteleft" unicode="&#x2018;" horiz-adv-x="215" 
d="M79 507l24 135l79 146h53l-1 -6l-59 -139l1 -7h37l-23 -129h-111z" />
    <glyph glyph-name="quoteright" unicode="&#x2019;" horiz-adv-x="215" 
d="M83 507l1 5l59 139v8h-37l22 129h111l-23 -135l-80 -146h-53z" />
    <glyph glyph-name="quotesinglbase" unicode="&#x201a;" horiz-adv-x="215" 
d="M-32 -142l1 5l60 139l-1 8h-37l23 128h111l-24 -134l-80 -146h-53z" />
    <glyph glyph-name="quotedblleft" unicode="&#x201c;" horiz-adv-x="386" 
d="M79 507zM79 507l24 135l79 146h53l-1 -6l-59 -139l1 -7h37l-23 -129h-111zM250 507l24 135l79 146h53l-1 -6l-59 -139l1 -7h37l-23 -129h-111z" />
    <glyph glyph-name="quotedblright" unicode="&#x201d;" horiz-adv-x="386" 
d="M83 507zM83 507l1 5l59 139v8h-37l22 129h111l-23 -135l-80 -146h-53zM254 507l1 5l59 139v8h-37l22 129h111l-23 -135l-80 -146h-53z" />
    <glyph glyph-name="quotedblbase" unicode="&#x201e;" horiz-adv-x="386" 
d="M0 0zM-32 -142l1 5l60 139l-1 8h-37l23 128h111l-24 -134l-80 -146h-53zM139 -142l1 5l60 139l-1 8h-37l23 128h111l-24 -134l-80 -146h-53z" />
    <glyph glyph-name="dagger" unicode="&#x2020;" horiz-adv-x="417" 
d="M141 0l-2 137l67 384h-125l12 68h125l30 168h61l-30 -168h126l-12 -68h-126l-67 -384l-50 -137h-9z" />
    <glyph glyph-name="daggerdbl" unicode="&#x2021;" horiz-adv-x="417" 
d="M115 0l29 167h-125l12 68h125l10 55l36 88l-5 89l9 54h-125l12 68h125l30 168h61l-30 -168h126l-12 -68h-126l-9 -54l-38 -89l7 -88l-10 -55h126l-12 -68h-126l-29 -167h-61z" />
    <glyph glyph-name="bullet" unicode="&#x2022;" horiz-adv-x="308" 
d="M223 269q-13 -11 -32.5 -15.5t-56.5 -4.5q-35 0 -53.5 4.5t-25.5 15.5q-4 5 -6.5 12t-2.5 20q0 11 2.5 30.5t9.5 59.5q8 44 15 61t19 28q11 11 31 15t55 4q20 0 37 -0.5t29 -5.5t18.5 -15.5t6.5 -29.5q0 -11 -3 -31.5t-10 -61.5q-4 -21 -7.5 -35t-7 -23.5t-8 -15.5
t-10.5 -12z" />
    <glyph glyph-name="ellipsis" unicode="&#x2026;" horiz-adv-x="696" 
d="M0 0zM-1 0l24 138h110l-24 -138h-110zM231 0l24 138h110l-24 -138h-110zM463 0l24 138h110l-24 -138h-110z" />
    <glyph glyph-name="perthousand" unicode="&#x2030;" horiz-adv-x="706" 
d="M0 0zM201 364q-14 -15 -29 -19t-47 -4q-42 0 -58 10t-16 45q0 11 1.5 26t5 36.5t8.5 51t12 69.5q7 39 12 67t10.5 48.5t11 34t13.5 22.5q11 14 27.5 19t48.5 5q39 0 56.5 -10.5t17.5 -47.5q0 -11 -1.5 -26t-4.5 -36t-7.5 -49.5t-11.5 -65.5q-8 -41 -14 -70.5t-11.5 -50
t-11 -34t-12.5 -21.5zM154 431q3 5 5 12t5 20.5t7 35.5l10 55l10 55t6.5 36.5t3.5 23t1 13.5q0 9 -3 12t-12 3q-12 0 -17 -8q-2 -5 -4 -12.5t-5 -21.5t-7 -36t-10 -56q-6 -32 -9.5 -54t-6 -36t-3 -22.5t-0.5 -13.5q0 -9 3 -11.5t11 -2.5q6 0 9.5 1.5t5.5 6.5zM-10 0l1 4
l467 753h70l-1 -5l-468 -752h-69zM395 6q-14 -15 -29 -19t-47 -4q-42 0 -58 10t-16 45q0 11 1.5 26t5 36.5t8.5 51t12 69.5q7 39 12 67t10.5 48.5t11 34t13.5 22.5q11 14 27.5 19t48.5 5q39 0 56.5 -10.5t17.5 -47.5q0 -11 -1.5 -26t-4.5 -36t-7.5 -49.5t-11.5 -65.5
q-8 -41 -14 -70.5t-11.5 -50t-11 -34t-12.5 -21.5zM348 73q3 5 5 12t5 20.5t7 35.5l10 55l10 55t6.5 36.5t3.5 23t1 13.5q0 9 -3 12t-12 3q-12 0 -17 -8q-2 -5 -4 -12.5t-5 -21.5t-7 -36t-10 -56q-6 -32 -9.5 -54t-6 -36t-3 -22.5t-0.5 -13.5q0 -9 3 -11.5t11 -2.5
q6 0 9.5 1.5t5.5 6.5zM587 6q-14 -15 -29 -19t-47 -4q-42 0 -58 10t-16 45q0 11 1.5 26t5 36.5t8.5 51t12 69.5q7 39 12 67t10.5 48.5t11 34t13.5 22.5q11 14 27.5 19t48.5 5q39 0 56.5 -10.5t17.5 -47.5q0 -11 -1.5 -26t-4.5 -36t-7.5 -49.5t-11.5 -65.5q-8 -41 -14 -70.5
t-11.5 -50t-11 -34t-12.5 -21.5zM540 73q3 5 5 12t5 20.5t7 35.5l10 55l10 55t6.5 36.5t3.5 23t1 13.5q0 9 -3 12t-12 3q-12 0 -17 -8q-2 -5 -4 -12.5t-5 -21.5t-7 -36t-10 -56q-6 -32 -9.5 -54t-6 -36t-3 -22.5t-0.5 -13.5q0 -9 3 -11.5t11 -2.5q6 0 9.5 1.5t5.5 6.5z" />
    <glyph glyph-name="minute" unicode="&#x2032;" horiz-adv-x="251" 
d="M57 484l131 304h104l-160 -304h-75z" />
    <glyph glyph-name="second" unicode="&#x2033;" horiz-adv-x="422" 
d="M228 484l131 304h104l-160 -304h-75zM57 484l131 304h104l-160 -304h-75z" />
    <glyph glyph-name="guilsinglleft" unicode="&#x2039;" horiz-adv-x="241" 
d="M167 195l-129 145l15 80l179 147h4l-19 -108l-101 -79l-1 -9l73 -77l-17 -99h-4z" />
    <glyph glyph-name="guilsinglright" unicode="&#x203a;" horiz-adv-x="241" 
d="M82 567l129 -145l-15 -80l-179 -147h-4l19 108l101 79l1 9l-73 77l17 99h4z" />
    <glyph glyph-name="fraction" unicode="&#x2044;" horiz-adv-x="183" 
d="M-173 0l1 4l467 753h70l-1 -5l-468 -752h-69z" />
    <glyph glyph-name="zerosuperior" unicode="&#x2070;" horiz-adv-x="265" 
d="M56 341zM206 364q-14 -15 -29 -19t-47 -4q-42 0 -58 10t-16 45q0 11 1.5 26t5 36.5t8.5 51t12 69.5q7 39 12 67t10.5 48.5t11 34t13.5 22.5q11 14 27.5 19t48.5 5q39 0 56.5 -10.5t17.5 -47.5q0 -11 -1.5 -26t-4.5 -36t-7.5 -49.5t-11.5 -65.5q-8 -41 -14 -70.5
t-11.5 -50t-11 -34t-12.5 -21.5zM159 431q3 5 5 12t5 20.5t7 35.5l10 55l10 55t6.5 36.5t3.5 23t1 13.5q0 9 -3 12t-12 3q-12 0 -17 -8q-2 -5 -4 -12.5t-5 -21.5t-7 -36t-10 -56q-6 -32 -9.5 -54t-6 -36t-3 -22.5t-0.5 -13.5q0 -9 3 -11.5t11 -2.5q6 0 9.5 1.5t5.5 6.5z" />
    <glyph glyph-name="foursuperior" unicode="&#x2074;" horiz-adv-x="265" 
d="M50 348zM133 348l13 75h-96l13 75l144 269h67l-49 -273h24l-12 -71h-24l-13 -75h-67zM177 587h-3l-48 -93h34z" />
    <glyph glyph-name="fivesuperior" unicode="&#x2075;" horiz-adv-x="265" 
d="M58 341zM90 574l44 193h155l-14 -79h-95l-13 -53l3 -1q6 2 14.5 4.5t17.5 2.5q26 0 40.5 -12.5t14.5 -50.5q0 -12 -1.5 -30t-8.5 -55q-9 -47 -18 -77t-22.5 -46.5t-32.5 -22.5t-47 -6q-41 0 -55 15.5t-14 52.5q0 6 0.5 14t2 20t4 29t7.5 43h66q-4 -17 -8 -38t-4 -37
q0 -11 4 -14t13 -3q7 0 11 1.5t7 8.5t6.5 22t8.5 41q5 29 6.5 41t1.5 18q0 11 -4 13.5t-12 2.5q-16 0 -29 -15z" />
    <glyph glyph-name="sixsuperior" unicode="&#x2076;" horiz-adv-x="265" 
d="M58 341zM202 644q2 10 4.5 21.5t2.5 19.5t-3.5 10t-13.5 2q-5 0 -9 -1.5t-7.5 -7.5t-6.5 -18t-7 -33l-6 -30q17 5 34 5q29 0 45 -12t16 -51q0 -12 -2 -28.5t-7 -48.5q-8 -44 -17 -70t-22 -39.5t-30.5 -17.5t-42.5 -4q-44 0 -58 14.5t-14 53.5q0 11 1.5 25t4.5 34.5
t7.5 48.5t11.5 66q12 65 21 103t21 58t31 25.5t50 5.5q41 0 57 -10.5t16 -39.5q0 -20 -3.5 -40t-9.5 -41h-64zM138 504q-5 -29 -7.5 -42.5t-2.5 -21.5q0 -9 3 -13t14 -4q5 0 8.5 2t7 9t7 20t7.5 35q3 21 4.5 30.5t1.5 14.5q0 10 -3.5 12.5t-10.5 2.5q-13 0 -22 -7z" />
    <glyph glyph-name="sevensuperior" unicode="&#x2077;" horiz-adv-x="265" 
d="M61 348zM61 348l136 336l-1 4h-94l14 79h177l-9 -47l-144 -372h-79z" />
    <glyph glyph-name="eightsuperior" unicode="&#x2078;" horiz-adv-x="265" 
d="M55 341zM234 565q8 -5 12 -12.5t4 -24.5q0 -12 -2 -29t-7 -43q-7 -39 -15 -61.5t-21 -34.5t-31 -15.5t-44 -3.5q-19 0 -33 2t-23.5 8.5t-14 19.5t-4.5 34q0 30 9 84q4 20 8 33t8.5 21t10 13t13.5 9q-6 6 -9.5 14.5t-3.5 22.5q0 11 2 27t6 39q6 36 13.5 57t19.5 32.5
t29.5 14.5t44.5 3q38 0 55 -9.5t17 -46.5q0 -15 -2.5 -36t-7.5 -50q-5 -26 -11.5 -41.5t-22.5 -26.5zM144 422q15 0 20 8t11 41t6 45q0 11 -4 13t-14 2q-8 0 -13 -1.5t-8 -7t-5.5 -16.5t-5.5 -30q-2 -14 -3.5 -23t-1.5 -15q0 -11 4 -13.5t14 -2.5zM174 594q6 0 10 1.5t7 6.5
t6 15.5t6 28.5q2 14 3.5 23.5t1.5 15.5q0 9 -3.5 11.5t-11.5 2.5q-13 0 -17.5 -7t-9.5 -37q-6 -36 -6 -47q0 -10 3 -12t11 -2z" />
    <glyph glyph-name="ninesuperior" unicode="&#x2079;" horiz-adv-x="265" 
d="M79 348zM79 348l2 11q25 35 48 75.5t38 75.5l-1 2q-5 -3 -14 -5.5t-18 -2.5q-24 0 -37 8t-13 44q0 32 12 98q7 41 14.5 65t19.5 36.5t30 16t46 3.5q40 0 57.5 -11t17.5 -48q0 -16 -2.5 -39.5t-10.5 -65.5q-12 -58 -40.5 -125t-71.5 -138h-77zM168 573q6 0 10.5 1.5t8 7
t6.5 17.5t7 33q6 37 6 50q0 11 -3.5 13.5t-11.5 2.5q-6 0 -9.5 -1.5t-6.5 -7t-6 -17t-6 -31.5q-4 -21 -6 -33.5t-2 -20.5q0 -9 3 -11.5t10 -2.5z" />
    <glyph glyph-name="zeroinferior" unicode="&#x2080;" horiz-adv-x="265" 
d="M143 6q-14 -15 -29 -19t-47 -4q-42 0 -58 10t-16 45q0 11 1.5 26t5 36.5t8.5 51t12 69.5q7 39 12 67t10.5 48.5t11 34t13.5 22.5q11 14 27.5 19t48.5 5q39 0 56.5 -10.5t17.5 -47.5q0 -11 -1.5 -26t-4.5 -36t-7.5 -49.5t-11.5 -65.5q-8 -41 -14 -70.5t-11.5 -50t-11 -34
t-12.5 -21.5zM96 73q3 5 5 12t5 20.5t7 35.5l10 55l10 55t6.5 36.5t3.5 23t1 13.5q0 9 -3 12t-12 3q-12 0 -17 -8q-2 -5 -4 -12.5t-5 -21.5t-7 -36t-10 -56q-6 -32 -9.5 -54t-6 -36t-3 -22.5t-0.5 -13.5q0 -9 3 -11.5t11 -2.5q6 0 9.5 1.5t5.5 6.5z" />
    <glyph glyph-name="oneinferior" unicode="&#x2081;" horiz-adv-x="265" 
d="M-14 -10l14 82h48l36 202h-49l12 70h33q9 0 15 3t9.5 10t6.5 19.5t7 32.5h62l-60 -337h45l-14 -82h-165z" />
    <glyph glyph-name="twoinferior" unicode="&#x2082;" horiz-adv-x="265" 
d="M-16 -10l14 82l64 72q16 18 27.5 30.5t19.5 23t12.5 19.5t6.5 20q2 8 4.5 21.5l5 27t4 25t1.5 14.5q0 10 -3.5 12t-11.5 2q-11 0 -16 -5t-10 -28q-4 -14 -6.5 -29.5t-3.5 -32.5h-67q2 22 6.5 44t10.5 45q6 25 14 41t19.5 25.5t27.5 13.5t39 4q38 0 56 -13.5t18 -55.5
q0 -9 -1 -22.5t-3 -28.5t-5 -30.5t-7 -28.5q-5 -18 -10 -31.5t-12.5 -26.5t-19 -26.5t-28.5 -31.5l-47 -53h85l-14 -79h-170z" />
    <glyph glyph-name="threeinferior" unicode="&#x2083;" horiz-adv-x="265" 
d="M58 170l12 68h40q7 0 11 1t7 6.5t5.5 15.5t5.5 28q2 14 3.5 23.5t1.5 14.5q0 9 -4 11t-12 2q-15 0 -19 -5.5t-8 -25.5q-5 -24 -6 -42h-66q4 43 20 92q11 32 31 45t62 13q39 0 56.5 -9t17.5 -44q0 -13 -4 -39t-8 -48q-7 -33 -14.5 -47.5t-20.5 -23.5q8 -5 12.5 -12.5
t4.5 -27.5q0 -23 -4 -46.5t-9 -46.5q-6 -29 -14 -46.5t-20 -27.5t-30 -13t-43 -3q-42 0 -58.5 14t-16.5 49q0 17 4 44t12 53h65q-3 -13 -7 -30.5t-4 -31.5q0 -11 4.5 -13.5t14.5 -2.5q14 0 19 6t11 33q3 14 5 28.5t2 22.5q0 11 -4.5 13t-14.5 2h-40z" />
    <glyph glyph-name="fourinferior" unicode="&#x2084;" horiz-adv-x="265" 
d="M70 -10l13 75h-96l13 75l144 269h67l-49 -273h24l-12 -71h-24l-13 -75h-67zM114 229h-3l-48 -93h34z" />
    <glyph glyph-name="fiveinferior" unicode="&#x2085;" horiz-adv-x="265" 
d="M27 216l44 193h155l-14 -79h-95l-13 -53l3 -1q6 2 14.5 4.5t17.5 2.5q26 0 40.5 -12.5t14.5 -50.5q0 -12 -1.5 -30t-8.5 -55q-9 -47 -18 -77t-22.5 -46.5t-32.5 -22.5t-47 -6q-41 0 -55 15.5t-14 52.5q0 6 0.5 14t2 20t4 29t7.5 43h66q-4 -17 -8 -38t-4 -37q0 -11 4 -14
t13 -3q7 0 11 1.5t7 8.5t6.5 22t8.5 41q5 29 6.5 41t1.5 18q0 11 -4 13.5t-12 2.5q-16 0 -29 -15z" />
    <glyph glyph-name="sixinferior" unicode="&#x2086;" horiz-adv-x="265" 
d="M139 286q2 10 4.5 21.5t2.5 19.5t-3.5 10t-13.5 2q-5 0 -9 -1.5t-7.5 -7.5t-6.5 -18t-7 -33l-6 -30q17 5 34 5q29 0 45 -12t16 -51q0 -12 -2 -28.5t-7 -48.5q-8 -44 -17 -70t-22 -39.5t-30.5 -17.5t-42.5 -4q-44 0 -58 14.5t-14 53.5q0 11 1.5 25t4.5 34.5t7.5 48.5
t11.5 66q12 65 21 103t21 58t31 25.5t50 5.5q41 0 57 -10.5t16 -39.5q0 -20 -3.5 -40t-9.5 -41h-64zM75 146q-5 -29 -7.5 -42.5t-2.5 -21.5q0 -9 3 -13t14 -4q5 0 8.5 2t7 9t7 20t7.5 35q3 21 4.5 30.5t1.5 14.5q0 10 -3.5 12.5t-10.5 2.5q-13 0 -22 -7z" />
    <glyph glyph-name="seveninferior" unicode="&#x2087;" horiz-adv-x="265" 
d="M-2 -10l136 336l-1 4h-94l14 79h177l-9 -47l-144 -372h-79z" />
    <glyph glyph-name="eightinferior" unicode="&#x2088;" horiz-adv-x="265" 
d="M171 207q8 -5 12 -12.5t4 -24.5q0 -12 -2 -29t-7 -43q-7 -39 -15 -61.5t-21 -34.5t-31 -15.5t-44 -3.5q-19 0 -33 2t-23.5 8.5t-14 19.5t-4.5 34q0 30 9 84q4 20 8 33t8.5 21t10 13t13.5 9q-6 6 -9.5 14.5t-3.5 22.5q0 11 2 27t6 39q6 36 13.5 57t19.5 32.5t29.5 14.5
t44.5 3q38 0 55 -9.5t17 -46.5q0 -15 -2.5 -36t-7.5 -50q-5 -26 -11.5 -41.5t-22.5 -26.5zM81 64q15 0 20 8t11 41t6 45q0 11 -4 13t-14 2q-8 0 -13 -1.5t-8 -7t-5.5 -16.5t-5.5 -30q-2 -14 -3.5 -23t-1.5 -15q0 -11 4 -13.5t14 -2.5zM111 236q6 0 10 1.5t7 6.5t6 15.5
t6 28.5q2 14 3.5 23.5t1.5 15.5q0 9 -3.5 11.5t-11.5 2.5q-13 0 -17.5 -7t-9.5 -37q-6 -36 -6 -47q0 -10 3 -12t11 -2z" />
    <glyph glyph-name="nineinferior" unicode="&#x2089;" horiz-adv-x="265" 
d="M16 -10l2 11q25 35 48 75.5t38 75.5l-1 2q-5 -3 -14 -5.5t-18 -2.5q-24 0 -37 8t-13 44q0 32 12 98q7 41 14.5 65t19.5 36.5t30 16t46 3.5q40 0 57.5 -11t17.5 -48q0 -16 -2.5 -39.5t-10.5 -65.5q-12 -58 -40.5 -125t-71.5 -138h-77zM105 215q6 0 10.5 1.5t8 7t6.5 17.5
t7 33q6 37 6 50q0 11 -3.5 13.5t-11.5 2.5q-6 0 -9.5 -1.5t-6.5 -7t-6 -17t-6 -31.5q-4 -21 -6 -33.5t-2 -20.5q0 -9 3 -11.5t10 -2.5z" />
    <glyph glyph-name="Euro" unicode="&#x20ac;" 
d="M333 207q-4 -37 -10.5 -77.5t-21.5 -68.5q-10 -19 -21.5 -33t-27.5 -23t-38.5 -13.5t-54.5 -4.5q-38 0 -62 4t-38 15.5t-19.5 31.5t-5.5 53q0 32 5.5 78.5t16.5 112.5h-36l22 63h25l14 78h-36l22 63h25q10 58 18.5 97.5t17 66.5t18.5 44.5t23 32.5q23 26 52.5 34.5
t77.5 8.5q46 0 72 -16t35 -30q-11 -29 -22 -57.5t-22 -57.5h-4q-8 18 -23 30t-44 12t-40.5 -4.5t-19.5 -15.5q-5 -6 -9 -15.5t-8 -25.5t-9 -41t-12 -63h127l-21 -63h-117l-14 -78h103l-22 -63h-92q-10 -57 -14 -86t-4 -46q0 -23 6.5 -30t33.5 -7q26 0 35.5 9.5t14.5 31.5
q7 28 8 53h96z" />
    <glyph glyph-name="uni20B9" unicode="&#x20b9;" 
d="M144 0q-1 6 -1.5 12.5t-0.5 15.5q0 25 2.5 52t6 53.5t6 51t2.5 43.5q0 24 -6.5 30.5t-22.5 6.5h-98l35 92h94q20 0 33 21.5t24 77.5h-157l24 62h145q5 30 7.5 49.5t2.5 32.5q0 18 -5 24.5t-25 6.5h-117l57 126h261v-2l-62 -112q2 -5 3.5 -11.5t1.5 -17.5q0 -26 -12 -96
h38l-23 -62h-27q-9 -40 -18.5 -67t-19.5 -45t-21 -28.5t-23 -16.5l-1 -6q16 -9 22.5 -23t6.5 -46q0 -50 -7.5 -99t-7.5 -102v-9.5t1 -9.5v-4h-118z" />
    <glyph glyph-name="uni20BA" unicode="&#x20ba;" 
d="M0 0l56 318l-29 -10l11 66l29 11l13 74l-29 -11l12 67l29 11l41 231h111l-33 -187l169 64l-11 -66l-170 -66l-13 -74l169 65l-11 -67l-170 -64l-41 -232h31q15 0 23 2t15 12q4 6 7.5 13.5t7 20t7 31.5t8.5 46h112q-9 -48 -17 -79.5t-15 -53.5t-14 -36t-15 -27
q-11 -17 -23.5 -28.5t-28.5 -18t-37 -9.5t-49 -3h-145z" />
    <glyph glyph-name="trademark" unicode="&#x2122;" horiz-adv-x="615" 
d="M106 398l51 290h-58l12 69h190l-12 -69h-60l-51 -290h-72zM505 398l40 230h-8l-100 -230h-38l-20 230h-8l-40 -230h-67l63 359h104l8 -197h9l81 197h105l-63 -359h-66z" />
    <glyph glyph-name="onethird" unicode="&#x2153;" horiz-adv-x="541" 
d="M9 0zM35 348l14 82h48l36 202h-49l12 70h33q9 0 15 3t9.5 10t6.5 19.5t7 32.5h62l-60 -337h45l-14 -82h-165zM9 0l1 4l467 753h70l-1 -5l-468 -752h-69zM336 170l12 68h40q7 0 11 1t7 6.5t5.5 15.5t5.5 28q2 14 3.5 23.5t1.5 14.5q0 9 -4 11t-12 2q-15 0 -19 -5.5
t-8 -25.5q-5 -24 -6 -42h-66q4 43 20 92q11 32 31 45t62 13q39 0 56.5 -9t17.5 -44q0 -13 -4 -39t-8 -48q-7 -33 -14.5 -47.5t-20.5 -23.5q8 -5 12.5 -12.5t4.5 -27.5q0 -23 -4 -46.5t-9 -46.5q-6 -29 -14 -46.5t-20 -27.5t-30 -13t-43 -3q-42 0 -58.5 14t-16.5 49
q0 17 4 44t12 53h65q-3 -13 -7 -30.5t-4 -31.5q0 -11 4.5 -13.5t14.5 -2.5q14 0 19 6t11 33q3 14 5 28.5t2 22.5q0 11 -4.5 13t-14.5 2h-40z" />
    <glyph glyph-name="twothirds" unicode="&#x2154;" horiz-adv-x="541" 
d="M12 0zM39 348l14 82l64 72q16 18 27.5 30.5t19.5 23t12.5 19.5t6.5 20q2 8 4.5 21.5l5 27t4 25t1.5 14.5q0 10 -3.5 12t-11.5 2q-11 0 -16 -5t-10 -28q-4 -14 -6.5 -29.5t-3.5 -32.5h-67q2 22 6.5 44t10.5 45q6 25 14 41t19.5 25.5t27.5 13.5t39 4q38 0 56 -13.5
t18 -55.5q0 -9 -1 -22.5t-3 -28.5t-5 -30.5t-7 -28.5q-5 -18 -10 -31.5t-12.5 -26.5t-19 -26.5t-28.5 -31.5l-47 -53h85l-14 -79h-170zM12 0l1 4l467 753h70l-1 -5l-468 -752h-69zM340 170l12 68h40q7 0 11 1t7 6.5t5.5 15.5t5.5 28q2 14 3.5 23.5t1.5 14.5q0 9 -4 11t-12 2
q-15 0 -19 -5.5t-8 -25.5q-5 -24 -6 -42h-66q4 43 20 92q11 32 31 45t62 13q39 0 56.5 -9t17.5 -44q0 -13 -4 -39t-8 -48q-7 -33 -14.5 -47.5t-20.5 -23.5q8 -5 12.5 -12.5t4.5 -27.5q0 -23 -4 -46.5t-9 -46.5q-6 -29 -14 -46.5t-20 -27.5t-30 -13t-43 -3q-42 0 -58.5 14
t-16.5 49q0 17 4 44t12 53h65q-3 -13 -7 -30.5t-4 -31.5q0 -11 4.5 -13.5t14.5 -2.5q14 0 19 6t11 33q3 14 5 28.5t2 22.5q0 11 -4.5 13t-14.5 2h-40z" />
    <glyph glyph-name="oneeighth" unicode="&#x215b;" horiz-adv-x="541" 
d="M9 0zM35 348l14 82h48l36 202h-49l12 70h33q9 0 15 3t9.5 10t6.5 19.5t7 32.5h62l-60 -337h45l-14 -82h-165zM9 0l1 4l467 753h70l-1 -5l-468 -752h-69zM456 207q8 -5 12 -12.5t4 -24.5q0 -12 -2 -29t-7 -43q-7 -39 -15 -61.5t-21 -34.5t-31 -15.5t-44 -3.5q-19 0 -33 2
t-23.5 8.5t-14 19.5t-4.5 34q0 30 9 84q4 20 8 33t8.5 21t10 13t13.5 9q-6 6 -9.5 14.5t-3.5 22.5q0 11 2 27t6 39q6 36 13.5 57t19.5 32.5t29.5 14.5t44.5 3q38 0 55 -9.5t17 -46.5q0 -15 -2.5 -36t-7.5 -50q-5 -26 -11.5 -41.5t-22.5 -26.5zM366 64q15 0 20 8t11 41t6 45
q0 11 -4 13t-14 2q-8 0 -13 -1.5t-8 -7t-5.5 -16.5t-5.5 -30q-2 -14 -3.5 -23t-1.5 -15q0 -11 4 -13.5t14 -2.5zM396 236q6 0 10 1.5t7 6.5t6 15.5t6 28.5q2 14 3.5 23.5t1.5 15.5q0 9 -3.5 11.5t-11.5 2.5q-13 0 -17.5 -7t-9.5 -37q-6 -36 -6 -47q0 -10 3 -12t11 -2z" />
    <glyph glyph-name="threeeighths" unicode="&#x215c;" horiz-adv-x="541" 
d="M6 0zM118 528l12 68h40q7 0 11 1t7 6.5t5.5 15.5t5.5 28q2 14 3.5 23.5t1.5 14.5q0 9 -4 11t-12 2q-15 0 -19 -5.5t-8 -25.5q-5 -24 -6 -42h-66q4 43 20 92q11 32 31 45t62 13q39 0 56.5 -9t17.5 -44q0 -13 -4 -39t-8 -48q-7 -33 -14.5 -47.5t-20.5 -23.5
q8 -5 12.5 -12.5t4.5 -27.5q0 -23 -4 -46.5t-9 -46.5q-6 -29 -14 -46.5t-20 -27.5t-30 -13t-43 -3q-42 0 -58.5 14t-16.5 49q0 17 4 44t12 53h65q-3 -13 -7 -30.5t-4 -31.5q0 -11 4.5 -13.5t14.5 -2.5q14 0 19 6t11 33q3 14 5 28.5t2 22.5q0 11 -4.5 13t-14.5 2h-40zM6 0
l1 4l467 753h70l-1 -5l-468 -752h-69zM450 207q8 -5 12 -12.5t4 -24.5q0 -12 -2 -29t-7 -43q-7 -39 -15 -61.5t-21 -34.5t-31 -15.5t-44 -3.5q-19 0 -33 2t-23.5 8.5t-14 19.5t-4.5 34q0 30 9 84q4 20 8 33t8.5 21t10 13t13.5 9q-6 6 -9.5 14.5t-3.5 22.5q0 11 2 27t6 39
q6 36 13.5 57t19.5 32.5t29.5 14.5t44.5 3q38 0 55 -9.5t17 -46.5q0 -15 -2.5 -36t-7.5 -50q-5 -26 -11.5 -41.5t-22.5 -26.5zM360 64q15 0 20 8t11 41t6 45q0 11 -4 13t-14 2q-8 0 -13 -1.5t-8 -7t-5.5 -16.5t-5.5 -30q-2 -14 -3.5 -23t-1.5 -15q0 -11 4 -13.5t14 -2.5z
M390 236q6 0 10 1.5t7 6.5t6 15.5t6 28.5q2 14 3.5 23.5t1.5 15.5q0 9 -3.5 11.5t-11.5 2.5q-13 0 -17.5 -7t-9.5 -37q-6 -36 -6 -47q0 -10 3 -12t11 -2z" />
    <glyph glyph-name="fiveeighths" unicode="&#x215d;" horiz-adv-x="541" 
d="M0 0zM83 574l44 193h155l-14 -79h-95l-13 -53l3 -1q6 2 14.5 4.5t17.5 2.5q26 0 40.5 -12.5t14.5 -50.5q0 -12 -1.5 -30t-8.5 -55q-9 -47 -18 -77t-22.5 -46.5t-32.5 -22.5t-47 -6q-41 0 -55 15.5t-14 52.5q0 6 0.5 14t2 20t4 29t7.5 43h66q-4 -17 -8 -38t-4 -37
q0 -11 4 -14t13 -3q7 0 11 1.5t7 8.5t6.5 22t8.5 41q5 29 6.5 41t1.5 18q0 11 -4 13.5t-12 2.5q-16 0 -29 -15zM-1 0l1 4l467 753h70l-1 -5l-468 -752h-69zM446 207q8 -5 12 -12.5t4 -24.5q0 -12 -2 -29t-7 -43q-7 -39 -15 -61.5t-21 -34.5t-31 -15.5t-44 -3.5q-19 0 -33 2
t-23.5 8.5t-14 19.5t-4.5 34q0 30 9 84q4 20 8 33t8.5 21t10 13t13.5 9q-6 6 -9.5 14.5t-3.5 22.5q0 11 2 27t6 39q6 36 13.5 57t19.5 32.5t29.5 14.5t44.5 3q38 0 55 -9.5t17 -46.5q0 -15 -2.5 -36t-7.5 -50q-5 -26 -11.5 -41.5t-22.5 -26.5zM356 64q15 0 20 8t11 41t6 45
q0 11 -4 13t-14 2q-8 0 -13 -1.5t-8 -7t-5.5 -16.5t-5.5 -30q-2 -14 -3.5 -23t-1.5 -15q0 -11 4 -13.5t14 -2.5zM386 236q6 0 10 1.5t7 6.5t6 15.5t6 28.5q2 14 3.5 23.5t1.5 15.5q0 9 -3.5 11.5t-11.5 2.5q-13 0 -17.5 -7t-9.5 -37q-6 -36 -6 -47q0 -10 3 -12t11 -2z" />
    <glyph glyph-name="seveneighths" unicode="&#x215e;" horiz-adv-x="541" 
d="M0 0zM60 348l136 336l-1 4h-94l14 79h177l-9 -47l-144 -372h-79zM-10 0l1 4l467 753h70l-1 -5l-468 -752h-69zM445 207q8 -5 12 -12.5t4 -24.5q0 -12 -2 -29t-7 -43q-7 -39 -15 -61.5t-21 -34.5t-31 -15.5t-44 -3.5q-19 0 -33 2t-23.5 8.5t-14 19.5t-4.5 34q0 30 9 84
q4 20 8 33t8.5 21t10 13t13.5 9q-6 6 -9.5 14.5t-3.5 22.5q0 11 2 27t6 39q6 36 13.5 57t19.5 32.5t29.5 14.5t44.5 3q38 0 55 -9.5t17 -46.5q0 -15 -2.5 -36t-7.5 -50q-5 -26 -11.5 -41.5t-22.5 -26.5zM355 64q15 0 20 8t11 41t6 45q0 11 -4 13t-14 2q-8 0 -13 -1.5t-8 -7
t-5.5 -16.5t-5.5 -30q-2 -14 -3.5 -23t-1.5 -15q0 -11 4 -13.5t14 -2.5zM385 236q6 0 10 1.5t7 6.5t6 15.5t6 28.5q2 14 3.5 23.5t1.5 15.5q0 9 -3.5 11.5t-11.5 2.5q-13 0 -17.5 -7t-9.5 -37q-6 -36 -6 -47q0 -10 3 -12t11 -2z" />
    <glyph glyph-name="partialdiff" unicode="&#x2202;" 
d="M289 415q12 62 15 95.5t3 54.5q0 30 -5 49t-13.5 30t-20 15.5t-24.5 4.5q-12 0 -21 -3l14 103q9 2 18.5 4t20.5 2q20 0 40 -9t35.5 -30.5t25 -58t9.5 -91.5q0 -32 -3.5 -70t-11.5 -84q-17 -93 -39.5 -173.5t-53.5 -140t-71.5 -94t-93.5 -34.5q-106 0 -106 145
q0 48 9.5 110.5t32.5 118.5t61.5 94.5t95.5 38.5q30 0 49.5 -19.5t24.5 -57.5h9zM259 311q-3 37 -17 57t-48 20q-19 0 -34 -13.5t-26.5 -35.5t-19 -48.5t-12.5 -53.5t-7 -50.5t-2 -38.5q0 -38 12.5 -50t32.5 -12q36 0 66.5 58.5t54.5 166.5z" />
    <glyph glyph-name="product" unicode="&#x220f;" 
d="M168 -238l195 1107h-147l-195 -1107h-83l210 1200h315l-211 -1200h-84z" />
    <glyph glyph-name="summation" unicode="&#x2211;" 
d="M-60 -238l3 20l254 483l-86 473l3 19h311l-19 -105h-186l66 -405l-194 -381h176l-18 -104h-310z" />
    <glyph glyph-name="minus" unicode="&#x2212;" 
d="M35 333l16 92h323l-16 -92h-323z" />
    <glyph glyph-name="radical" unicode="&#x221a;" 
d="M82 0l-5 333h-53l16 92h116l-7 -278h9l196 610h85l-1 -7l-259 -750h-97z" />
    <glyph glyph-name="infinity" unicode="&#x221e;" horiz-adv-x="660" 
d="M317 287q-34 -47 -76.5 -73t-98.5 -26q-46 0 -70.5 30t-24.5 91q0 34 8 79t27 85t50 67.5t77 27.5q56 0 87 -26.5t53 -74.5q40 48 81.5 74.5t97.5 26.5q45 0 69.5 -29t24.5 -89q0 -35 -8 -80t-26.5 -85.5t-49.5 -68.5t-77 -28q-57 0 -90 26t-54 73zM294 374
q-17 38 -36.5 59.5t-54.5 21.5q-21 0 -34.5 -11.5t-21 -29t-10.5 -38.5t-3 -40q0 -20 8.5 -30.5t32.5 -10.5q36 0 65.5 23.5t53.5 55.5zM372 374q14 -32 36 -55.5t58 -23.5q24 0 38 11.5t21 29.5t8.5 39t1.5 41q0 19 -8.5 29t-32.5 10q-34 0 -63.5 -21.5t-58.5 -59.5z" />
    <glyph glyph-name="integral" unicode="&#x222b;" 
d="M-52 -238l15 93h63q26 0 36.5 12t16.5 46l159 898q7 42 18.5 71t29.5 47t43 25.5t59 7.5h66l-16 -93h-63q-26 0 -37 -12.5t-17 -46.5l-158 -897q-7 -41 -19 -70t-30 -47t-43 -26t-59 -8h-64z" />
    <glyph glyph-name="approxequal" unicode="&#x2248;" 
d="M6 173zM340 235q-23 -29 -46.5 -41.5t-52.5 -12.5q-22 0 -39 5.5t-36 17.5q-20 14 -31.5 19t-34.5 5q-24 0 -44.5 -13t-42.5 -42h-7l17 94q16 23 38.5 38.5t50.5 15.5q26 0 47 -6t41 -20q17 -13 31 -17.5t31 -4.5q23 0 44.5 12.5t44.5 41.5h5zM384 495
q-23 -29 -46.5 -41.5t-52.5 -12.5q-22 0 -39 5.5t-36 17.5q-20 14 -31.5 19t-34.5 5q-24 0 -44.5 -13t-42.5 -42h-7l17 94q16 23 38.5 38.5t50.5 15.5q26 0 47 -6t41 -20q17 -13 31 -17.5t31 -4.5q23 0 44.5 12.5t44.5 41.5h5z" />
    <glyph glyph-name="notequal" unicode="&#x2260;" 
d="M146 211l-117 -211h-69v4l115 207h-63l16 92h97l85 152h-155l16 93h190l116 209h70l-1 -5l-114 -204h62l-16 -93h-97l-84 -152h154l-16 -92h-189z" />
    <glyph glyph-name="lessequal" unicode="&#x2264;" 
d="M0 0zM320 149l-287 184l16 92l352 184h4l-19 -108l-246 -122l-2 -10l203 -121l-17 -99h-4zM-32 -47l16 92h323l-16 -92h-323z" />
    <glyph glyph-name="greaterequal" unicode="&#x2265;" 
d="M0 0zM85 609l287 -184l-16 -92l-352 -184h-4l19 108l246 122l2 10l-203 121l17 99h4zM-32 -47l16 92h323l-16 -92h-323z" />
    <glyph glyph-name="lozenge" unicode="&#x25ca;" 
d="M99 0l-47 378l180 379h76l45 -379l-178 -378h-76zM269 378l-19 242h-7l-107 -242l21 -241h8z" />
    <glyph glyph-name=".null" horiz-adv-x="0" 
 />
    <glyph glyph-name="nonmarkingreturn" horiz-adv-x="175" 
 />
    <glyph glyph-name=".ttfautohint" horiz-adv-x="175" 
d="M0 0z" />
    </font>
</defs>
</svg>
