<?xml version="1.0" ?><svg id="Слой_1" style="enable-background:new 0 0 512 512;" version="1.1" viewBox="0 0 512 512" xml:space="preserve" xmlns="http://www.w3.org/2000/svg" xmlns:xlink="http://www.w3.org/1999/xlink"><style type="text/css">
	.st0{fill:#234F77;}
	.st1{fill:#0939B2;}
	.st2{fill:#BA0000;}
	.st3{fill:#006BCC;}
	.st4{fill:#E02828;}
	.st5{fill:#1C6C99;}
	.st6{fill:#11AAED;}
	.st7{fill:#132AD3;}
	.st8{fill:#FF8500;}
	.st9{fill:url(#SVGID_1_);}
	.st10{fill:url(#SVGID_2_);}
	.st11{fill:url(#SVGID_3_);}
</style><g><g id="XMLID_2_"><g><path class="st1" d="M341.7,70.9c-10.3-2.6-22.8-4.2-38.5-4.2c-23.1,0-50.9,6.8-70.9,25.7c-23.1,21-32.6,55.1-32.6,86.1v5     c0,2.8-2.2,5-5,5c-7.9,0-15.7,0-23.6,0c-2.8,0-5,2.2-5,5v48.8c0,2.8,2.2,5,5,5h23.6c2.8,0,5,2.2,5,5v187.9c0,2.8,2.2,5,5,5h70.3     c2.8,0,5-2.2,5-5V252.3c0-2.8,2.2-5,5-5h40.9c2.8,0,5-2.2,5-5c0-16.3,0-32.5,0-48.8c0-2.8-2.2-5-5-5c-13.8,0-27.6,0-41.5,0     c-2.8,0-5-2.2-5-5v-8.1c0-25.2,11-45.7,37.3-45.7c7.7,0,14.3,0.9,19.9,2.1c3,0.7,6-1.5,6.1-4.6c0.9-17.1,1.8-34.1,2.6-51.2     C345.7,73.7,344.1,71.5,341.7,70.9z M256,8.4c136.8,0,247.6,110.9,247.6,247.6S392.8,503.6,256,503.6S8.4,392.8,8.4,256     S119.2,8.4,256,8.4z"/></g></g></g></svg>